<?xml version="1.0" encoding="UTF-8"?>
<svg id="SVGDoc" width="54" height="56" xmlns="http://www.w3.org/2000/svg" version="1.1" xmlns:xlink="http://www.w3.org/1999/xlink" xmlns:avocode="https://avocode.com/" viewBox="0 0 54 56"><defs></defs><desc>Generated with Avocode.</desc><g><g><title>Shape 245 1</title><path d="M26.66504,0.0008c3.46115,-0.05291 4.52671,2.41055 6.42586,3.93332c0.46841,0.37511 0.76218,0.93776 1.39584,1.15354c0.65208,0.22165 2.01187,-0.11465 2.63363,-0.23576c2.21684,-0.43331 4.67892,-0.73199 6.29425,0.39333c1.78253,1.24114 1.88026,2.76214 2.42283,5.21797c0.23712,1.07358 0.18208,2.6375 0.76378,3.40888c0.41439,0.54972 1.28471,0.77314 1.89617,1.12767c1.89468,1.09945 4.17824,1.79028 5.08278,3.88099c1.13777,2.62986 -0.5896,5.1921 -1.52744,7.02765c-0.31357,0.61381 -0.85453,1.24996 -0.84274,2.12423c0.00984,0.72375 0.46932,1.287 0.73746,1.80909c0.28084,0.59441 0.56179,1.18882 0.84274,1.78322c0.57976,1.20234 1.56395,2.64749 1.07975,4.563c-0.67257,2.66043 -2.82703,3.31716 -4.92485,4.53655c-0.72762,0.42273 -1.85005,0.70729 -2.34386,1.36343c-0.51441,0.68319 -0.4739,2.00135 -0.6847,2.96322c-0.43236,1.97254 -0.51487,3.52176 -1.5802,4.85109c-1.47114,1.83555 -4.03908,1.79322 -6.84734,1.25878c-0.69248,-0.13229 -2.29076,-0.5315 -3.00224,-0.28868c-0.78987,0.26986 -1.3995,1.13178 -1.94881,1.67857c-1.47675,1.46985 -2.63775,2.98086 -5.18818,3.40888c-1.035,0.17344 -2.0715,-0.25693 -2.65995,-0.60323c-1.49654,-0.88191 -2.45029,-2.27533 -3.76602,-3.33009c-0.46829,-0.37569 -0.76206,-0.93835 -1.39584,-1.15413c-0.66662,-0.22694 -1.65676,0.06467 -2.2649,0.18344c-1.7728,0.34688 -4.26945,0.77961 -5.84644,0.10524c-2.64107,-1.13002 -2.65297,-3.09786 -3.31833,-6.10987c-0.19741,-0.89367 -0.14969,-2.10247 -0.57941,-2.80624c-0.46829,-0.76609 -1.66397,-1.06535 -2.44926,-1.52041c-2.24945,-1.30523 -4.44912,-1.95549 -5.00381,-4.98279c-0.31906,-1.74148 0.60299,-3.00673 1.13251,-4.06443c0.28084,-0.59441 0.56179,-1.18882 0.84274,-1.78322c0.27695,-0.54208 0.92869,-1.27642 0.76366,-2.1501c-0.10414,-0.55149 -0.42664,-1.01655 -0.65838,-1.46809c-0.30716,-0.64732 -0.61455,-1.29406 -0.92171,-1.94079c-0.6213,-1.40518 -1.72794,-3.03495 -0.92182,-5.11332c0.86277,-2.22418 2.8236,-2.8568 4.76681,-3.98565c0.7283,-0.42332 1.84971,-0.70729 2.34386,-1.36402c0.49072,-0.65144 0.4565,-1.88435 0.65838,-2.80565c0.44243,-2.01781 0.51579,-3.64758 1.60652,-5.00866c1.52206,-1.89846 4.16645,-1.76029 7.03171,-1.23232c0.68825,0.127 2.0985,0.49034 2.81788,0.26222c0.63354,-0.20049 0.93327,-0.78255 1.39584,-1.15354c0.95673,-0.91777 1.9138,-1.83614 2.87064,-2.75332c0.5682,-0.45154 1.22978,-0.829 2.02778,-1.04889c0.28095,-0.0441 0.5619,-0.0876 0.84286,-0.13111zM26.744,3.25211c-2.63615,1.23291 -3.5812,4.26198 -6.66298,5.03453c-1.06052,0.26634 -2.34455,0.00706 -3.31833,-0.18344c-0.6847,-0.08702 -1.36951,-0.17462 -2.05421,-0.26222c-0.8242,-0.15698 -1.77624,-0.29867 -2.37019,0.15757c-0.74444,0.57148 -0.68584,1.90904 -0.92171,2.98909c-0.47997,2.19772 -0.51659,4.00916 -1.86985,5.34967c-1.0881,1.07769 -2.85645,1.67563 -4.21383,2.46465c-0.73597,0.42802 -1.62689,0.62968 -1.94881,1.46867c-0.36404,0.94894 0.35191,1.84143 0.65838,2.43878c0.81562,1.58979 1.68835,2.98615 2.02789,5.00866c0.25875,1.54099 -0.83153,2.93265 -1.26411,3.90686c-0.28095,0.59441 -0.5619,1.18882 -0.84274,1.78322c-0.34698,0.67907 -0.99804,1.68739 -0.42137,2.59576c0.43671,0.68848 1.47114,0.94952 2.18582,1.36402c1.66088,0.96305 3.6264,1.60743 4.60876,3.25131c0.75748,1.2676 0.82466,3.32304 1.18515,4.95634c0.22453,1.01655 0.18471,1.9743 0.92171,2.46465c0.65941,0.4386 1.81721,0.18579 2.63363,0.02646c1.62243,-0.31749 4.23054,-0.76667 5.71484,-0.18344c1.89308,0.74316 2.96974,2.56224 4.45084,3.74929c0.51304,0.41156 0.9201,1.2917 2.02778,1.07534c0.92205,-0.17991 1.51211,-1.06006 2.08054,-1.62565c1.2925,-1.28583 2.54105,-2.89678 4.58244,-3.40888c0.93796,-0.23518 2.08363,-0.03822 2.9496,0.13111c0.80761,0.11347 1.61545,0.22694 2.42294,0.34101c1.04553,0.20402 2.10354,0.23576 2.63363,-0.44625c0.49084,-0.63145 0.45925,-1.81497 0.65838,-2.72687c0.44289,-2.02781 0.55481,-4.01563 1.76445,-5.24443c1.11362,-1.13178 2.9084,-1.74971 4.31911,-2.56989c0.7893,-0.45918 1.74866,-0.65908 2.00157,-1.65211c0.24353,-0.95658 -0.46005,-1.76794 -0.76378,-2.35999c-0.79308,-1.54628 -1.64417,-2.91324 -1.97525,-4.87755c-0.26081,-1.54746 0.80635,-2.90913 1.23779,-3.88099c0.28095,-0.59441 0.5619,-1.18882 0.84274,-1.78322c0.29045,-0.56795 0.96451,-1.42752 0.60574,-2.33353c-0.33188,-0.8384 -1.20701,-1.0383 -1.94881,-1.46867c-1.55582,-0.9019 -3.64094,-1.57274 -4.68784,-2.98909c-0.98545,-1.33404 -1.07895,-3.51647 -1.50112,-5.42845c-0.22453,-1.01655 -0.18459,-1.9743 -0.92171,-2.46465c-0.65941,-0.4386 -1.81721,-0.18579 -2.63363,-0.02646c-1.62174,0.31749 -4.23088,0.76667 -5.71484,0.18403c-1.5366,-0.60381 -2.89547,-2.22771 -4.00303,-3.33068c-0.66673,-0.66378 -1.13171,-1.50219 -2.47559,-1.49454zM20.13367,13.45287c4.28158,-0.06409 7.75143,3.9198 5.87288,8.25997c-0.91862,2.12246 -2.58099,3.16018 -5.24082,3.59231c-1.01887,0.1658 -2.03659,-0.26986 -2.68627,-0.55031c-2.16866,-0.93659 -4.30676,-3.76635 -3.26557,-7.08056c0.57632,-1.83437 1.8718,-3.17311 3.60798,-3.85454c0.51235,-0.20108 1.14452,-0.14581 1.71181,-0.36687zM37.54173,15.70762c1.16856,-0.00882 2.19784,0.98127 1.68549,2.22888c-0.20439,0.49799 -0.67085,0.82547 -1.02711,1.18058c-0.62325,0.6291 -1.2466,1.25819 -1.86985,1.88788c-4.88926,4.85933 -9.77989,9.72042 -14.66904,14.57974c-1.45718,1.45045 -2.9147,2.90207 -4.37176,4.35311c-0.57838,0.40803 -1.49311,0.36041 -2.02789,-0.05291c-0.5254,-0.40568 -0.76939,-1.43163 -0.34241,-2.12364c1.43085,-1.44222 2.86205,-2.88502 4.29279,-4.32665c4.07284,-4.04679 8.14693,-8.09476 12.21977,-12.14155c1.08845,-1.08357 2.17724,-2.16774 3.26569,-3.25131c0.67646,-0.67378 1.35807,-1.62977 2.18582,-2.12423c0.2195,-0.06996 0.439,-0.13993 0.65849,-0.20989zM20.15999,16.70418c-0.2282,0.06115 -0.4565,0.12229 -0.6847,0.18344c-0.71583,0.30632 -1.31927,0.94835 -1.55376,1.7309c-0.57049,1.90257 1.17931,3.83631 3.10764,3.40888c3.12378,-0.69201 2.90691,-5.37495 -0.86918,-5.32321zM33.24894,30.65482c4.17801,-0.06409 7.56237,4.02798 5.71484,8.28643c-0.88348,2.03662 -2.54093,3.14901 -5.08278,3.56586c-0.98396,0.16168 -1.97388,-0.18579 -2.60719,-0.44566c-2.40738,-0.98774 -4.75079,-4.05267 -3.37109,-7.55209c0.64327,-1.63153 1.86447,-2.84739 3.50269,-3.48766c0.42137,-0.10465 0.84286,-0.20989 1.26411,-0.31455c0.19318,-0.01764 0.38635,-0.03469 0.57941,-0.05233zM33.16998,33.90613c-1.15974,0.47329 -1.87019,0.60734 -2.2649,1.86201c-0.58136,1.84848 1.01715,3.8269 2.9496,3.48766c3.25012,-0.5703 3.09071,-5.40082 -0.6847,-5.34967z" fill="#ffc600" fill-opacity="1"></path></g></g></svg>
