<?xml version="1.0" encoding="UTF-8"?>
<svg id="SVGDoc" width="58" height="60" xmlns="http://www.w3.org/2000/svg" version="1.1" xmlns:xlink="http://www.w3.org/1999/xlink" xmlns:avocode="https://avocode.com/" viewBox="0 0 58 60"><defs></defs><desc>Generated with Avocode.</desc><g><g><title>Shape 240 1</title><path d="M9.6952,21.32514c5.69183,0 11.38527,0 17.07699,0c-0.27008,-0.61851 -0.54039,-1.23644 -0.81047,-1.85495c-0.37937,-0.96893 -0.54005,-2.0572 -0.75256,-3.1884c-0.40226,-2.1401 0.08537,-4.63885 0.63686,-6.20218c1.61224,-4.57124 4.70421,-7.87957 9.37775,-9.36177c8.46325,-2.68336 15.37949,2.61751 17.74269,8.31818c0.62943,1.51865 1.47423,4.41837 1.07094,6.78248c-0.21606,1.26584 -0.34126,2.44701 -0.75256,3.50648c-0.28942,0.66672 -0.57896,1.33345 -0.86838,2.00017c1.29112,-0.00823 4.93126,-0.28515 5.38364,0.43449c0.32078,0.51092 0.14477,1.81732 0.14465,2.57988c0,2.13481 0,4.27021 0,6.40502c0,6.7813 0,13.56496 0,20.34626c0,1.93197 0,3.86453 0,5.79709c0,0.74668 0.17097,1.93903 -0.08686,2.52109c-0.35912,0.81136 -2.06966,0.5509 -3.2127,0.5509c-3.16429,0 -6.32938,0 -9.49368,0c-9.55055,0 -19.10385,0 -28.6544,0c-2.87487,0 -5.75054,0 -8.6253,0c-1.47045,0 -3.2959,0.16227 -4.45736,-0.20284c-3.95119,-1.24232 -3.38654,-4.96927 -3.38642,-9.9991c0,-7.76669 0,-15.53632 0,-23.30301c0,-1.78675 0,-3.57468 0,-5.36143c-0.00011,-1.80439 -0.11547,-3.71167 0.52094,-4.86932c1.20964,-2.20125 2.68547,-2.6375 6.07819,-2.6375c0.93658,0 2.45155,-0.20166 2.86549,0.34747c0.31734,0.42155 0.20267,1.4234 0.20256,2.14481c0,1.74853 0,3.49766 0,5.24619zM38.75495,2.02247c-0.41485,0.04821 -0.82981,0.09642 -1.24454,0.14463c-0.96577,0.20225 -1.89182,0.43037 -2.72072,0.78255c-3.52718,1.49807 -6.03001,4.22729 -7.20715,8.08653c-0.44186,1.44868 -0.75302,3.6952 -0.37617,5.50665c0.26127,1.25643 0.58468,2.35176 1.04198,3.39124c0.74066,1.68386 2.01324,3.276 3.38642,4.34723c0.45742,0.35688 2.00569,1.19587 2.22862,1.59391c0.90683,3.22662 1.81389,6.45441 2.72072,9.68044c0.44609,1.48631 0.69031,2.49051 2.11292,2.98556c0.24445,0.08525 0.66444,0.22401 1.01303,0.17403c2.46494,-0.3557 2.56714,-2.13305 3.21281,-4.28961c0.79102,-2.83034 1.58237,-5.66186 2.37339,-8.49221c0.16834,-0.361 2.17804,-1.60449 2.63386,-1.97078c1.46999,-1.18235 2.63626,-3.01025 3.38642,-4.89813c0.32444,-0.81665 0.50617,-1.7209 0.69466,-2.66631c0.38967,-1.9549 -0.00584,-4.30372 -0.52094,-5.76769c-1.45271,-4.12969 -4.31042,-6.91829 -8.59634,-8.20235c-1.20277,-0.36041 -2.56943,-0.40862 -4.13898,-0.40568zM46.36722,8.74616c0.99117,-0.03234 2.16923,0.03704 1.91025,1.18823c-0.17315,0.77079 -0.93132,0.8143 -1.91025,0.78255c0,0.37687 0,0.75374 0,1.13061c0.84137,0.17109 1.48579,0.99303 1.76559,1.73913c0.34847,0.92895 0.14465,2.59105 0.14465,3.76752c-0.00961,0.5409 -0.01923,1.0824 -0.02895,1.6233c-0.11375,0.51327 -0.35568,0.97657 -0.63675,1.33345c-0.73677,0.93365 -2.56359,1.35873 -3.79166,0.57912c-1.04301,-0.66202 -1.35212,-1.65682 -1.33141,-3.41946c-1.92936,0 -3.85941,0 -5.78876,0c0.01236,0.78255 0.02071,1.54628 -0.20256,2.0866c-0.71468,1.72913 -3.00282,2.34706 -4.63108,1.04359c-0.35637,-0.28574 -0.68928,-0.82547 -0.83942,-1.30464c-0.23048,-0.73551 -0.26184,-4.72998 -0.02884,-5.50665c0.29079,-0.9701 0.94608,-1.61037 1.85234,-1.97078c0,-0.36746 0,-0.73434 0,-1.1018c-0.97961,0.03175 -2.1785,-0.0388 -1.9392,-1.15883c0.17178,-0.80489 0.92697,-0.84369 1.9392,-0.81195c-0.00744,-0.73786 0.23106,-1.19352 0.52105,-1.62271c1.10607,-1.63977 3.35861,-1.27524 6.02028,-1.27524c3.53416,0 6.78314,-0.52327 6.97552,2.89796zM34.78969,11.6447c3.21236,0 6.42586,0 9.63821,0c0.01225,-1.08651 0.26791,-3.17547 -0.37617,-3.6517c-0.38441,-0.28456 -1.32008,-0.17403 -1.96827,-0.17403c-1.62071,0 -3.24188,0 -4.86259,0c-0.67005,0 -1.68377,-0.12347 -2.08397,0.17403c-0.62382,0.4633 -0.35843,2.60399 -0.34721,3.6517zM32.85037,15.52863c0.63675,0 1.27361,0 1.91036,0c0,-0.64732 0,-1.29464 0,-1.94197c-1.65321,-0.03998 -1.94996,0.28339 -1.91036,1.94197zM36.69994,13.58667c0,0.64732 0,1.29464 0,1.94197c1.92936,0 3.85941,0 5.78876,0c0,-0.64732 0,-1.29464 0,-1.94197c-1.92936,0 -3.85941,0 -5.78876,0zM44.4279,13.58667c0,0.64732 0,1.29464 0,1.94197c0.63675,0 1.27361,0 1.91036,0c0.0388,-1.66681 -0.25108,-1.98077 -1.91036,-1.94197zM7.756,50.27943c0,-11.58242 0,-23.16837 0,-34.75079c-2.21821,-0.01823 -4.19792,-0.1611 -5.15202,1.0724c-0.25681,0.3316 -0.46932,0.77961 -0.57884,1.24585c-0.00973,2.76273 -0.01934,5.52664 -0.02895,8.28937c0,8.3658 0,16.73395 0,25.09976c0.44106,-0.24635 0.8622,-0.55384 1.38931,-0.72493c1.1459,-0.37158 2.89536,-0.23106 4.3705,-0.23165zM32.85037,17.4706c-0.03193,0.97833 0.01167,2.15186 1.12885,1.91257c0.79742,-0.1705 0.81367,-0.90837 0.78152,-1.91257c-0.63675,0 -1.27361,0 -1.91036,0zM44.4279,17.4706c-0.03181,0.97833 0.01167,2.15186 1.12885,1.91257c0.79502,-0.16991 0.81356,-0.91131 0.78152,-1.91257c-0.63675,0 -1.27361,0 -1.91036,0zM9.6952,23.2671c0,0.63733 0,1.27524 0,1.91257c6.6758,0 13.35354,0 20.02922,0c-0.25074,-0.25105 -0.50171,-0.5021 -0.75256,-0.75315c-0.31826,-0.38686 -0.63675,-0.77314 -0.95512,-1.15942c-6.10657,0 -12.21497,0 -18.32153,0zM55.97659,58.0179c0,-11.58242 0,-23.16837 0,-34.75079c-1.18664,0 -2.3735,0 -3.56014,0c-0.31597,0 -1.08376,-0.10818 -1.2735,0.05762c-0.27981,0.33807 -0.55962,0.67672 -0.83942,1.01478c-0.27969,0.27986 -0.55962,0.56031 -0.83931,0.84017c1.14315,-0.00882 3.97385,-0.24341 4.42841,0.37687c0.29251,0.3998 0.17372,1.39165 0.17361,2.05779c0,1.70032 0,3.40123 0,5.10097c0,5.37142 0,10.74402 0,16.11485c0,1.5551 0,3.11138 0,4.66648c0.00011,0.59794 0.14019,1.54628 -0.05779,2.02898c-0.33806,0.8237 -1.93016,0.57971 -3.06805,0.57971c-3.03886,0 -6.07853,0 -9.11739,0c-9.49265,0 -18.98815,0 -28.4808,0c-1.54358,0 -3.0875,0 -4.63108,0c-3.3292,0 -4.82964,-0.28515 -4.80469,-3.68109c-1.23974,0.21813 -2.36996,1.98547 -1.79443,3.62289c0.32799,0.93306 1.0817,1.65682 2.08385,1.91316c0.56923,0.01881 1.13857,0.03822 1.70769,0.05762c1.1673,0 2.33494,0 3.50224,0c3.68523,0 7.37148,0 11.05659,0c11.83685,0 23.67737,0 35.51422,0zM9.6952,27.12164c0,1.28465 0,2.56989 0,3.85512c2.23812,0 4.47693,0 6.71505,0c0,-0.0294 0,-0.05821 0,-0.08702c-0.25085,-1.25584 -0.50171,-2.51227 -0.75256,-3.76811c-1.98727,0 -3.97511,0 -5.96249,0zM9.6952,32.91814c0,1.28524 0,2.57047 0,3.85512c2.33459,0 4.66988,0 7.00447,0c0.86288,0 2.22221,-0.16991 2.72072,0.23165c0.52391,0.42273 0.75371,3.07022 0.95512,3.94214c0.1498,0.64791 0.70175,2.41761 0.43419,3.01378c-0.34264,0.76432 -1.75003,0.5509 -2.83653,0.5509c-2.75894,0 -5.51891,0 -8.27797,0c0,0.63733 0,1.27524 0,1.91316c2.79774,0 5.59616,0 8.39378,0c0.93464,0 2.6334,-0.22871 3.21281,0.20284c0.4929,0.36687 0.47573,1.4528 0.63675,2.14481c0.36655,1.79675 0.73322,3.59408 1.09989,5.39082c1.26377,0 2.52789,0 3.79166,0c0,-0.0294 0,-0.05821 0,-0.08702c-0.26379,-0.84193 -0.86494,-3.13078 -0.14477,-3.62289c0.38498,-0.2634 1.22131,-0.17403 1.85246,-0.17403c1.43738,0 2.87521,0 4.31259,0c0,-0.63733 0,-1.27524 0,-1.91316c-1.65928,0 -3.31902,0 -4.97829,0c-0.69489,0 -1.62518,0.10465 -2.02606,-0.20284c-0.55069,-0.42155 -0.546,-1.89258 -0.72361,-2.66631c-0.18002,-0.78372 -0.71125,-2.23241 0,-2.75332c0.47653,-0.34924 2.43793,-0.17403 3.27061,-0.17403c2.87487,0 5.75054,0 8.6253,0c1.1602,0 3.01334,-0.26869 3.44433,0.49269c0.29182,0.51562 0.11581,2.37234 0.11581,3.15959c0,2.64632 0,5.2944 0,7.94131c0.63663,0 1.27361,0 1.91025,0c0,-2.81153 0,-5.62306 0,-8.43459c0,-0.99362 -0.21194,-2.55284 0.37628,-2.98497c0.47951,-0.35218 1.82968,-0.17403 2.6049,-0.17403c2.21889,0 4.43836,0 6.65714,0c0,-1.28465 0,-2.56989 0,-3.85454c-2.90371,0 -5.80833,0 -8.71216,0c-1.2085,2.106 -4.71542,2.48522 -6.77284,0.92718c-1.31847,-0.99832 -1.60069,-2.53873 -2.14188,-4.34723c-0.76206,-2.72451 -1.52447,-5.44903 -2.28653,-8.17354c-0.43407,0 -0.86838,0 -1.30245,0c0,2.84034 0,5.68127 0,8.52102c0.00011,1.05653 0.21732,2.55872 -0.46314,2.95675c-0.48466,0.2828 -2.25883,0.11582 -3.01014,0.11582c-0.86002,0 -2.98347,0.1852 -3.47328,-0.17403c-0.5563,-0.40803 -0.64613,-2.21359 -0.83942,-3.04318c-0.5595,-2.79213 -1.11912,-5.58426 -1.67873,-8.37638c-1.27338,0 -2.54711,0 -3.82061,0c0,0.00999 0,0.0194 0,0.02881c0.27981,1.36226 0.55962,2.7251 0.83942,4.08677c0.12726,0.53738 0.1688,1.14237 -0.20256,1.44927c-0.45296,0.37393 -1.62941,0.23224 -2.4313,0.23165c-2.04517,0 -4.09103,0 -6.13621,0zM28.97186,36.77327c0,-3.21662 0,-6.43442 0,-9.65163c-1.85223,0 -3.70491,0 -5.55714,0c0,0.00999 0,0.0194 0,0.02881c0.64625,3.20721 1.29284,6.4156 1.9392,9.62282c1.20586,0 2.41207,0 3.61794,0zM52.12703,29.0348c0,-0.63792 0,-1.27524 0,-1.91316c-1.71719,0 -3.43483,0 -5.15202,0c0,0.0194 0,0.0388 0,0.05821c-0.17361,0.61793 -0.34733,1.23644 -0.52094,1.85495c1.89079,0 3.78216,0 5.67295,0zM52.12703,32.91814c0,-0.64673 0,-1.29464 0,-1.94138c-2.07413,0 -4.14883,0 -6.22295,0c-0.17361,0.64673 -0.34733,1.29464 -0.52094,1.94138c2.24773,0 4.49615,0 6.74389,0zM52.12703,36.77327c0,-0.63792 0,-1.27524 0,-1.91316c-2.43107,0 -4.86282,0 -7.29389,0c-0.17361,0.63792 -0.34733,1.27524 -0.52094,1.91316c2.60468,0 5.21015,0 7.81483,0zM9.6952,38.71523c0,1.28465 0,2.56989 0,3.85454c3.00991,0 6.02074,0 9.03053,0c0,-0.02881 0,-0.05762 0,-0.08702c-0.25085,-1.25584 -0.50171,-2.51168 -0.75256,-3.76752c-2.75894,0 -5.51891,0 -8.27797,0zM28.45092,52.2502c0.12543,0.63792 0.25085,1.27524 0.37628,1.91316c3.27026,0 6.54167,0 9.81194,0c0,-3.21721 0,-6.43501 0,-9.65163c-3.91663,0 -7.83451,0 -11.75125,0c0,0.00941 0,0.0194 0,0.02881c0.12543,0.62792 0.25097,1.25643 0.37628,1.88435c1.77509,0 3.55064,0 5.32574,0c0.91599,0 1.75175,-0.08937 2.08397,0.49269c0.24342,0.42626 0.1157,1.4087 0.11581,2.02839c0,0.87956 0.19661,2.3888 -0.20267,2.92735c-0.32215,0.43508 -1.03249,0.37687 -1.79455,0.37687c-1.44699,0 -2.89455,0 -4.34155,0zM44.4279,44.51174c0,3.21662 0,6.43442 0,9.65163c2.56611,0 5.13302,0 7.69913,0c0,-3.21721 0,-6.43501 0,-9.65163c-2.56611,0 -5.13302,0 -7.69913,0zM49.11689,46.42489c1.30428,-0.03822 1.41827,1.70855 0.31837,1.94138c-0.97298,0.20695 -1.45123,-0.94658 -0.95512,-1.59391c0.14832,-0.19343 0.39368,-0.24282 0.63675,-0.34747zM9.6952,48.36627c0.01122,0.95188 0.19043,3.19898 -0.28942,3.62289c-0.57976,0.51268 -2.53223,0.2728 -3.56003,0.26105c-0.00938,0.71964 -0.05939,1.4087 0.34733,1.71032c0.56602,0.4192 3.05225,0.20284 4.05212,0.20284c3.59837,0 7.19776,0 10.79601,0c0,-0.0294 0,-0.05821 0,-0.08702c-0.38578,-1.90316 -0.77179,-3.80691 -1.15768,-5.71008c-3.39581,0 -6.79253,0 -10.18833,0zM49.20375,50.27943c1.23894,0.12229 1.32076,1.79263 0.1157,1.97078c-0.77934,0.11524 -1.34045,-0.88779 -0.89722,-1.53629c0.18253,-0.26692 0.44563,-0.30808 0.78152,-0.43449z" fill="#ffc600" fill-opacity="1"></path></g></g></svg>