<?xml version="1.0" encoding="UTF-8"?>
<svg id="SVGDoc" width="71" height="48" xmlns="http://www.w3.org/2000/svg" version="1.1" xmlns:xlink="http://www.w3.org/1999/xlink" xmlns:avocode="https://avocode.com/" viewBox="0 0 71 48"><defs></defs><desc>Generated with Avocode.</desc><g><g><title>Shape 241 1</title><path d="M14.61042,0.02166c6.31439,0 12.63062,0 18.94489,0c3.19954,0 6.26324,-0.32866 7.60563,1.55687c1.62907,2.28885 0.86758,11.96987 0.8297,15.99433c1.34995,-0.22224 3.37143,0.22518 4.01024,0c0.96748,-0.82958 1.39606,-3.49236 3.45703,-2.68924c0.2766,0.23576 0.55321,0.47153 0.8297,0.70788c0,0.32983 0,0.66026 0,0.99068c-3.10822,4.6947 -2.85839,2.92794 -8.29697,3.9633c-0.09315,1.96607 -0.71239,3.45238 -1.936,4.2461c-1.95614,1.26877 -16.13342,0.61675 -19.91283,0.56619c-0.80029,1.12708 -6.43501,6.70957 -7.74387,6.22746c-0.27649,-0.23576 -0.55321,-0.47153 -0.8297,-0.70729c-0.04612,-3.01966 -0.09224,-6.03932 -0.13824,-9.05898c-4.72057,2.28238 -3.40885,4.5095 -6.08448,8.20941c0.65849,2.05838 1.23734,6.46969 -0.2766,7.64322c-0.78358,0.33042 -1.56727,0.66084 -2.35085,0.99068c0.13824,0.75492 0.2766,1.50983 0.41485,2.26475c1.40087,0.35747 2.20802,1.765 2.35085,3.39712c0.18436,0 0.36873,0 0.55309,0c0.52391,-3.99094 2.36423,-2.31002 2.35085,-5.80297c0.73597,-2.41585 3.7888,-4.79759 5.80788,-1.98195c0.50709,1.17941 1.01418,2.3594 1.52115,3.53881c0.13824,0 0.2766,0 0.41485,0c0.59887,-1.29876 1.42021,-2.71334 3.18054,-2.40644c0.23048,0.28339 0.46097,0.56619 0.69145,0.84957c0.3344,1.67681 -2.73205,5.21797 -5.11654,4.2461c-1.89011,-0.77079 -2.17152,-2.84328 -3.04218,-4.67119c-0.13836,0 -0.2766,0 -0.41485,0c-0.04612,0.14169 -0.09224,0.28339 -0.13836,0.42508c-0.09212,1.08475 -0.18436,2.17009 -0.27649,3.25542c-0.44071,1.19528 -1.61522,0.87956 -2.2126,1.69797c-1.012,1.38636 0.33703,3.10785 -2.48909,3.68051c-3.01655,0.61087 -2.71763,-1.87494 -3.73363,-3.39712c-0.64533,-0.42449 -1.29078,-0.84957 -1.936,-1.27407c-0.73895,-1.18411 -0.92022,-4.94693 -0.13824,-5.80297c0.51315,-0.77608 1.75152,-0.90308 2.76569,-1.13237c0.04601,-0.09407 0.09212,-0.18873 0.13824,-0.2828c-0.44643,-1.48514 -1.50192,-5.66774 -0.8297,-6.79424c0.50697,-0.37746 1.01406,-0.75492 1.52115,-1.13237c0.09212,-0.99068 0.18436,-1.98136 0.27649,-2.97204c0.03044,-0.07055 3.06313,-3.88099 3.18054,-3.9633c0.78358,-0.28339 1.56727,-0.56619 2.35085,-0.84957c0.81345,-0.595 0.58937,-1.65858 1.65939,-2.12305c-0.04749,-3.45474 -0.82478,-13.03875 0.41485,-15.28645c0.59578,-1.08005 1.60561,-1.46162 2.62733,-2.12305zM15.30187,2.7109c-0.27649,0.18873 -0.55309,0.37746 -0.8297,0.56619c-0.04612,7.92543 -0.09212,15.85381 -0.13824,23.77924c1.61316,-1.4628 3.22678,-2.92559 4.83994,-4.3878c1.24443,0 2.4892,0 3.73363,0c3.98438,0 13.39371,0.92542 16.04084,-0.56619c0.79926,-3.03318 0.75073,-15.28527 0.13836,-18.68356c-0.2766,-0.18873 -0.55321,-0.37746 -0.8297,-0.56619c-7.65095,-0.04704 -15.30418,-0.09407 -22.95513,-0.14169zM50.70245,41.63489c-0.26905,-5.55251 3.95073,-7.21167 6.22284,-2.83093c6.57681,-1.20293 4.0559,-1.0724 5.66963,4.2461c0.27649,-0.23576 0.55309,-0.47153 0.8297,-0.70729c0.27649,-0.56619 0.55309,-1.13237 0.8297,-1.69856c0,-0.33042 0,-0.66084 0,-0.99127c-0.41485,-1.03771 -0.82981,-2.07602 -1.24454,-3.11373c-0.2821,-1.66093 1.43543,-2.93911 0.69134,-4.3878c-0.18436,-0.14111 -0.36873,-0.2828 -0.55309,-0.42449c-0.32261,-0.09407 -0.64533,-0.18873 -0.96794,-0.2828c-1.07861,0.87309 -1.73527,1.56157 -3.73375,1.55687c-4.75273,-2.25357 -1.08742,-9.86505 2.4892,-10.75754c2.90977,-0.72552 4.39442,2.10659 7.05242,2.54813c0,-0.23576 0,-0.47212 0,-0.70788c-2.21649,-4.28079 -8.35178,-5.04218 -4.01024,-11.04034c-0.18642,-2.03133 -1.6634,-2.8421 -2.07424,-4.5289c-0.27031,-1.11003 0.19844,-1.86024 0,-2.40644c-0.27649,-0.14169 -0.55321,-0.2828 -0.8297,-0.42449c-0.09224,0.04704 -0.18436,0.09407 -0.2766,0.14169c-0.49828,1.14237 -1.8655,2.51227 -3.31879,2.68924c-0.27649,-0.18873 -0.55321,-0.37746 -0.8297,-0.56619c-0.09212,-0.28339 -0.18436,-0.56619 -0.2766,-0.84957c1.20232,-3.31775 5.8532,-6.16573 8.29708,-2.12305c0.51327,0.84899 0.20462,2.11717 -0.13836,2.83093c2.36687,2.00135 2.74086,6.29802 0.41485,8.3511c0.09224,0.18873 0.18448,0.37746 0.2766,0.56619c0.7679,1.59567 9.41471,7.95895 4.01024,10.61526c-2.76192,1.59038 -5.57281,-1.98136 -7.60563,-2.40585c-1.20609,1.02184 -3.62263,2.97263 -2.48909,5.37848c2.34135,-1.85495 6.54156,-2.22771 7.32903,1.55687c0.42194,2.02781 -1.03237,3.10315 -0.69134,4.6706c0.31174,1.43399 1.70769,2.62986 1.10619,4.81229c-0.62714,2.27592 -5.05463,7.37689 -7.05242,3.11432c-0.47859,-1.02125 -0.11284,-2.32707 -0.13824,-3.53881c-3.06095,0.58147 -4.19586,0.75903 -5.80799,-1.83966c-0.04612,0 -0.09212,0 -0.13824,0c-0.33714,1.7356 0.05184,4.24787 -1.3829,4.9534c-2.45419,1.26113 -5.98537,2.53402 -9.26491,1.84025c-0.50697,-0.80195 -1.01418,-1.6039 -1.52115,-2.40644c-0.18436,0.04762 -0.36873,0.09466 -0.55309,0.14169c-0.20863,1.88258 -1.11511,4.10735 -3.45715,3.67992c-0.59921,-0.18873 -1.19854,-0.37746 -1.79764,-0.56619c-0.55309,0.37746 -1.10641,0.75492 -1.65939,1.13237c-2.22645,0.65026 -4.9752,-1.18117 -5.53139,-2.40585c-0.27363,-1.00773 0.1292,-1.32169 0.69145,-1.84025c1.72668,0.03645 2.44686,1.00067 3.87188,1.55687c1.7902,-1.05124 2.71133,-1.2576 4.97818,-0.70729c0.37148,-2.19713 2.02274,-5.02042 4.83994,-3.53881c1.02459,0.53914 1.12289,1.95196 2.35085,2.26475c0.67806,-0.19461 1.89869,0.03763 2.48909,-0.14169c1.01978,-0.30984 1.06556,-1.34697 2.90394,-1.41517zM26.64114,5.40013c0.41485,0.18873 0.82981,0.37746 1.24454,0.56619c0.59921,1.13237 1.19854,2.26475 1.79775,3.39712c1.37329,0.00118 3.6121,0.34159 4.14848,1.27407c0.09212,0.32983 0.18436,0.66026 0.2766,0.99068c-0.92182,1.08475 -1.84399,2.17009 -2.76569,3.25542c0.17349,1.13472 0.70621,3.02554 0.27649,4.10441c-0.23037,0.28339 -0.46097,0.56619 -0.69134,0.84957c-1.99162,-0.07526 -2.68192,-1.23879 -4.42509,-1.55687c-0.89653,0.71317 -2.34306,1.45809 -3.73363,1.55687c-0.44289,-0.22988 -0.5793,-0.26163 -0.8297,-0.70788c-0.54245,-1.03713 0.07233,-3.01084 0.13824,-4.52949c-0.8757,-0.94306 -1.75175,-1.88729 -2.62745,-2.83034c0.04612,-0.33042 0.09224,-0.66084 0.13836,-0.99068c0.60036,-1.19411 2.994,-1.27583 4.42509,-1.55745c0.44964,-1.54334 1.37901,-3.03965 2.62733,-3.82161zM26.64114,9.78793c-0.32261,0.61322 -0.64533,1.22703 -0.96794,1.84025c-0.73746,0.18873 -1.47514,0.37746 -2.2126,0.56619c0.97332,1.23409 1.51096,1.67387 1.24454,3.9633c1.67667,-0.88603 2.21912,-0.59852 4.01024,-0.14169c-0.13882,-2.2571 0.26459,-2.55048 1.24454,-3.82161c-2.14199,-0.60264 -2.07561,-1.08651 -3.31879,-2.40644zM54.4362,11.62819c0.81905,0.05879 1.02013,0.24929 1.52103,0.56619c0.04612,0.09407 0.09224,0.18873 0.13836,0.2828c-0.04612,0.37746 -0.09224,0.75492 -0.13836,1.13237c-0.09212,0.18873 -0.18436,0.37746 -0.27649,0.56619c-0.36873,0.09466 -0.73757,0.18873 -1.1063,0.28339c-0.44289,-0.22988 -0.57919,-0.26163 -0.8297,-0.70788c-0.21927,-0.33513 -0.25074,-0.51268 -0.2766,-1.13237c0.09224,-0.18873 0.18436,-0.37746 0.2766,-0.56619c0.23048,-0.14169 0.46097,-0.2828 0.69145,-0.42449zM24.70514,39.22845c0.2766,0.04704 0.55321,0.09466 0.8297,0.14169c0.50537,0.23341 0.59612,0.33807 0.8297,0.84899c0,0.33042 0,0.66084 0,0.99127c-0.27649,0.23576 -0.55309,0.47153 -0.8297,0.70729c-0.32261,0 -0.64533,0 -0.96794,0c-0.23048,-0.2828 -0.46097,-0.56619 -0.69145,-0.84899c0,-0.33042 0,-0.66084 0,-0.99068c0.2766,-0.28339 0.55321,-0.56619 0.8297,-0.84957z" fill="#ffc600" fill-opacity="1"></path></g></g></svg>