<?xml version="1.0" encoding="UTF-8"?>
<svg id="SVGDoc" width="40" height="53" xmlns="http://www.w3.org/2000/svg" version="1.1" xmlns:xlink="http://www.w3.org/1999/xlink" xmlns:avocode="https://avocode.com/" viewBox="0 0 40 53"><defs></defs><desc>Generated with Avocode.</desc><g><g><title>Shape 244 1</title><path d="M30.00225,6.60152c1.65424,0 3.30883,0 4.96296,0c0.83771,0 1.88713,-0.10407 2.56886,0.09936c0.65804,0.19696 1.28963,0.58853 1.67095,1.06888c0.3019,0.3804 0.56225,0.85369 0.69832,1.39165c0.15873,0.62733 0.07484,1.51924 0.07473,2.26122c0,1.52453 0,3.04906 0,4.573c0,6.88302 0,13.76838 0,20.65199c0,3.09786 0,6.1963 0,9.29416c0.00023,3.73754 0.41153,6.41208 -2.84306,7.03294c-9.30988,0.00823 -18.62251,0.01646 -27.9324,0.02528c-1.31332,0 -2.62711,0 -3.94043,0c-0.78964,-0.00882 -1.57963,-0.01705 -2.36927,-0.02528c-1.41575,-0.26928 -2.35542,-1.14413 -2.74338,-2.43525c-0.26161,-0.87074 -0.09979,-2.24064 -0.09968,-3.28071c0,-2.22771 0,-4.45659 0,-6.68488c0,-7.33867 0,-14.67969 0,-22.01836c0,-2.18714 0,-4.37428 0,-6.56082c-0.00011,-1.91316 -0.07381,-3.159 0.77305,-4.22494c0.38155,-0.48035 1.0128,-0.87192 1.67095,-1.06888c0.67532,-0.20166 1.71329,-0.09936 2.54391,-0.09936c1.66248,0 3.32542,0 4.98791,0c-0.01064,-0.9895 -0.08938,-2.09366 0.32421,-2.65867c0.73357,-1.00303 3.25356,-0.68319 4.96296,-0.67143c0.18711,-0.69436 0.62897,-1.17706 1.02253,-1.66505c2.32155,-2.87738 7.48421,-1.62683 8.37971,1.66505c1.70586,-0.01529 4.23386,-0.33042 4.96296,0.67143c0.41336,0.56736 0.33348,1.6674 0.32421,2.65867zM13.36758,6.60152c0,1.1018 0,2.2036 0,3.3054c4.43047,0 8.8623,0 13.29277,0c0,-1.1018 0,-2.2036 0,-3.3054c-1.64303,0.00412 -3.94707,0.30749 -4.6637,-0.64615c-0.26402,-0.351 -0.22339,-0.65908 -0.32421,-1.21762c-0.1403,-0.77667 -0.64522,-1.29935 -1.42159,-1.44104c-0.36026,-0.06585 -0.68836,0.05703 -0.89779,0.14875c-1.31332,0.57501 -0.66456,2.10071 -1.646,2.83328c-0.7378,0.55031 -3.05408,0.32572 -4.33949,0.32278zM3.39176,9.93161c0,13.24453 0,26.49317 0,39.7377c11.0804,0 22.16412,0 33.2444,0c0,-13.24453 0,-26.49317 0,-39.7377c-2.211,0 -4.4228,0 -6.63391,0c0.01328,1.3405 0.08068,2.46523 -0.69832,3.00731c-0.75153,0.52268 -3.04882,0.29809 -4.31454,0.29809c-3.42464,0 -6.85043,0 -10.27508,0c-1.34766,0 -3.30814,0.23165 -4.09012,-0.37275c-0.69202,-0.53503 -0.60905,-1.69033 -0.59853,-2.93265c-2.21111,0 -4.4228,0 -6.63391,0zM18.18096,19.84781c1.36528,-0.0147 2.36504,1.31346 1.59611,2.5593c-1.95339,1.9549 -3.90747,3.91039 -5.86086,5.86529c-0.47699,0.47506 -1.30989,1.66916 -2.29443,1.54099c-0.82661,-0.10818 -1.16032,-0.56031 -1.62106,-1.0189c-0.6982,-0.69612 -1.39664,-1.39224 -2.09496,-2.08778c-0.32124,-0.32043 -0.73322,-0.62439 -0.97263,-1.0189c-0.26196,-0.43155 -0.29812,-1.23585 -0.02495,-1.68974c0.21938,-0.36452 0.53009,-0.59617 0.97263,-0.74551c1.58043,-0.53561 2.91962,1.8479 3.8158,2.53461c1.87031,-1.86377 3.74107,-3.72813 5.61138,-5.5919c0.25921,-0.10936 0.56557,-0.20931 0.87296,-0.34747zM24.91455,23.15262c1.75392,0 3.50842,0 5.26234,0c0.91759,0 1.90681,-0.07584 2.444,0.29867c0.43648,0.30397 0.89172,1.03595 0.64854,1.83908c-0.13447,0.44331 -0.47562,0.86251 -0.87296,1.04359c-0.46394,0.21107 -1.24947,0.14934 -1.92032,0.14934c-1.22189,0 -2.44423,0 -3.66611,0c-0.93842,0 -2.13604,0.11994 -2.71843,-0.2487c-0.84377,-0.53385 -1.0001,-2.05485 -0.14969,-2.70923c0.28473,-0.21871 0.58994,-0.22107 0.97263,-0.37275zM18.30559,33.09351c1.15883,0.13464 2.26238,1.21174 1.52138,2.48522c-0.4335,0.74492 -1.31538,1.36049 -1.92043,1.96313c-1.34651,1.34168 -2.6936,2.68395 -4.04022,4.02621c-0.52483,0.52268 -1.1927,1.6968 -2.36916,1.49102c-0.74799,-0.13052 -1.08467,-0.60852 -1.52138,-1.04359c-0.6982,-0.69612 -1.39664,-1.39224 -2.09496,-2.08778c-0.32135,-0.32043 -0.73517,-0.62263 -0.97263,-1.0189c-0.32295,-0.53914 -0.19787,-1.40812 0.12474,-1.83908c1.58386,-2.11423 3.74302,1.2576 4.6637,1.96313c1.86195,-1.85495 3.72448,-3.71108 5.58643,-5.56662c0.14133,-0.0829 0.28267,-0.1658 0.424,-0.2487c0.19947,-0.04116 0.39906,-0.0829 0.59853,-0.12406zM24.76498,36.42361c1.79546,0 3.5915,0 5.38696,0c0.86758,0 1.89056,-0.09289 2.41917,0.2487c0.43533,0.28104 0.93258,0.97245 0.72315,1.7891c-0.1363,0.5315 -0.52128,0.97363 -0.99758,1.16824c-0.44952,0.18344 -1.17599,0.12406 -1.79558,0.12406c-1.19705,0 -2.39433,0 -3.59138,0c-0.95913,0 -2.18754,0.12288 -2.79316,-0.2487c-0.80875,-0.49505 -1.07357,-2.01311 -0.22442,-2.68395c0.25784,-0.20343 0.54085,-0.24576 0.87284,-0.39745z" fill="#ffc600" fill-opacity="1"></path></g></g></svg>