<?xml version="1.0" encoding="UTF-8"?>
<svg id="SVGDoc" width="35" height="35" xmlns="http://www.w3.org/2000/svg" version="1.1" xmlns:xlink="http://www.w3.org/1999/xlink" xmlns:avocode="https://avocode.com/" viewBox="0 0 35 35"><defs></defs><desc>Generated with Avocode.</desc><g><g><title>Shape 238 1</title><path d="M3.80656,0.05985c6.36726,0 12.73647,0 19.10374,0c2.7776,-0.00059 6.39851,-0.38922 8.01132,0.8237c1.51909,1.14237 1.64326,2.97557 1.64326,5.69596c0,2.76802 0,5.53663 0,8.30466c0.00011,0.98715 0.21698,2.49639 -0.41084,2.88267c-0.1609,0.14405 -0.34916,0.21342 -0.54771,0.13699c-0.37125,-0.07584 -0.47997,-0.17521 -0.61626,-0.48035c-0.02289,-3.72872 -0.04566,-7.45802 -0.06844,-11.18674c0,-1.287 0.09911,-2.66043 -0.41084,-3.43181c-0.98568,-1.49043 -3.92143,-1.09827 -6.36795,-1.09827c-5.13496,0 -10.2713,0 -15.40627,0c-2.00615,0 -4.99512,-0.361 -6.16253,0.54914c-1.1618,0.9066 -0.89012,3.22191 -0.89012,5.28499c0.02289,4.91812 0.04566,9.83742 0.06855,14.75554c0.20405,0.70494 0.8543,1.38695 1.50639,1.64741c0.783,0.31278 2.20676,0.13699 3.21819,0.13699c2.80701,0 5.61493,0 8.42205,0c1.06613,0 2.33997,-0.09936 3.01277,0.27457c0.18219,0.50974 0.11444,0.84781 -0.13699,1.23526c-2.52628,0.62263 -7.53376,0.13758 -10.47626,0.13758c-1.54919,0 -3.51093,0.19343 -4.65603,-0.27457c-1.02322,-0.41803 -1.91299,-1.3064 -2.32807,-2.33353c-0.47184,-1.16765 -0.27386,-3.16312 -0.27386,-4.73586c0,-3.59114 0,-7.18345 0,-10.77518c-0.00011,-1.96548 -0.19569,-4.25786 0.54771,-5.49019c0.77568,-1.28583 1.73309,-1.43399 3.21819,-2.05897zM3.66957,3.07951c8.46691,0.02293 16.93634,0.04586 25.40325,0.06879c0.51899,0.39627 0.83611,4.66354 0.27386,5.3532c-0.44094,0.60852 -4.60041,0.34336 -5.82012,0.34336c-4.95232,0 -9.90612,0 -14.85844,0c-1.01818,0 -4.80297,0.26399 -5.34084,-0.13758c-0.2425,-0.18109 -0.50674,-4.36722 -0.27386,-5.07863c0.10002,-0.30573 0.37365,-0.38157 0.61615,-0.54914zM4.62824,4.72692c0,0.82312 0,1.64682 0,2.47052c7.75944,0 15.52116,0 23.2806,0c0,-0.8237 0,-1.64741 0,-2.47052c-7.75944,0 -15.52116,0 -23.2806,0zM4.62824,10.76624c1.16753,-0.0147 2.68639,-0.1217 3.62904,0.13758c0.21881,0.64085 0.39185,3.1155 -0.13699,3.50001c-0.71754,0.40391 -3.00945,0.19696 -3.76591,0c-0.30922,-0.92248 -0.30212,-3.10726 0.27386,-3.63759zM10.99619,10.76624c0.9906,-0.03292 3.3086,-0.28456 3.69747,0.34336c0.27466,0.62028 0.19489,3.00614 -0.20542,3.29423c-0.71754,0.40391 -3.00945,0.19696 -3.76602,0c-0.25166,-0.79196 -0.24387,-2.52814 -0.06844,-3.43181c0.1141,-0.0682 0.22831,-0.13699 0.34241,-0.20578zM17.36403,10.76624c1.16764,-0.0147 2.68639,-0.1217 3.62904,0.13758c0.27592,0.83429 0.28645,2.94264 -0.13687,3.5688c-1.0675,0.14934 -2.80701,0.17168 -3.76602,-0.06879c-0.25177,-0.79196 -0.24387,-2.52814 -0.06844,-3.43181c0.1141,-0.0682 0.2282,-0.13699 0.34229,-0.20578zM26.19704,17.76684c1.45992,-0.08819 1.5493,0.40215 2.39651,0.61734c0.36484,0.09289 0.85648,-0.30455 1.43784,-0.27457c0.75302,0.03939 0.9684,0.55502 1.43795,0.68671c0.18253,-0.06879 0.36518,-0.13758 0.54783,-0.20578c1.0619,-0.21048 1.99368,0.47035 2.32807,1.02948c0.65758,1.09886 0.86758,8.98314 0.41073,10.29425c-0.28908,0.83017 -1.12541,1.49278 -1.3694,2.19654c-0.47264,1.36285 -0.04589,2.10424 -1.23253,2.6763c-0.779,0.37628 -2.45922,0.13758 -3.49205,0.13758c-1.41495,-0.02293 -2.83035,-0.04586 -4.2453,-0.06879c-0.6031,-0.23165 -1.20575,-0.84663 -1.3694,-1.50983c0,-0.41156 0,-0.8237 0,-1.23526c-0.5706,-0.54914 -1.14132,-1.09827 -1.71181,-1.64741c-0.78197,-0.99186 -1.49391,-2.17126 -1.98566,-3.43122c-1.00456,-2.57459 -0.82294,-5.47196 2.53338,-5.42198c-0.05836,-2.77567 -0.60024,-8.72033 1.09566,-9.67691c0.45113,-0.25458 1.28323,-0.24929 1.78024,-0.06879c1.8718,0.67848 1.49288,3.37243 1.43795,5.90233zM5.38138,11.9333c0.02289,0.48035 0.04566,0.96069 0.06855,1.44104c0.59338,-0.02293 1.18687,-0.04586 1.78024,-0.06879c0,-0.45742 0,-0.91483 0,-1.37225c-0.61615,0 -1.23253,0 -1.84879,0zM11.74933,11.9333c0,0.48035 0,0.96069 0,1.44104c0.61615,-0.02293 1.23253,-0.04586 1.84879,-0.06879c0,-0.45742 0,-0.91483 0,-1.37225c-0.61626,0 -1.23264,0 -1.84879,0zM18.11728,11.9333c0.02277,0.48035 0.04566,0.96069 0.06844,1.44104c0.59338,-0.02293 1.18698,-0.04586 1.78024,-0.06879c0,-0.45742 0,-0.91483 0,-1.37225c-0.61615,0 -1.23253,0 -1.84868,0zM21.81475,23.25703c-0.6776,-0.02175 -0.93098,0.10348 -1.30096,0.34336c-0.91999,3.26777 2.55215,5.73712 3.76602,7.41216c0.34492,0.47623 0.15118,1.83085 0.61615,2.19654c0.77637,0.42626 5.78671,0.23224 6.71036,0c0.09121,-0.595 0.18253,-1.18999 0.27386,-1.7844c0.41084,-0.595 0.82169,-1.18999 1.23253,-1.7844c0.67989,-1.66563 0.30361,-4.61768 0,-6.52026c-0.15667,-0.98186 0.06248,-2.11776 -0.34241,-2.81388c-0.04566,-0.02293 -0.09132,-0.04586 -0.13687,-0.06879c-0.3091,0.0147 -0.36919,0.0488 -0.54783,0.13758c0.04452,0.73199 -0.00298,1.15119 -0.47928,1.37225c-0.24891,0.11935 -0.29125,0.08643 -0.61626,0.06879c-0.17693,-0.11818 -0.23335,-0.14463 -0.34241,-0.34336c-0.28381,-0.38569 -0.23861,-1.33227 -0.47928,-1.71561c-0.47321,-0.0194 -0.64064,0.0047 -0.82169,0.27457c-0.26035,0.72434 -0.09201,1.22997 -0.47928,1.71561c-0.5072,0.06644 -0.81871,0.05879 -1.02711,-0.34277c-0.29045,-0.42214 -0.18688,-1.51512 -0.41084,-1.92198c-0.23792,-0.08525 -0.46806,-0.19284 -0.75314,-0.06879c-0.6205,0.29867 -0.45067,1.20116 -0.54783,1.99077c-0.13687,0.09113 -0.27386,0.18285 -0.41084,0.27457c-0.28748,0.13346 -0.41325,0.08172 -0.75314,0c-1.24077,-1.84025 0.48317,-6.32976 -0.61626,-8.30466c-0.09132,-0.02293 -0.18265,-0.04586 -0.27386,-0.06879c-0.13699,0.04586 -0.27397,0.09172 -0.41084,0.13758c-1.09852,2.55401 1.3282,11.7982 -1.64337,12.07923c-0.20542,-0.16051 -0.41084,-0.32043 -0.61626,-0.48094c0.01945,-0.92483 0.38383,-0.85016 0.41084,-1.7844zM4.55981,17.42349c1.13091,-0.02175 2.99126,-0.22048 3.76591,0.20578c0.17727,0.87015 0.22064,2.78684 -0.13687,3.43181c-0.95604,0.19284 -3.18375,0.26105 -3.90301,-0.13758c0,-1.05183 0,-2.10424 0,-3.15665c0.09132,-0.11465 0.18265,-0.22871 0.27397,-0.34336zM10.85921,17.42349c1.19946,-0.02528 3.15777,-0.22459 3.90289,0.27457c0.02254,1.02066 0.19032,2.69159 -0.20542,3.36302c-1.01223,0.20578 -3.2943,0.25046 -3.97133,-0.20578c-0.02872,-0.94012 -0.24353,-2.90325 0.27386,-3.36302c0,-0.02293 0,-0.04586 0,-0.06879zM17.22716,17.42349c1.1467,-0.02175 3.0463,-0.22753 3.83446,0.20578c0.17715,0.87015 0.22053,2.78684 -0.13699,3.43181c-1.01223,0.20578 -3.29441,0.25046 -3.97144,-0.20578c-0.02563,-1.10298 -0.17338,-2.76332 0.27397,-3.43181zM5.38138,18.59055c0,0.45742 0,0.91483 0,1.37225c0.61626,0 1.23264,0 1.84879,0c0,-0.45742 0,-0.91483 0,-1.37225c-0.61615,0 -1.23253,0 -1.84879,0zM11.74933,18.59055c0,0.45742 0,0.91483 0,1.37225c0.61615,0 1.23253,0 1.84879,0c0,-0.45742 0,-0.91483 0,-1.37225c-0.61626,0 -1.23264,0 -1.84879,0zM18.11728,18.59055c0,0.45742 0,0.91483 0,1.37225c0.61615,0 1.23253,0 1.84868,0c0,-0.45742 0,-0.91483 0,-1.37225c-0.61615,0 -1.23253,0 -1.84868,0z" fill="#f7f7f7" fill-opacity="1"></path></g></g></svg>