<?xml version="1.0" encoding="UTF-8"?>
<svg id="SVGDoc" width="30" height="17" xmlns="http://www.w3.org/2000/svg" version="1.1" xmlns:xlink="http://www.w3.org/1999/xlink" xmlns:avocode="https://avocode.com/" viewBox="0 0 30 17"><defs></defs><desc>Generated with Avocode.</desc><g><g><title>Shape 253 1 copy</title><path d="M-0.00018,-0.00018c9.99905,0 20.00107,0 30.00011,0c0,5.66597 0,11.33398 0,16.99995c-9.99905,0 -20.00107,0 -30.00011,0c0,-5.66597 0,-11.33398 0,-16.99995zM1.77126,1.77512c0,4.48265 0,8.96655 0,13.44936c5.79597,0 11.59378,0 17.38987,0c0,-0.70528 0,-1.41088 0,-2.11601c0.58571,0 1.17153,0 1.75724,0c0,0.70513 0,1.41072 0,2.11601c2.43645,0 4.8737,0 7.31014,0c0,-4.48281 0,-8.96671 0,-13.44936c-2.43645,0 -4.8737,0 -7.31014,0c0,0.71957 0,1.43913 0,2.15854c-0.58571,0 -1.17153,0 -1.75724,0c0,-0.71941 0,-1.43897 0,-2.15854c-5.79609,0 -11.59389,0 -17.38987,0zM23.67376,3.86272c0.58571,0 1.17153,0 1.75724,0c0,3.13831 0,6.27788 0,9.41603c-0.58571,0 -1.17153,0 -1.75724,0c0,-3.13815 0,-6.27772 0,-9.41603zM4.41415,4.24628c2.47398,0 4.94865,0 7.42264,0c0,0.5915 0,1.18332 0,1.77514c-2.47398,0 -4.94865,0 -7.42264,0c0,-0.59182 0,-1.18363 0,-1.77514zM19.16113,5.33967c0.58571,0 1.17153,0 1.75724,0c0,0.82377 0,1.6477 0,2.47116c-0.58571,0 -1.17153,0 -1.75724,0c0,-0.82346 0,-1.64739 0,-2.47116zM16.476,9.41569c-4.0202,-0.00471 -8.04165,-0.00942 -12.06184,-0.01412c0.00469,-0.5915 0.00938,-1.18363 0.01408,-1.77514c4.0155,0.00455 8.03226,0.00942 12.04777,0.01397c0,0.59182 0,1.18363 0,1.77529zM19.16113,9.21685c0.58571,0 1.17153,0 1.75724,0c0,0.82848 0,1.65712 0,2.48544c-0.58571,0 -1.17153,0 -1.75724,0c0,-0.82832 0,-1.65696 0,-2.48544zM16.476,10.92137c-0.00469,0.59621 -0.00938,1.19289 -0.01408,1.78926c-4.0155,-0.00471 -8.03226,-0.00942 -12.04777,-0.01412c0.00469,-0.59182 0.00938,-1.18363 0.01408,-1.77514c4.0155,0 8.03226,0 12.04777,0z" fill="#051942" fill-opacity="1"></path></g></g></svg>