<?xml version="1.0" encoding="UTF-8"?>
<svg id="SVGDoc" width="23" height="23" xmlns="http://www.w3.org/2000/svg" version="1.1" xmlns:xlink="http://www.w3.org/1999/xlink" xmlns:avocode="https://avocode.com/" viewBox="0 0 23 23"><defs></defs><desc>Generated with Avocode.</desc><g><g><title>Shape 248 1</title><path d="M1.56097,1.51163c0,6.66787 0,13.33778 0,20.00533c5.11745,-0.0146 10.2364,-0.02966 15.35385,-0.04441c-0.01934,-1.22883 -0.25463,-3.31738 0.31334,-4.028c0.29125,-0.07925 0.51453,-0.07816 0.80578,0c0.47058,0.63717 0.48214,4.15731 0.22385,5.19154c-0.84812,0.60924 -3.36033,0.26852 -4.7002,0.26852c-4.38641,-0.01491 -8.77407,-0.02982 -13.16048,-0.04473c-0.64259,-0.88812 -0.31334,-3.40181 -0.31334,-4.83357c0,-4.1468 0,-8.29501 0,-12.44197c0,-0.96235 -0.24559,-4.65748 0.13435,-5.14682c0.3479,-0.68928 2.93598,-0.35798 3.93917,-0.35798c3.53588,0 7.07291,0 10.6089,0c1.01372,0 3.14415,-0.29975 3.49159,0.40255c0.32661,0.60955 0.09624,5.08702 0.08949,6.17634c0.5238,-0.41573 1.09486,-1.45843 1.79054,-1.61114c0.5048,-0.1108 2.67803,2.05135 2.82005,2.4167c0.09361,0.24074 0.00755,0.46658 -0.04475,0.67123c-0.27763,0.21234 -0.42274,0.33883 -0.85052,0.31341c-0.7132,-0.37304 -1.12335,-1.13514 -1.7458,-1.61114c-0.02975,0 -0.05962,0 -0.08949,0c-2.43187,2.44637 -4.86454,4.89336 -7.29641,7.33988c0.23849,0.45591 0.58594,0.55274 0.40283,1.253c-0.13424,0.08961 -0.26859,0.17907 -0.40283,0.26852c-0.51189,0.22207 -0.82706,-0.24561 -1.07437,-0.44743c-0.443,0.32926 -0.61329,0.89863 -0.67142,1.61114c1.52367,-0.20496 2.0153,-1.1196 2.86491,-1.96927c1.4621,-1.44698 2.92465,-2.89427 4.38675,-4.34109c0.70381,-0.70387 1.66946,-2.37998 2.90966,-1.9247c0.29457,0.55462 0.30464,1.52325 0.17899,2.28268c-0.54462,3.29289 -1.451,3.13172 -3.49148,4.74411c-0.439,0.34684 -0.42641,1.16967 -0.98476,1.38734c-1.28609,0.5314 -0.89436,-1.32158 -0.58193,-1.7902c0.74604,-1.11929 2.3069,-1.42218 3.0439,-2.55104c0.3194,-0.48918 0.38349,-1.0697 0.58193,-1.70075c-2.25288,2.23764 -4.50645,4.47574 -6.75934,6.71322c-0.80441,0.58224 -1.60263,0.26633 -2.64095,0.62681c-0.59074,0.20496 -0.73608,1.19572 -1.7458,0.98448c-0.31334,-0.13434 -0.62679,-0.26852 -0.94002,-0.40271c-0.84034,0.72223 -1.98166,0.15129 -2.86491,0.04457c-0.79021,-0.09526 -1.26984,0.75127 -2.23812,0.08961c-0.05917,-0.18252 -0.15129,-0.35908 -0.08961,-0.53705c0.14523,-0.87258 0.95306,-0.30933 1.29822,-0.8503c-0.64762,-1.63013 0.59738,-4.78743 2.41722,-4.38613c2.55306,0.5631 0.80498,3.54133 0,4.56504c0,0.01491 0,0.02982 0,0.04488c0.07462,0 0.14923,0 0.22373,0c0.95741,-0.34275 0.54096,-0.97506 1.16386,-1.29804c0.1791,-0.02982 0.3582,-0.05948 0.53719,-0.08946c0.51636,0.25612 0.50697,0.64957 0.62668,1.29773c0.88085,-0.65161 0.72418,-2.41011 1.38771,-3.26716c2.1484,-2.14787 4.29749,-4.29668 6.44588,-6.44454c-0.01488,-2.19291 -0.02987,-4.38629 -0.04475,-6.57904c-5.10246,0 -10.20653,0 -15.3091,0zM3.75434,3.57035c2.83482,0 5.67032,0 8.50513,0c0.93109,0 2.50053,-0.24137 2.82005,0.40271c0.65575,1.21377 -1.3385,1.02952 -2.28287,1.02952c-2.19326,0 -4.38709,0 -6.58024,0c-0.98007,0 -2.2348,0.12587 -2.82017,-0.26868c-0.10117,-0.31309 -0.13069,-0.50158 -0.04475,-0.8503c0.13424,-0.10452 0.26859,-0.20889 0.40283,-0.31325zM3.88869,6.74806c2.77508,0 5.55096,0 8.32603,0c0.83073,0 2.45098,-0.22348 2.77531,0.31325c0.28919,0.26711 0.18688,0.82519 -0.13435,0.98448c-0.43739,0.39815 -2.04975,0.17922 -2.82005,0.17922c-1.85005,0 -3.70068,0 -5.55061,0c-0.93098,0 -2.08031,0.08836 -2.86491,-0.08977c-0.26024,-0.32188 -0.41061,-0.51131 -0.26859,-1.02936c0.1791,-0.11927 0.35809,-0.23839 0.53719,-0.35782zM3.7992,9.97048c1.36585,-0.0204 6.10542,-0.30289 6.44588,0.49216c0.06546,0.22662 0.01202,0.42311 -0.04475,0.62666c-0.13424,0.10436 -0.26859,0.20889 -0.40283,0.31309c-2.01416,0 -4.02901,0 -6.04317,0c-0.14912,-0.13403 -0.29835,-0.26837 -0.44758,-0.40271c-0.07542,-0.62226 0.11536,-0.75346 0.49244,-1.02921zM6.21642,14.71444c-0.5389,0.51319 -0.81768,1.11285 -0.80578,2.19291c0.02987,-0.01475 0.05974,-0.02982 0.08949,-0.04473c0.20004,-0.39423 1.38359,-1.56327 0.71629,-2.14818z" fill="#051942" fill-opacity="1"></path></g></g></svg>