<?xml version="1.0" encoding="UTF-8"?>
<svg id="SVGDoc" width="25" height="29" xmlns="http://www.w3.org/2000/svg" version="1.1" xmlns:xlink="http://www.w3.org/1999/xlink" xmlns:avocode="https://avocode.com/" viewBox="0 0 25 29"><defs></defs><desc>Generated with Avocode.</desc><g><g><title>Shape 258 1</title><path d="M12.37302,0.00017c0.57255,-0.01051 1.00559,0.24796 1.45317,0.40757c0.85316,0.29002 1.70666,0.58005 2.55981,0.87007c0.49129,0.17499 1.27888,0.31498 1.65321,0.61143c0.18734,0.14846 0.2607,0.41291 0.37331,0.6389c0.24433,0.50738 0.48889,1.01492 0.73322,1.52231c0.18688,0.38403 0.95798,1.64425 0.84,2.13374c-0.14854,0.61567 -1.26812,1.35956 -1.65321,1.87574c0,0.77889 0,1.5584 0,2.33761c0.30178,0.0623 0.53844,0.26962 0.74661,0.43488c1.2014,0.95372 1.20335,2.97447 0,3.92803c-0.21744,0.17216 -0.46726,0.38795 -0.78667,0.44837c-0.07519,1.43992 -0.81562,2.51338 -1.49323,3.37058c-0.23666,0.29944 -0.59624,0.48604 -0.83988,0.77465c0,0.00455 0,0.00926 0,0.01365c0.94208,0.32157 1.88438,0.64345 2.82646,0.96502c0.90202,0.30823 1.80439,0.61614 2.70641,0.92406c1.43692,0.62713 2.48325,1.74657 3.07972,3.23498c0.32536,0.81153 0.42664,1.71785 0.42664,2.90839c0,0.60751 0.03845,1.13749 -0.29331,1.3999c-0.31906,0.25251 -0.96302,0.19021 -1.53316,0.19021c-1.17313,0 -2.34661,0 -3.51974,0c-4.62582,0 -9.25301,0 -13.87882,0c-1.28426,0 -2.56886,0 -3.853,0c-0.5896,0 -1.29456,0.07313 -1.62655,-0.19021c-0.32295,-0.25597 -0.29331,-0.75252 -0.29331,-1.34544c0,-1.097 0.07095,-1.97633 0.34664,-2.74549c0.55458,-1.54773 1.60172,-2.75726 3.03978,-3.39773c1.09749,-0.38513 2.19543,-0.77026 3.29304,-1.15539c0.78655,-0.26727 1.57322,-0.53453 2.35977,-0.80196c-0.00881,-0.0135 -0.01774,-0.02699 -0.02666,-0.04065c-0.30476,-0.14658 -0.60802,-0.50111 -0.81322,-0.76131c-0.69031,-0.87446 -1.38725,-1.88358 -1.49323,-3.34327c-0.31895,-0.05948 -0.56992,-0.27637 -0.78667,-0.44837c-1.09806,-0.87195 -1.26801,-2.8825 -0.10666,-3.83292c0.2425,-0.19837 0.49519,-0.45497 0.85327,-0.52998c0,-0.78375 0,-1.56782 0,-2.35142c-0.18654,-0.19021 -0.37331,-0.38058 -0.55996,-0.57079c-0.32238,-0.32863 -0.97252,-0.80651 -1.09314,-1.29114c-0.11021,-0.4421 0.19363,-0.83492 0.33325,-1.11442c0.37331,-0.76571 0.74661,-1.53157 1.11992,-2.29696c0.17899,-0.35751 0.29411,-0.77748 0.62656,-0.97851c1.75976,-0.59809 3.51997,-1.19619 5.27962,-1.79413zM12.45301,1.75349c-1.44859,0.49373 -2.89764,0.98762 -4.34635,1.48135c-0.41771,0.86976 -0.83553,1.73967 -1.25324,2.60958c0.33337,0.33522 0.66673,0.6706 0.99998,1.00567c3.10158,0 6.20419,0 9.30588,0c0.32879,-0.33962 0.65769,-0.6797 0.9866,-1.01932c-0.41771,-0.8652 -0.83553,-1.73057 -1.25324,-2.59593c-0.43545,-0.14501 -0.87112,-0.29002 -1.30657,-0.43488c-0.69317,-0.23572 -1.38657,-0.47113 -2.07985,-0.7067c-0.31643,-0.11315 -0.68813,-0.32565 -1.0532,-0.33977zM12.38629,3.4522c1.1792,-0.03202 1.23882,1.50536 0.23998,1.69918c-0.61558,0.11927 -1.12106,-0.492 -0.93327,-1.10093c0.11295,-0.36582 0.3566,-0.45277 0.69328,-0.59825zM9.11992,8.54895c0.51888,0.69775 1.3789,1.26383 2.29317,1.54946c1.83586,0.57377 3.71613,-0.52684 4.46629,-1.54946c-2.25288,0 -4.50645,0 -6.75945,0zM8.33337,10.17986c-0.00149,0.72051 0.0618,1.34387 -0.36003,1.63122c-0.48466,0.33004 -0.94276,-0.03045 -1.22658,0.6524c-0.0412,0.09919 -0.10574,0.2453 -0.07999,0.40757c0.16354,1.02685 1.12015,0.51194 1.53328,1.14173c0.19444,0.2963 0.11398,0.86834 0.19993,1.27764c0.13607,0.64784 0.35969,1.21973 0.68001,1.68505c0.35362,0.51445 0.82008,0.95403 1.3599,1.27795c0.30212,0.1403 0.60436,0.28076 0.90649,0.42122c0.15358,0.11708 0.27821,0.32863 0.31998,0.55713c0,0.07266 0,0.14485 0,0.21752c0.27557,0.56168 0.55115,1.12353 0.82661,1.68521c0.00446,0 0.00893,0 0.01339,0c0,-0.0091 0,-0.01805 0,-0.02699c0.27546,-0.55274 0.55103,-1.10548 0.82661,-1.65822c0.084,-0.29975 0.01122,-0.41196 0.17326,-0.62525c0.24765,-0.32596 0.8392,-0.43095 1.18664,-0.6524c0.60059,-0.38262 1.07952,-0.92123 1.4399,-1.54915c0.23026,-0.40176 0.3788,-0.8889 0.47985,-1.41371c0.07107,-0.36881 -0.00389,-0.88074 0.15999,-1.15539c0.39871,-0.66746 1.39709,-0.15239 1.55994,-1.18238c0.06981,-0.44131 -0.27832,-0.7847 -0.55996,-0.88341c-0.26321,-0.09228 -0.54817,-0.04159 -0.74661,-0.17656c-0.42046,-0.28657 -0.36083,-0.91119 -0.36003,-1.63122c-0.17326,0.15427 -0.34664,0.30823 -0.51991,0.46234c-0.48946,0.37744 -1.03832,0.70403 -1.65321,0.95136c-0.34847,0.14015 -0.73654,0.21626 -1.13319,0.29897c-1.63914,0.34119 -3.31043,-0.38058 -4.19964,-1.01932c-0.27557,-0.23101 -0.55115,-0.46203 -0.82661,-0.69336zM10.39983,20.68599c-0.78209,0.27182 -1.56441,0.54379 -2.3465,0.81561c0.46223,0.7114 0.92445,1.42265 1.38657,2.13374c0.6443,-0.32612 1.28883,-0.6524 1.93314,-0.97851c-0.32433,-0.65679 -0.64877,-1.31389 -0.97321,-1.97084zM14.58619,20.68599c-0.31998,0.6615 -0.64007,1.323 -0.95993,1.98449c0.6443,0.32157 1.28883,0.64329 1.93314,0.96486c0.46211,-0.71109 0.92445,-1.42234 1.38657,-2.13374c0,-0.00455 0,-0.0091 0,-0.01365c-0.78655,-0.26711 -1.57333,-0.53453 -2.35977,-0.80196zM1.66718,27.29155c2.8529,0 5.70648,0 8.55938,0c0.27992,-0.85171 0.55996,-1.70357 0.83988,-2.55528c-0.47413,0.14956 -1.48487,0.96423 -2.02652,0.85642c-0.48191,-0.0962 -0.63698,-0.49106 -0.86655,-0.84276c-0.58662,-0.89691 -1.17336,-1.79428 -1.75987,-2.69119c-0.42664,0.14501 -0.85327,0.29002 -1.27991,0.43503c-0.3788,0.13669 -0.7552,0.23682 -1.10653,0.39423c-1.50993,0.67578 -2.36835,2.14128 -2.35989,4.40355zM23.33211,27.29155c0.02907,-2.28362 -0.87193,-3.73719 -2.38644,-4.41736c-0.36003,-0.12665 -0.72006,-0.25361 -1.07998,-0.38042c-0.42652,-0.14501 -0.85327,-0.29002 -1.27991,-0.43503c-0.58651,0.89691 -1.17325,1.79428 -1.75987,2.69119c-0.23026,0.35186 -0.38406,0.74593 -0.86655,0.84276c-0.52792,0.10578 -1.56487,-0.70215 -2.02652,-0.85642c0.27992,0.85171 0.55996,1.70357 0.84,2.55528c2.85278,0 5.70648,0 8.55927,0zM12.49295,25.74209c-0.16434,0.51649 -0.32879,1.03297 -0.49324,1.54946c0.33325,0 0.66662,0 0.99987,0c-0.1688,-0.51649 -0.33772,-1.03297 -0.50663,-1.54946z" fill="#051942" fill-opacity="1"></path></g></g></svg>