<?xml version="1.0" encoding="UTF-8"?>
<svg id="SVGDoc" width="32" height="23" xmlns="http://www.w3.org/2000/svg" version="1.1" xmlns:xlink="http://www.w3.org/1999/xlink" xmlns:avocode="https://avocode.com/" viewBox="0 0 32 23"><defs></defs><desc>Generated with Avocode.</desc><g><g><title>Shape 250 1 copy</title><path d="M0.5504,-0.00024c18.23364,0.02385 13.21598,-0.02401 31.44951,0c0.02197,3.95471 -0.14477,13.44795 -0.18471,22.56265c-0.70301,0.47741 1.71101,0.35798 -24.93965,0.35798c-3.02696,0 -0.0547,0 -3.08167,0c-0.94746,0 -2.83562,0.25456 -3.38757,-0.21469c-0.09613,-0.07156 -0.19226,-0.14329 -0.28839,-0.21485c0,-5.06128 0,-10.12382 0,-15.18511c0,-2.16199 -0.42549,-5.21916 0.1442,-7.09113c0.09613,-0.07156 0.19226,-0.14329 0.28828,-0.21485zM1.55954,1.4323c0.02403,5.49083 0.04807,10.98338 0.0721,16.4742c7.32697,0 8.65631,0 15.98339,0c0.50194,-1.10799 1.13731,-1.0923 1.87397,-1.86224c0.68893,-1.32676 1.03409,-6.34222 2.01817,-6.948c0.16811,-0.04755 0.33634,-0.09526 0.50457,-0.14313c1.47629,0.84998 1.2212,5.4665 2.16225,7.09113c0.02403,0.02401 0.04807,0.04771 0.0721,0.07156c0.40833,0.21501 0.81688,0.42986 1.22532,0.64471c0.24021,0.38199 0.48054,0.76414 0.72075,1.14597c7.32708,-0.0237 -3.07343,-0.04771 4.25365,-0.07141c0,-5.46713 0,-10.93583 0,-16.4028c-0.77417,0 -1.62083,0 -2.45178,0c-0.02403,1.67109 -0.04807,3.34264 -0.0721,5.01389c-0.12005,0.09558 -0.24021,0.19099 -0.36037,0.28657c-1.77372,0.41526 -0.75897,-3.96616 -1.08112,-5.30046c-0.6966,0 -1.39355,0 -2.09026,0c-0.02392,1.07425 -0.04795,2.14897 -0.07198,3.22321c-1.67931,1.26477 -1.45248,-1.67062 -1.36951,-3.22321c-0.72063,0 -1.44161,0 -2.16225,0c0.02884,1.12729 0.23403,4.85711 -0.36037,5.22874c-0.16823,0.04771 -0.33646,0.09558 -0.50457,0.14344c-0.23083,-0.11613 -0.3019,-0.13277 -0.43247,-0.35829c-0.70496,-0.99264 0.10094,-3.76261 -0.21629,-5.01389c-0.6966,0 -1.39355,0 -2.09015,0c0.03582,0.98024 0.2615,3.0567 -0.36037,3.43806c-0.17086,0.11362 -0.26104,0.12995 -0.57667,0.14329c-0.14408,-0.09542 -0.28828,-0.19099 -0.43247,-0.28641c-0.04807,-1.09826 -0.09602,-2.19683 -0.14408,-3.29493c-0.69672,0 -1.39355,0 -2.09026,0c0.01659,1.58885 0.26825,3.83182 -0.1442,5.15717c-0.24021,0.07156 -0.48054,0.14329 -0.72075,0.21501c-0.23083,-0.11613 -0.3019,-0.13277 -0.43247,-0.35829c-0.38956,-0.53783 -0.15965,-4.02407 -0.14408,-5.01389c-0.72075,0 -1.44161,0 -2.16236,0c0.02335,1.08131 0.16983,2.70704 -0.21618,3.43806c-0.24021,0.04787 -0.48054,0.09542 -0.72075,0.14329c-0.09613,-0.04787 -0.19226,-0.09542 -0.28839,-0.14329c-0.37354,-0.83507 -0.02518,-2.42298 -0.28828,-3.43806c-0.69672,0 -1.39355,0 -2.09026,0c0.01671,1.58885 0.26825,3.83182 -0.14408,5.15717c-0.24021,0.07156 -0.48054,0.14329 -0.72075,0.21501c-0.16823,-0.09573 -0.33646,-0.19115 -0.50457,-0.28673c-0.02403,-1.69494 -0.04807,-3.39051 -0.0721,-5.08545c-0.72063,0 -2.67334,0 -3.36994,0zM21.79544,12.82105c-0.36037,1.45624 -0.72075,2.91295 -1.08112,4.36934c-0.24754,0.40694 -1.02882,0.32894 -1.36951,0.64471c0,0.0237 0,0.04771 0,0.07141c1.68171,0 3.36376,0 5.04536,0c0,-0.0237 0,-0.04771 0,-0.07141c-0.42023,-0.37257 -1.19247,-0.23101 -1.4415,-0.78815c-0.50858,-1.13749 -0.2837,-3.42629 -1.15322,-4.2259zM1.55954,19.3392c0,0.71611 0,1.43254 0,2.14881c17.53693,0 11.34933,0 28.88626,0c0,-0.71627 0,-1.4327 0,-2.14881c-17.53693,0 -11.34933,0 -28.88626,0z" fill="#051942" fill-opacity="1"></path></g></g></svg>