<?xml version="1.0" encoding="UTF-8"?>
<svg id="SVGDoc" width="20" height="20" xmlns="http://www.w3.org/2000/svg" version="1.1" xmlns:xlink="http://www.w3.org/1999/xlink" xmlns:avocode="https://avocode.com/" viewBox="0 0 20 20"><defs></defs><desc>Generated with Avocode.</desc><g><g><title>Shape 263 1</title><path d="M9.89442,0.00148c4.84394,-0.0893 8.12737,3.12717 9.51233,6.53557c0.84389,2.07693 0.7608,5.1476 -0.08411,7.15124c-1.18629,2.81329 -3.28114,4.81552 -6.26209,5.83578c-0.62897,0.21516 -1.31012,0.28484 -2.03133,0.41981c-0.28954,0.01852 -0.57907,0.03719 -0.86861,0.05603c-0.24284,-0.01412 -0.48569,-0.02809 -0.72853,-0.04222c-0.32215,-0.02794 -0.64442,-0.05587 -0.96657,-0.08396c-0.9399,-0.19837 -1.77292,-0.43613 -2.53567,-0.7836c-2.68879,-1.22522 -4.52625,-3.30294 -5.47771,-6.2694c-0.34412,-1.07346 -0.60448,-2.69919 -0.35019,-4.07257c0.1236,-0.66762 0.21721,-1.32064 0.4343,-1.90336c1.11923,-3.0035 3.12046,-5.0944 6.09398,-6.24147c0.65426,-0.25236 1.37787,-0.37728 2.14348,-0.5179c0.37354,-0.02794 0.74718,-0.05587 1.12072,-0.08396zM14.48945,6.2012c-1.34468,1.22193 -2.68993,2.44448 -4.03461,3.66657c-0.35019,0.31702 -0.70049,0.6345 -1.05068,0.95152c-0.16457,0.13246 -0.3138,0.39737 -0.53238,0.46187c-0.92457,-0.92359 -1.84937,-1.84749 -2.77382,-2.77092c-0.00938,0 -0.01877,0 -0.02804,0c-0.54634,0.55039 -1.0928,1.10093 -1.63914,1.65147c0,0.0091 0,0.01836 0,0.02794c1.45683,1.45059 2.91412,2.90165 4.37096,4.35239c0.01396,0 0.02804,0 0.042,0c2.41871,-2.20185 4.8381,-4.40402 7.25681,-6.60572c-0.39219,-0.42907 -0.78461,-0.8583 -1.1768,-1.28737c-0.10666,-0.1323 -0.26333,-0.39203 -0.4343,-0.44775z" fill="#46a501" fill-opacity="1"></path></g></g></svg>