<?xml version="1.0" encoding="UTF-8"?>
<svg id="SVGDoc" width="16" height="12" xmlns="http://www.w3.org/2000/svg" version="1.1" xmlns:xlink="http://www.w3.org/1999/xlink" xmlns:avocode="https://avocode.com/" viewBox="0 0 16 12"><defs></defs><desc>Generated with Avocode.</desc><g><g><title>Shape 230 1</title><path d="M15.85899,11.20781l-5.28992,-5.20856l5.29015,-5.20856c0.08766,0.1805 0.14076,0.3804 0.14076,0.59323v9.23066c0,0.21283 -0.05322,0.41273 -0.14099,0.59323zM9.57458,5.67294l-1.60595,1.51983l-7.16492,-7.05528c0.18333,-0.08584 0.38601,-0.13875 0.60242,-0.13875h13.1876c0.21652,0 0.41931,0.05291 0.60265,0.13875l-5.62145,5.53546c0,0 -0.00023,0 -0.00034,0zM0.14076,11.20781c-0.08766,-0.1805 -0.14076,-0.3804 -0.14076,-0.59323v-9.23066c0,-0.21283 0.05322,-0.41273 0.14088,-0.59382l5.28992,5.20915zM7.63733,8.17169c0.09155,0.08995 0.21149,0.13523 0.33142,0.13523c0.11993,0 0.23987,-0.04527 0.33142,-0.13523l1.60606,-1.51983l5.28992,5.20856c-0.18333,0.08643 -0.38601,0.13875 -0.60242,0.13875h-13.1876c-0.21652,0 -0.41931,-0.05291 -0.60265,-0.13875l5.29026,-5.20856z" fill="#ffffff" fill-opacity="1"></path></g></g></svg>