<?xml version="1.0" encoding="UTF-8"?>
<svg id="SVGDoc" width="45" height="22" xmlns="http://www.w3.org/2000/svg" version="1.1" xmlns:xlink="http://www.w3.org/1999/xlink" xmlns:avocode="https://avocode.com/" viewBox="0 0 45 22"><defs></defs><desc>Generated with Avocode.</desc><g><g><title>Shape 136 1</title><path d="M44.19627,18.06867h-2.43633c-0.38395,2.22829 -2.36916,3.93038 -4.75456,3.93038c-2.38586,0 -4.37153,-1.70267 -4.75548,-3.93038h-19.45438c-0.38395,2.22829 -2.36927,3.93038 -4.75456,3.93038c-2.60056,0 -4.72584,-2.02251 -4.81945,-4.54301c-1.39492,-0.36393 -3.2198,-1.3846 -3.2198,-3.51294v-4.65531c-0.00389,-0.13052 -0.01339,-0.78666 0.15804,-1.31052c0.01225,-0.03704 0.02735,-0.07349 0.0452,-0.10936l2.2736,-4.49128c0.00538,-0.01176 0.0111,-0.02234 0.01694,-0.03175c1.1673,-2.06426 3.10318,-3.34538 5.05199,-3.34538h15.22934c2.43073,0 3.52192,1.02713 4.6851,2.925l2.54883,4.1779h1.29547c0.25944,0 6.39004,0.00999 9.34319,0.83135c0.25303,0.07114 0.49061,0.1464 0.71629,0.22871c0.01877,0.00647 0.03731,0.01235 0.05573,0.01999c2.93221,1.07711 3.57811,3.02378 3.57845,4.52596v4.57476c0,0.43331 -0.3598,0.78549 -0.8036,0.78549zM37.00526,20.42808c1.77315,0 3.21556,-1.41047 3.21568,-3.14548c0,-1.73266 -1.44253,-3.14372 -3.21568,-3.14372c-1.77372,0 -3.21682,1.41047 -3.21682,3.14372c0,1.73501 1.4431,3.14548 3.21682,3.14548zM8.04095,20.42808c1.77315,0 3.21568,-1.41047 3.21568,-3.14548c0,-1.73266 -1.44253,-3.14372 -3.21568,-3.14372c-1.77383,0 -3.21682,1.41047 -3.21682,3.14372c0,1.73501 1.44299,3.14548 3.21682,3.14548zM1.60845,9.24839c0.00011,0.00823 0.00046,0.01823 0.00057,0.02705v1.76382h0.86197v-2.4035h-0.82226c-0.03605,0.21166 -0.04509,0.46741 -0.04028,0.61263zM4.01675,3.91048c-0.03605,0.05821 -0.07187,0.11818 -0.10632,0.17932l-1.50593,2.97498h3.46378l1.62586,-3.1543c-0.00126,0 -3.47614,0 -3.4774,0zM26.19231,3.91048h-12.69344c-0.88692,0 -1.41827,0.30573 -1.77647,1.02302l-1.06876,2.16891h17.486zM41.23614,9.804c-0.15884,0.17815 -0.22053,0.37452 -0.22053,0.46447v0.7702l1.87134,-0.00059c-0.35763,-0.50151 -0.90649,-0.91131 -1.65081,-1.23409zM43.3906,12.60906l-3.17802,0.00118c-0.00023,0 -0.00057,0 -0.00069,0c-0.21297,0 -0.41737,-0.08231 -0.56797,-0.2293c-0.15083,-0.14757 -0.23552,-0.34688 -0.23552,-0.55619v-1.55628c0,-0.29338 0.07931,-0.63027 0.24536,-0.95893c-2.92786,-0.62733 -8.29033,-0.63556 -8.34778,-0.63556h-21.91292c-0.44369,0 -0.80349,-0.35159 -0.80349,-0.78608v-0.03763c0,-0.11759 0.02712,-0.23459 0.07954,-0.34042l1.60709,-3.26189c0.6332,-1.26701 1.71673,-1.90904 3.22231,-1.90904h11.54423c-0.57381,-0.54914 -1.21937,-0.76844 -2.26582,-0.76844h-15.22945c-0.72647,0 -1.4621,0.27516 -2.12482,0.76844h3.37601c0.27889,0 0.53799,0.14169 0.68413,0.37452c0.14626,0.23224 0.15896,0.52092 0.03342,0.7655l-2.43565,4.72528c-0.13653,0.26516 -0.41416,0.43214 -0.71754,0.43214h-2.28504v2.40291c0,0.86662 -0.72086,1.57098 -1.60709,1.57098h-0.86197v1.33286c0,1.16941 1.07769,1.70326 1.82728,1.93374c0.61363,-1.9161 2.44572,-3.30952 4.60476,-3.30952c2.38564,0 4.37084,1.70267 4.75456,3.93097h19.45415c0.38372,-2.22829 2.3695,-3.93097 4.75559,-3.93097c2.38564,0 4.37096,1.70267 4.75456,3.93097h1.63261l0.00023,-3.78986c0,-0.03292 -0.00114,-0.06644 -0.00206,-0.09936zM32.99685,12.56261h-20.88352c-0.44369,0 -0.80349,-0.35159 -0.80349,-0.78549c0,-0.4339 0.3598,-0.78549 0.80349,-0.78549h20.88352c0.4438,0 0.80349,0.35159 0.80349,0.78549c0,0.4339 -0.3598,0.78549 -0.80349,0.78549zM8.0406,14.9567c0.44369,0 0.80349,0.35159 0.80349,0.78608c0,0.4339 -0.3598,0.78549 -0.80349,0.78549c-0.42606,0 -0.77259,0.33865 -0.77259,0.75492c0,0.41626 0.34664,0.7555 0.77259,0.7555c0.42572,0 0.77202,-0.33924 0.77202,-0.7555c0,-0.4339 0.3598,-0.78549 0.8036,-0.78549c0.4438,0 0.80349,0.35159 0.80349,0.78549c0,1.2823 -1.06716,2.32589 -2.37911,2.32589c-1.31207,0 -2.37957,-1.04359 -2.37957,-2.32589c0,-1.2823 1.0675,-2.32648 2.37957,-2.32648zM37.00491,14.9567c0.44369,0 0.8036,0.35159 0.8036,0.78608c0,0.4339 -0.35992,0.78549 -0.8036,0.78549c-0.42606,0 -0.77248,0.33865 -0.77248,0.75492c0,0.41626 0.34653,0.7555 0.77248,0.7555c0.42583,0 0.77213,-0.33924 0.77213,-0.7555c0,-0.4339 0.3598,-0.78549 0.80349,-0.78549c0.44369,0 0.80349,0.35159 0.80349,0.78549c0,1.2823 -1.06716,2.32589 -2.37911,2.32589c-1.31207,0 -2.37957,-1.04359 -2.37957,-2.32589c0,-1.2823 1.0675,-2.32648 2.37957,-2.32648z" fill="#051942" fill-opacity="1"></path></g></g></svg>