<?xml version="1.0" encoding="UTF-8"?>
<svg id="SVGDoc" width="21" height="23" xmlns="http://www.w3.org/2000/svg" version="1.1" xmlns:xlink="http://www.w3.org/1999/xlink" xmlns:avocode="https://avocode.com/" viewBox="0 0 21 23"><defs></defs><desc>Generated with Avocode.</desc><g><g><title>Shape 22</title><path d="M9.84533,13.91882h1.30291v1.34815h-1.30291zM9.84533,18.91807h1.30291v1.34756h-1.30291zM9.84533,8.83019h1.30291v1.34756h-1.30291zM20.36714,5.28962c0.83691,0.86604 0.83691,2.27474 -0.00011,3.14019l-0.48752,0.50445c0.15324,0.30514 0.24033,0.65144 0.24033,1.0189c0,0.7508 -0.36243,1.41517 -0.91553,1.81732l0.0008,0.00118l-0.58044,0.43272v4.21436l-2.99057,3.09315v1.2676c0,1.22409 -0.96302,2.22006 -2.1468,2.22006h-5.98103c-1.18378,0 -2.1468,-0.99597 -2.1468,-2.22006v-1.2676l-2.99057,-3.09315v-4.21436l-0.58044,-0.43272l0.0008,-0.00118c-0.55309,-0.40215 -0.91564,-1.06652 -0.91564,-1.81732c0,-0.36746 0.0872,-0.71376 0.24044,-1.0189l-0.48752,-0.50445c-0.83702,-0.86545 -0.83702,-2.27415 0,-3.14019l0.87593,-0.90602c0.83702,-0.86545 2.19898,-0.86545 3.03589,0l1.74248,1.80262h1.32156v-1.74559h-1.3876v-4.44071h8.56396v4.44071h-1.3876v1.74559h1.32168l1.74236,-1.80262c0.83702,-0.86545 2.19898,-0.86545 3.036,0zM15.90395,6.86001l1.0841,1.1212c0.29537,-0.15816 0.63011,-0.2487 0.98511,-0.2487c0.35511,0 0.68985,0.09054 0.98511,0.2487l0.48752,-0.50386c0.32135,-0.33277 0.32787,-0.8678 0.02151,-1.20998l-1.0334,1.06888l-0.92136,-0.95305l1.03352,-1.06888c-0.33051,-0.3169 -0.84824,-0.30984 -1.16947,0.02234zM7.60595,14.44973c0.0436,-0.95599 0.52345,-1.79616 1.23756,-2.31178l-3.68454,-1.99723c-0.05928,0.72728 -0.45799,1.35579 -1.03168,1.71443zM2.17664,9.95316c0,0.48094 0.37846,0.8725 0.84377,0.8725c0.46532,0 0.84389,-0.39157 0.84389,-0.8725c0,-0.48152 -0.37857,-0.87309 -0.84389,-0.87309c-0.46532,0 -0.84377,0.39157 -0.84377,0.87309zM5.20624,8.64499l5.2906,2.86738l5.2906,-2.86738l-1.0746,-1.11121h-8.43201zM8.90531,14.59318c0,0.90719 0.714,1.64564 1.59153,1.64564c0.87753,0 1.59142,-0.73845 1.59142,-1.64564c0,-0.90778 -0.71388,-1.64623 -1.59142,-1.64623c-0.87753,0 -1.59153,0.73845 -1.59153,1.64623zM16.86628,11.85515c-0.57369,-0.35864 -0.9724,-0.98715 -1.03157,-1.71443l-3.68454,1.99723c0.714,0.51562 1.19385,1.35579 1.23756,2.31178zM17.97315,10.82566c0.46532,0 0.84377,-0.39157 0.84377,-0.8725c0,-0.48152 -0.37846,-0.87309 -0.84377,-0.87309c-0.4652,0 -0.84377,0.39157 -0.84377,0.87309c0,0.48094 0.37857,0.8725 0.84377,0.8725zM13.47585,3.09307v-1.74559h-5.95802v1.74559zM8.90531,6.18623h3.18295v-1.74559h-3.18295zM3.61711,5.33665c-0.32135,-0.33219 -0.83897,-0.33924 -1.16959,-0.02234l1.03352,1.06888l-0.92136,0.95305l-1.0334,-1.06888c-0.30636,0.34218 -0.29984,0.87721 0.02151,1.20998l0.48752,0.50386c0.29526,-0.15816 0.63011,-0.2487 0.98511,-0.2487c0.355,0 0.68974,0.09054 0.98511,0.2487l1.0841,-1.1212zM17.32175,13.17684l-4.94133,3.68639c-0.50674,0.45036 -1.16467,0.72317 -1.88358,0.72317c-0.71892,0 -1.37695,-0.2728 -1.88358,-0.72317l-4.94133,-3.68639v2.68336l2.99057,3.09315v1.82614c0,0.48094 0.37846,0.8725 0.84377,0.8725h5.98114c0.4652,0 0.84377,-0.39157 0.84377,-0.8725v-1.82614l2.99057,-3.09315z" fill="#051942" fill-opacity="1"></path></g></g></svg>