<?xml version="1.0" encoding="UTF-8"?>
<svg id="SVGDoc" width="16" height="16" xmlns="http://www.w3.org/2000/svg" version="1.1" xmlns:xlink="http://www.w3.org/1999/xlink" xmlns:avocode="https://avocode.com/" viewBox="0 0 16 16"><defs></defs><desc>Generated with Avocode.</desc><g><g><title>Shape 4 1</title><path d="M11.58427,15.99961h-7.16915c-2.43462,0 -4.41536,-1.98136 -4.41536,-4.41602v-7.16876c0,-2.43525 1.98074,-4.41543 4.41536,-4.41543h7.16915c2.43473,0 4.41559,1.98018 4.41547,4.41543v7.16876c0,2.43466 -1.98074,4.41602 -4.41547,4.41602zM14.58022,4.41483c0,-1.6527 -1.34399,-2.99614 -2.99595,-2.99614h-7.16915c-1.65184,0 -2.99572,1.34344 -2.99572,2.99614v7.16876c0,1.65211 1.34388,2.99556 2.99572,2.99556h7.16927c1.65195,0 2.99583,-1.34344 2.99583,-2.99556zM12.29552,4.75466c-0.27351,0 -0.54234,-0.11171 -0.7354,-0.30397c-0.19398,-0.19461 -0.30567,-0.46388 -0.30567,-0.73669c0,-0.27457 0.11158,-0.54326 0.30567,-0.7361c0.19318,-0.19461 0.46188,-0.30573 0.7354,-0.30573c0.27443,0 0.54314,0.11112 0.7362,0.30573c0.19409,0.19284 0.30476,0.46153 0.30476,0.7361c0,0.2728 -0.11066,0.54208 -0.30476,0.73669c-0.19398,0.19226 -0.46177,0.30397 -0.7362,0.30397zM7.99976,12.12214c-2.27325,0 -4.12273,-1.84966 -4.12273,-4.12264c0,-2.27356 1.84948,-4.12322 4.12273,-4.12322c2.27337,0 4.12285,1.84966 4.12285,4.12322c0,2.27298 -1.84948,4.12264 -4.12285,4.12264zM7.99976,5.29615c-1.49059,0 -2.70321,1.21233 -2.70321,2.70335c0,1.48984 1.21273,2.70276 2.70321,2.70276c1.49048,0 2.70321,-1.21292 2.70321,-2.70276c0,-1.49102 -1.21262,-2.70335 -2.70321,-2.70335z" fill-opacity="1" fill="#FFFFFF"></path></g></g></svg>
