<?xml version="1.0" encoding="UTF-8"?>
<svg id="SVGDoc" width="54" height="54" xmlns="http://www.w3.org/2000/svg" version="1.1" xmlns:xlink="http://www.w3.org/1999/xlink" xmlns:avocode="https://avocode.com/" viewBox="0 0 54 54"><defs></defs><desc>Generated with Avocode.</desc><g><g clip-path="url(#clip-2708)"><title>Shape 4 2</title><path d="M39.09737,53.99985h-24.1959c-8.21674,0 -14.9017,-6.68547 -14.9017,-14.90252v-24.19609c0,-8.21705 6.68495,-14.90193 14.9017,-14.90193h24.1959c8.21743,0 14.90273,6.68488 14.90238,14.90193v24.19609c0,8.21705 -6.68495,14.90252 -14.90238,14.90252zM49.20856,39.09733v-24.19609c0,-5.57485 -4.53587,-10.11081 -10.1112,-10.11081h-24.1959c-5.57487,0 -10.11051,4.53596 -10.11051,10.11081v24.19609c0,5.57544 4.53564,10.1114 10.11051,10.1114h24.19624c5.57533,0 10.1112,-4.53596 10.1112,-10.1114zM41.49776,16.05007c-0.92308,0 -1.83025,-0.37746 -2.48188,-1.02831c-0.65472,-0.65497 -1.03168,-1.56157 -1.03168,-2.48522c0,-0.92601 0.37663,-1.8332 1.03168,-2.48522c0.65197,-0.65497 1.5588,-1.02831 2.48188,-1.02831c0.92628,0 1.83334,0.37334 2.48497,1.02831c0.65483,0.65203 1.02848,1.55922 1.02848,2.48522c0,0.92307 -0.37365,1.83026 -1.02848,2.48522c-0.65483,0.65085 -1.55869,1.02831 -2.48497,1.02831zM26.99982,40.91406c-7.67258,0 -13.91441,-6.24157 -13.91441,-13.91361c0,-7.67262 6.24184,-13.91478 13.91441,-13.91478c7.67246,0 13.91441,6.24216 13.91441,13.91478c0,7.67203 -6.24195,13.91361 -13.91441,13.91361zM26.99982,17.8768c-5.03071,0 -9.12334,4.09206 -9.12334,9.12307c0,5.03042 4.09298,9.12248 9.12334,9.12248c5.03036,0 9.12323,-4.09206 9.12323,-9.12248c0,-5.031 -4.09264,-9.12307 -9.12323,-9.12307z" fill="#ffffff" fill-opacity="1"></path></g></g></svg>