<?xml version="1.0" encoding="UTF-8"?>
<svg id="SVGDoc" width="17" height="14" xmlns="http://www.w3.org/2000/svg" version="1.1" xmlns:xlink="http://www.w3.org/1999/xlink" xmlns:avocode="https://avocode.com/" viewBox="0 0 17 14"><defs></defs><desc>Generated with Avocode.</desc><g><g><title>Shape 265 1</title><path d="M9.99629,0.12141c-0.16434,0.22081 -0.10494,0.83994 -0.04635,1.13749c0.33257,0.20214 0.78278,0.14689 1.30966,0.14689c0.5666,0 1.13331,0 1.69991,0c0.63686,-0.00016 1.28426,-0.0361 1.68137,0.19256c1.10252,0.63498 0.93819,1.56688 0.93819,3.21992c0,1.43693 0,2.8745 0,4.31143c0,0.42499 0,0.85014 0,1.27513c0,0.31137 0.01305,0.63089 -0.05573,0.88058c-0.08263,0.29975 -0.24605,0.52292 -0.41805,0.73385c-0.20428,0.25063 -0.55939,0.43959 -0.92892,0.52292c-0.25566,0.05775 -0.60322,0.02762 -0.90099,0.02762c-0.59441,0 -1.18904,0 -1.78345,0c-0.32352,-0.00016 -1.24638,-0.0747 -1.43051,0.05493c-0.1078,0.07596 -0.13229,0.24718 -0.15793,0.40365c-0.0507,0.30948 -0.00492,0.76225 0.15793,0.88058c0.18036,0.13136 0.95512,0.06435 1.27258,0.06435c1.19247,-0.00016 2.79488,0.13732 3.65982,-0.21108c0.89928,-0.36222 1.59256,-1.09387 1.88564,-2.0548c0.16743,-0.54866 0.11147,-1.35297 0.11147,-2.0548c0,-1.23213 0,-2.46473 0,-3.69686c0,-0.68488 0,-1.36992 0,-2.0548c0,-0.6706 0.01888,-1.32708 -0.1672,-1.80715c-0.37067,-0.9567 -1.10435,-1.67972 -2.1365,-1.98151c-0.47012,-0.13748 -1.10916,-0.11017 -1.71844,-0.11001c-0.91953,0 -1.83929,0 -2.75883,0c-0.08732,0.04049 -0.16045,0.04787 -0.21366,0.11912zM5.67695,12.24871c0,0.66197 -0.03078,1.14409 0.44586,1.33006c0.60699,0.23682 1.17691,-0.58428 1.4677,-0.87148c1.17954,-1.16182 2.35954,-2.32395 3.53909,-3.48577c0.51395,-0.50754 1.02802,-1.01524 1.54198,-1.52278c0.16926,-0.1673 0.48592,-0.37901 0.43659,-0.74311c-0.01694,-0.12461 -0.04681,-0.24106 -0.1022,-0.3302c-0.10048,-0.16196 -0.27477,-0.28971 -0.40867,-0.42201c-0.28793,-0.28437 -0.57598,-0.56875 -0.86391,-0.85312c-1.27865,-1.26587 -2.55775,-2.53205 -3.8364,-3.79777c-0.24765,-0.24153 -0.49541,-0.48322 -0.74306,-0.72474c-0.13401,-0.1323 -0.26127,-0.29614 -0.42732,-0.39439c-0.21172,-0.12524 -0.56351,-0.08773 -0.74306,0.03672c-0.33428,0.23133 -0.30659,0.65067 -0.30659,1.22004c0,0.8346 0,1.66952 0,2.50428c-1.32511,0 -2.65057,0 -3.97568,0c-0.68333,0 -1.28036,-0.09793 -1.56979,0.31184c-0.20142,0.28516 -0.11158,1.57441 -0.11147,2.09153c0,0.63906 0,1.27827 0,1.91732c-0.00011,0.46187 -0.01385,0.81483 0.19501,1.05494c0.25726,0.29552 0.95467,0.21093 1.50478,0.21093c1.31893,0 2.63821,0 3.95714,0c0,0.82252 0,1.64519 0,2.46771z" fill="#ffffff" fill-opacity="1"></path></g></g></svg>