<?xml version="1.0" encoding="UTF-8"?>
<svg id="SVGDoc" width="15" height="15" xmlns="http://www.w3.org/2000/svg" version="1.1" xmlns:xlink="http://www.w3.org/1999/xlink" xmlns:avocode="https://avocode.com/" viewBox="0 0 15 15"><defs></defs><desc>Generated with Avocode.</desc><g><g><title>Shape 43 1</title><path d="M14.99255,11.83707c0.0317,0.24341 -0.04234,0.45565 -0.22236,0.63615l-2.11189,2.09659c-0.09533,0.10642 -0.21973,0.19578 -0.37319,0.27045c-0.15347,0.07408 -0.3043,0.12112 -0.4525,0.14287c-0.01064,0 -0.04246,0.00235 -0.09533,0.00764c-0.05287,0.00588 -0.12177,0.00882 -0.20645,0.00882c-0.20107,0 -0.52666,-0.03528 -0.97664,-0.10407c-0.44987,-0.06879 -1.00033,-0.23812 -1.65138,-0.50857c-0.65105,-0.26928 -1.38943,-0.67496 -2.21523,-1.21527c-0.82569,-0.54032 -1.70437,-1.28171 -2.63592,-2.22477c-0.741,-0.73022 -1.35509,-1.42987 -1.84204,-2.09718c-0.48695,-0.66731 -0.87868,-1.28406 -1.17508,-1.85084c-0.2964,-0.56736 -0.51865,-1.08063 -0.66685,-1.54158c-0.14832,-0.46095 -0.24879,-0.8578 -0.30178,-1.19175c-0.05287,-0.33336 -0.07404,-0.59617 -0.06351,-0.78666c0.01064,-0.19049 0.01591,-0.29691 0.01591,-0.31749c0.02117,-0.14875 0.06878,-0.29926 0.14294,-0.45271c0.07404,-0.15404 0.16399,-0.27868 0.26985,-0.37452l2.11201,-2.11306c0.1482,-0.14757 0.31757,-0.22224 0.50812,-0.22224c0.13767,0 0.25944,0.04057 0.3653,0.11994c0.10586,0.07878 0.19581,0.17638 0.26985,0.29338l1.6991,3.22544c0.09533,0.16933 0.12177,0.35512 0.07942,0.55619c-0.04234,0.20108 -0.13229,0.37099 -0.26997,0.50916l-0.77808,0.77784c-0.02117,0.02175 -0.03971,0.05585 -0.0555,0.10407c-0.01591,0.04762 -0.0238,0.08702 -0.0238,0.11876c0.04234,0.22224 0.13756,0.47682 0.28576,0.76256c0.12703,0.25399 0.32295,0.56442 0.58754,0.93012c0.2647,0.36511 0.64053,0.78608 1.12747,1.2629c0.4763,0.4874 0.89985,0.86604 1.27029,1.1359c0.37056,0.26986 0.68024,0.46859 0.92903,0.59617c0.24868,0.127 0.43922,0.20343 0.57163,0.22988l0.19844,0.03998c0.02117,0 0.05562,-0.00823 0.10323,-0.02352c0.04761,-0.01646 0.08205,-0.0341 0.10323,-0.05585l0.90511,-0.92189c0.19066,-0.16933 0.4129,-0.25399 0.66696,-0.25399c0.18002,0 0.32284,0.03175 0.4287,0.09525h0.01591v0l3.06473,1.81144c0.22236,0.13758 0.35465,0.31278 0.397,0.52444z" fill="#ffffff" fill-opacity="1"></path></g></g></svg>