<?xml version="1.0" encoding="UTF-8"?>
<svg id="SVGDoc" width="60" height="60" xmlns="http://www.w3.org/2000/svg" version="1.1" xmlns:xlink="http://www.w3.org/1999/xlink" xmlns:avocode="https://avocode.com/" viewBox="0 0 60 60"><defs></defs><desc>Generated with Avocode.</desc><g><g><title>Shape 20</title><path d="M60.00002,50.70993v7.53151c0,0.97069 -0.78712,1.75794 -1.75793,1.75794h-26.39889c-0.9708,0 -1.75781,-0.78725 -1.75781,-1.75794v-7.53151c0,-0.97069 0.78701,-1.75794 1.75781,-1.75794h26.39889c0.9708,0 1.75793,0.78725 1.75793,1.75794zM56.48428,52.46788h-22.88315v4.01563h22.88315zM29.40904,25.54433l-4.45518,4.45482l1.41998,1.41988c0.68584,0.68554 0.68642,1.79969 0,2.48581l-18.04836,18.048c-0.68516,0.68495 -1.79798,0.68789 -2.486,0l-5.32551,-5.32556c-0.68584,-0.68613 -0.68653,-1.79969 0,-2.48581l18.04848,-18.048c0.68665,-0.68613 1.79958,-0.68671 2.486,0l1.41953,1.41988l4.45507,-4.45482l-1.50845,-1.50865l-0.08823,0.08819c-0.68573,0.68613 -1.79935,0.68671 -2.48589,0l-5.32551,-5.32556c-0.68653,-0.68613 -0.68653,-1.7991 0,-2.48581l13.31348,-13.31332c0.68584,-0.68554 1.79935,-0.68671 2.486,0l5.32539,5.32556c0.68653,0.68671 0.68653,1.79969 0,2.48581l-0.08835,0.08819l5.50198,5.50253l0.08869,-0.08878c0.68584,-0.68554 1.79935,-0.68671 2.486,0l5.32539,5.32556c0.68653,0.68671 0.68653,1.79969 0,2.48581l-13.3136,13.31391c-0.68573,0.68554 -1.79935,0.68613 -2.48589,0l-5.32562,-5.32556c-0.68573,-0.68613 -0.68653,-1.79969 0,-2.4864l0.08835,-0.08819zM22.6449,32.66193l-2.83951,-2.83975l-15.56248,15.56219l2.83962,2.83975zM34.5574,28.38349l2.83939,2.83916l10.82783,-10.82751l-2.83951,-2.83916zM34.91102,7.08183l-2.83951,-2.83975l-10.8276,10.82751l2.83939,2.83975zM27.90083,19.06405l5.5022,5.50194l8.1649,-8.16414l-5.50232,-5.50253zM45.06227,37.65531c0.9708,0 1.75781,0.78725 1.75781,1.75794v3.76576c0,0.97069 -0.78701,1.75735 -1.75781,1.75735c-0.9708,0 -1.75781,-0.78666 -1.75781,-1.75735v-3.76576c0,-0.97069 0.78701,-1.75794 1.75781,-1.75794zM51.35057,41.9361l1.8829,-1.88317c0.68653,-0.68671 1.79958,-0.68671 2.486,0c0.68642,0.68671 0.68642,1.79969 0,2.48581l-1.8829,1.88317c-0.68653,0.68671 -1.7997,0.68613 -2.486,0c-0.68642,-0.68671 -0.68642,-1.79969 0,-2.48581zM36.89119,40.05293l1.88267,1.88317c0.68653,0.68613 0.68653,1.7991 0,2.48581c-0.68665,0.68671 -1.79947,0.68613 -2.48589,0l-1.88278,-1.88317c-0.68642,-0.68613 -0.68642,-1.7991 0,-2.48581c0.68653,-0.68613 1.79958,-0.68613 2.486,0z" fill="#051942" fill-opacity="1"></path></g></g></svg>