<?xml version="1.0" encoding="UTF-8"?>
<svg id="SVGDoc" width="64" height="52" xmlns="http://www.w3.org/2000/svg" version="1.1" xmlns:xlink="http://www.w3.org/1999/xlink" xmlns:avocode="https://avocode.com/" viewBox="0 0 64 52"><defs></defs><desc>Generated with Avocode.</desc><g><g><title>Shape 21</title><path d="M60.24973,19.05669v20.64082h3.75023v12.30147h-64.00005v-12.30147h3.75034v-35.94431h31.74145v-3.754h28.50826v19.05749zM39.24169,17.17704l3.98495,-1.87494h17.02332v-11.54891h-21.00826zM60.24995,43.4515h-26.3736v1.76206h-3.75v-1.76206h-26.37646v4.79289h56.50005zM21.6123,27.38133c0,-1.02831 -0.83599,-1.86553 -1.86356,-1.86553c-1.02757,0 -1.86356,0.83723 -1.86356,1.86553c0,1.0289 0.83599,1.86612 1.86356,1.86612c1.02757,0 1.86356,-0.83723 1.86356,-1.86612zM18.69028,33.00145c-2.43656,0 -4.41879,1.98489 -4.41891,4.42425v2.2718h10.95829v-2.2718c0,-2.43936 -1.98223,-4.42425 -4.41879,-4.42425zM56.49973,19.05669h-12.43607l-8.57208,4.03209v-15.581h-27.99156v32.18973h3.02135v-2.2718c0,-3.13607 1.77338,-5.86412 4.36798,-7.23578c-0.47871,-0.82723 -0.75417,-1.78557 -0.75417,-2.80859c0,-3.09844 2.51816,-5.61953 5.61356,-5.61953c3.09528,0 5.61356,2.52109 5.61356,5.61953c0,1.02243 -0.27523,1.98018 -0.75336,2.80683c2.59609,1.37108 4.37073,4.1003 4.37073,7.23754v2.2718h27.52007zM12.39648,12.59581h14.70829v3.754h-14.70829zM38.66605,32.18833h14.7084v3.754h-14.7084zM38.66605,24.67916h14.7084v3.75459h-14.7084z" fill="#051942" fill-opacity="1"></path></g></g></svg>