<?xml version="1.0" encoding="UTF-8"?>
<svg id="SVGDoc" width="59" height="51" xmlns="http://www.w3.org/2000/svg" version="1.1" xmlns:xlink="http://www.w3.org/1999/xlink" xmlns:avocode="https://avocode.com/" viewBox="0 0 59 51"><defs></defs><desc>Generated with Avocode.</desc><g><g><title>Shape 247 1</title><path d="M32.31757,0.00604c13.12786,-0.22165 21.08437,6.77777 24.93999,15.87086c2.85255,6.7278 2.03533,16.2101 -1.24043,21.81493c-4.14242,7.08762 -9.88266,11.3837 -19.52122,13.06286c-1.98097,0.34512 -4.77402,0.32866 -6.72466,-0.06526c-1.8362,-0.3704 -3.62434,-0.7361 -5.22297,-1.37166c-3.62309,-1.44045 -6.78108,-3.54881 -9.27097,-6.13927c-0.80509,-0.95775 -1.61053,-1.9161 -2.41562,-2.87385c-3.74279,2.4817 -7.48672,4.96398 -11.22952,7.44567c0,-0.04351 0,-0.08702 0,-0.13052c-0.54405,-0.80548 -1.08822,-1.61096 -1.63227,-2.41643c0.0436,-0.02175 0.08709,-0.0441 0.13058,-0.06585c3.6993,-2.50345 7.39975,-5.00749 11.09905,-7.51094c-0.84938,-2.45818 -2.02171,-4.60769 -2.67689,-7.5762c-2.95452,-13.38622 6.66927,-24.43068 15.01625,-28.02005c1.66042,-0.71376 3.4996,-1.20881 5.41889,-1.63271c1.10985,-0.13052 2.21992,-0.26105 3.32977,-0.39157zM32.44815,3.07568c-0.82695,0.08702 -1.65413,0.17403 -2.48096,0.26105c-1.64589,0.34512 -3.2579,0.71376 -4.70078,1.3064c-6.12534,2.51697 -10.36755,7.15641 -12.79644,13.38916c-0.79033,2.02839 -1.63181,5.41081 -1.17519,8.16473c0.29629,1.78616 0.16685,3.24249 0.58754,4.76761c2.01633,7.30927 6.57864,12.36144 13.12294,15.15298c2.20871,0.94188 6.36658,2.33883 9.85851,1.76323c1.97342,-0.32513 3.78777,-0.44742 5.48424,-0.97951c6.511,-2.04192 11.41663,-6.7231 13.97163,-12.73655c2.28252,-5.37201 2.04231,-12.47256 -0.19592,-17.63468c-3.42281,-7.89369 -10.32349,-13.49029 -21.67557,-13.45442zM50.40233,22.14728c0,3.89687 0,7.79432 0,11.69119c-1.24031,0 -2.48108,0 -3.72139,0c-0.81894,4.24963 -8.50445,4.32489 -9.27097,0c-2.48062,0 -4.96216,0 -7.44278,0c-0.81894,4.25081 -8.50479,4.32312 -9.27097,0c-1.24031,0 -2.48108,0 -3.72139,0c0,-3.89687 0,-7.79432 0,-11.69119c0.71812,0 1.43646,0 2.15446,0c1.10985,-2.78625 2.21992,-5.57367 3.32977,-8.35992c4.04743,0 8.09612,0 12.14355,0c1.44196,-0.00059 3.93871,-0.38745 5.09251,0.13052c2.19772,2.74274 4.39625,5.48666 6.59409,8.2294c1.37089,0 2.74223,0 4.11312,0zM30.35892,22.14728c0,-1.67622 0,-3.35302 0,-5.02924c-1.84971,0 -3.69987,0 -5.54947,0c-0.65289,1.67622 -1.30589,3.35302 -1.95866,5.02924c2.50248,0 5.00565,0 7.50813,0zM33.68858,17.11804c0,1.67622 0,3.35302 0,5.02924c2.72003,0 5.44098,0 8.16101,0c0,-0.02175 0,-0.04351 0,-0.06526c-0.08709,-0.08702 -0.17406,-0.17403 -0.26115,-0.26105c-1.21857,-1.56745 -2.43759,-3.13549 -3.65616,-4.70293c-1.41438,0 -2.82921,0 -4.2437,0zM20.30448,25.47855c0,1.67622 0,3.35244 0,5.02865c0.13058,-0.02175 0.26127,-0.04351 0.39173,-0.06526c0.64751,-2.43878 4.25411,-4.37369 7.11639,-2.67748c1.18011,0.69906 1.40488,1.77382 2.28516,2.74274c2.41539,0 4.83158,0 7.24697,0c1.93623,-4.44483 7.45537,-4.41426 9.40144,0c0.10883,0 0.21767,0 0.3265,0c0,-1.67622 0,-3.35244 0,-5.02865c-8.92181,0 -17.84637,0 -26.76819,0zM24.87468,30.5072c-2.14256,1.17647 -1.08593,4.06972 1.04462,3.26601c1.77166,-0.66849 1.31287,-3.39653 -1.04462,-3.26601zM41.58843,30.5072c-1.91071,1.04595 -1.28632,4.14204 1.04462,3.26601c1.77853,-0.66849 1.30909,-3.3883 -1.04462,-3.26601z" fill="#051942" fill-opacity="1"></path></g></g></svg>