<?xml version="1.0" encoding="UTF-8"?>
<svg id="SVGDoc" width="63" height="41" xmlns="http://www.w3.org/2000/svg" version="1.1" xmlns:xlink="http://www.w3.org/1999/xlink" xmlns:avocode="https://avocode.com/" viewBox="0 0 63 41"><defs></defs><desc>Generated with Avocode.</desc><g><g><title>Shape 17</title><path d="M62.9052,23.63748c0.06271,0.1899 0.09476,0.38922 0.09476,0.5897v11.18145c0,1.02948 -0.82638,1.86377 -1.8457,1.86377h-3.39363c-0.76195,2.16891 -2.81353,3.72754 -5.21965,3.72754c-2.40623,0 -4.4577,-1.55863 -5.21965,-3.72754h-24.25999c-0.76183,2.16891 -2.81342,3.72754 -5.21954,3.72754c-1.41724,0 -2.71099,-0.5409 -3.69141,-1.42869c-0.98053,0.88779 -2.27428,1.42869 -3.69141,1.42869c-2.40623,0 -4.45782,-1.55863 -5.21965,-3.72754h-3.39363c-1.01933,0 -1.8457,-0.83429 -1.8457,-1.86377v-33.54552c0,-1.0289 0.82638,-1.86318 1.8457,-1.86318h41.83594c1.01921,0 1.8457,0.83429 1.8457,1.86318v9.31826h11.9355c0.79433,0 1.49963,0.51327 1.75095,1.27465zM56.13247,14.90892h-2.97626v7.45449h5.4372zM3.69141,22.36341h38.14453v-18.63653h-38.14453zM3.69141,33.54545h1.54793c0.76183,-2.1695 2.81342,-3.72754 5.21965,-3.72754c1.41712,0 2.71088,0.5409 3.69141,1.42811c0.98042,-0.8872 2.27417,-1.42811 3.69141,-1.42811c2.40612,0 4.4577,1.55804 5.21954,3.72754h18.7746v-7.45508h-38.14453zM12.30469,35.40863c0,-1.02772 -0.82809,-1.86318 -1.8457,-1.86318c-1.01772,0 -1.8457,0.83546 -1.8457,1.86318c0,1.02772 0.82798,1.86377 1.8457,1.86377c1.01761,0 1.8457,-0.83605 1.8457,-1.86377zM19.6875,35.40863c0,-1.02772 -0.82809,-1.86318 -1.8457,-1.86318c-1.01772,0 -1.8457,0.83546 -1.8457,1.86318c0,1.02772 0.82798,1.86377 1.8457,1.86377c1.01761,0 1.8457,-0.83605 1.8457,-1.86377zM54.38667,35.40863c0,-1.02772 -0.82798,-1.86318 -1.8457,-1.86318c-1.01772,0 -1.8457,0.83546 -1.8457,1.86318c0,1.02772 0.82798,1.86377 1.8457,1.86377c1.01772,0 1.8457,-0.83605 1.8457,-1.86377zM59.30855,33.54545v-7.45508h-7.99805c-1.01933,0 -1.8457,-0.83429 -1.8457,-1.86318v-9.31826h-3.93745v18.63653h1.79398c0.76195,-2.1695 2.81342,-3.72754 5.21965,-3.72754c2.40623,0 4.4577,1.55804 5.21965,3.72754zM12.05853,8.07529v9.93972c0,1.0289 -0.82638,1.86377 -1.8457,1.86377c-1.01933,0 -1.8457,-0.83488 -1.8457,-1.86377v-9.93972c0,-1.0289 0.82638,-1.86318 1.8457,-1.86318c1.01933,0 1.8457,0.83429 1.8457,1.86318zM20.42576,8.07529v9.93972c0,1.0289 -0.82638,1.86377 -1.8457,1.86377c-1.01933,0 -1.8457,-0.83488 -1.8457,-1.86377v-9.93972c0,-1.0289 0.82638,-1.86318 1.8457,-1.86318c1.01933,0 1.8457,0.83429 1.8457,1.86318zM37.16011,8.07529v9.93972c0,1.0289 -0.82638,1.86377 -1.8457,1.86377c-1.01933,0 -1.8457,-0.83488 -1.8457,-1.86377v-9.93972c0,-1.0289 0.82638,-1.86318 1.8457,-1.86318c1.01933,0 1.8457,0.83429 1.8457,1.86318zM28.79288,8.07529v9.93972c0,1.0289 -0.82638,1.86377 -1.8457,1.86377c-1.01933,0 -1.8457,-0.83488 -1.8457,-1.86377v-9.93972c0,-1.0289 0.82638,-1.86318 1.8457,-1.86318c1.01933,0 1.8457,0.83429 1.8457,1.86318z" fill="#051942" fill-opacity="1"></path></g></g></svg>