<?xml version="1.0" encoding="UTF-8"?>
<svg id="SVGDoc" width="43" height="60" xmlns="http://www.w3.org/2000/svg" version="1.1" xmlns:xlink="http://www.w3.org/1999/xlink" xmlns:avocode="https://avocode.com/" viewBox="0 0 43 60"><defs></defs><desc>Generated with Avocode.</desc><g><g><title>Shape 235 1</title><path d="M9.47203,-0.00002c1.57013,0 3.14072,0 4.71085,0c0,4.06208 0,8.12533 0,12.18741c4.8674,0 9.73618,0 14.60358,0c0,-4.06208 0,-8.12533 0,-12.18741c1.57013,0 3.14072,0 4.71085,0c0,4.06208 0,8.12533 0,12.18741c3.14026,0 6.28143,0 9.42169,0c0,6.01463 0,12.03161 0,18.04682c0,3.06552 0.33497,6.71722 -0.35328,9.25771c-1.35223,4.99102 -4.98585,8.74502 -9.89285,10.19547c-2.39216,0.7067 -5.80227,0.48799 -8.83278,0.46859c0,3.28071 0,6.56259 0,9.84388c-1.57013,0 -3.14072,0 -4.71085,0c0,-3.28129 0,-6.56318 0,-9.84388c-2.79613,0.02998 -6.07246,0.26986 -8.36174,-0.35159c-5.20969,-1.41517 -8.93681,-5.13272 -10.36388,-10.31247c-0.68928,-2.50227 -0.35351,-6.11399 -0.35328,-9.14071c0,-6.05402 0,-12.1098 0,-18.16383c3.14026,0 6.28143,0 9.42169,0c0,-4.06208 0,-8.12533 0,-12.18741zM4.76118,16.87445c-0.04715,5.83707 -1.01635,18.8376 0.70667,22.96906c0.79308,1.90199 2.51781,3.57232 4.23969,4.57006c3.07056,1.7797 9.58054,1.05476 14.2503,1.05476c4.54536,0 8.07713,-0.00059 10.5994,-1.87494c5.4285,-4.03386 3.7112,-17.4436 3.65089,-26.71894c-11.14792,0 -22.29904,0 -33.44696,0zM19.01148,21.3281c1.68789,0 3.37624,0 5.06413,0c-0.98133,2.30414 -1.96289,4.60945 -2.94422,6.91359c2.70847,0.03939 5.41775,0.0782 8.12611,0.11759c-2.15378,4.71293 -3.82072,10.95627 -9.0683,12.656c-0.08286,-3.93391 0.57129,-5.62012 1.76651,-7.96894c0,-0.0388 0,-0.07761 0,-0.117c-2.70847,0 -5.41775,0 -8.12611,0c1.72714,-3.86688 3.45474,-7.73494 5.18188,-11.60124z" fill-opacity="1"></path></g></g></svg>
