<?xml version="1.0" encoding="UTF-8"?>
<svg id="SVGDoc" width="63" height="55" xmlns="http://www.w3.org/2000/svg" version="1.1" xmlns:xlink="http://www.w3.org/1999/xlink" xmlns:avocode="https://avocode.com/" viewBox="0 0 63 55"><defs></defs><desc>Generated with Avocode.</desc><g><g><title>crane 1</title><path d="M49.13134,-0.00025c4.76429,-0.04468 6.43055,8.85967 9.0921,11.57948c1.33839,1.36814 3.01643,1.24937 4.05464,3.32657c0.81276,1.62565 0.99998,4.57535 0.2457,6.40561c-1.52252,3.69403 -7.88143,6.10752 -10.68935,1.8479c-2.25552,-3.42181 1.9622,-5.05217 4.66896,-2.95675c0.32753,-0.12288 0.65529,-0.24635 0.98293,-0.36923c1.02493,-3.95919 -1.63776,-2.28944 -3.07171,-4.31195c-1.71993,-3.03848 -3.44044,-6.07754 -5.16037,-9.11601c-0.16388,0.16462 -0.32776,0.32866 -0.49152,0.49269c-4.87324,3.81867 -9.74796,7.63852 -14.6212,11.4566c-1.7609,0 -3.52226,0 -5.28316,0c0.98282,4.06502 1.96587,8.13121 2.9488,12.19564c7.44209,-0.08466 17.00958,-0.91777 21.50162,2.09424c6.84299,4.58946 6.65531,15.82676 -0.2457,20.20339c-4.66015,2.95499 -14.82216,1.84731 -22.23885,1.8479c-12.92885,0 -24.03133,2.36646 -29.11949,-6.15985c-0.9391,-1.57333 -2.05811,-4.19143 -1.59725,-7.02177c0.28576,-1.755 0.69901,-3.48472 1.47434,-4.80406c1.53969,-2.61986 3.77678,-3.33068 5.8976,-5.29734c0,-5.91233 0,-11.82642 0,-17.73933c0,-2.49875 -0.397,-5.51253 1.10584,-6.52908c1.38393,-0.93541 15.90088,-0.79254 17.07848,0.12347c1.10001,0.85545 1.60149,4.18555 1.84307,5.79004c1.67896,0 3.3585,0 5.03746,0c5.52853,-4.35252 11.05865,-8.70622 16.58707,-13.05815zM12.63991,11.94905c0,6.19983 0,12.40142 0,18.60125c4.58656,0 9.1745,0 13.76106,0c0,-0.12288 0,-0.24635 0,-0.36923c-1.47423,-6.07695 -2.94891,-12.15508 -4.42326,-18.23203c-3.11222,0 -6.22547,0 -9.33781,0zM11.16545,35.84764c-1.52882,0.69201 -2.85645,0.88779 -3.93173,1.97078c-3.14529,3.16959 -1.83323,8.84438 1.47446,10.84103c2.57286,1.55275 8.36552,0.86251 12.28661,0.86192c6.34758,0 12.69688,0 19.04446,0c2.95315,0.00059 6.90113,0.42567 9.0921,-0.49269c1.9297,-0.80842 3.55957,-2.81035 4.05464,-5.05041c0.7037,-3.18487 -1.28357,-5.9817 -3.07171,-7.14524c-2.42981,-1.58038 -7.78473,-0.98598 -11.6724,-0.98539c-9.09119,0 -18.18512,0 -27.27642,0zM13.37702,40.03613c3.16463,-0.2046 6.31268,2.04486 3.80894,4.55771c-2.87487,2.8862 -8.91998,-1.54158 -3.80894,-4.55771zM42.74222,40.03613c3.72162,-0.23341 6.40629,2.89443 3.31741,4.92753c-3.62343,2.38527 -7.93236,-2.50169 -3.31741,-4.92753z" fill-opacity="1"></path></g></g></svg>
