<?xml version="1.0" encoding="UTF-8"?>
<svg id="SVGDoc" width="55" height="48" xmlns="http://www.w3.org/2000/svg" version="1.1" xmlns:xlink="http://www.w3.org/1999/xlink" xmlns:avocode="https://avocode.com/" viewBox="0 0 55 48"><defs></defs><desc>Generated with Avocode.</desc><g><g><title>Shape 233 1</title><path d="M54.89304,11.86084c-0.03799,1.43046 -0.0761,2.86151 -0.1141,4.29196c-1.59634,0 -3.19324,0 -4.7897,0c1.47789,2.33883 3.44742,4.63826 4.33353,7.45449c1.04141,3.30893 0.56957,8.38638 0.57026,12.53665c0.00069,3.86688 0.18494,7.36042 -1.48258,9.48759c-3.93723,5.0216 -11.52912,1.47279 -11.40415,-5.19563c-9.69246,0 -19.38801,0 -29.08047,0c0.17109,7.02589 -7.67727,10.10081 -11.51825,4.96986c-1.51085,-2.01899 -1.25473,-5.57485 -1.25439,-9.14894c0.00023,-3.99741 -0.55515,-9.15952 0.45616,-12.42376c0.90179,-2.91148 2.82829,-5.17152 4.33353,-7.56738c0,-0.03763 0,-0.07526 0,-0.11288c-1.59645,0 -3.19324,0 -4.7897,0c0,-1.43046 0,-2.86151 0,-4.29196c2.1666,0 4.33376,0 6.50036,0c1.14029,-3.1249 2.28092,-6.2498 3.42121,-9.37471c9.13044,-2.31825 26.5155,-4.35546 35.12478,0.22577c1.06419,3.04965 2.12883,6.09988 3.19313,9.14894c2.1666,0 4.33376,0 6.50036,0zM23.98782,4.29346c-1.25427,0.11288 -2.509,0.22577 -3.76339,0.33865c-2.35657,0.45213 -4.71394,0.90366 -7.0705,1.3552c-0.87421,2.59752 -1.74877,5.19622 -2.62299,7.79374c11.32702,0 22.65736,0 33.98438,0c0,-0.03763 0,-0.07584 0,-0.11347c-0.95032,-2.59693 -1.90086,-5.19563 -2.85107,-7.79315c-2.20459,-0.41391 -4.40987,-0.82841 -6.61446,-1.24232c-3.34419,-0.59794 -7.28348,-0.32337 -11.06197,-0.33865zM4.37276,36.25683c4.33308,0 8.66753,0 13.00072,0c0,-3.53822 0,-7.07821 0,-10.61702c6.76575,0 13.53355,0 20.2993,0c0,3.53881 0,7.0788 0,10.61702c4.29508,0 8.59154,0 12.88673,0c-0.03811,-3.57644 -0.0761,-7.15347 -0.1141,-10.72991c-0.7354,-2.87914 -2.84695,-5.26559 -4.33353,-7.56738c-8.78036,0 -17.56325,0 -26.34361,0c-2.71179,0 -9.05365,-0.66555 -11.06197,0.22636c-1.25439,2.03251 -2.509,4.06619 -3.76339,6.0987c-1.19602,2.88502 -0.569,8.17178 -0.57014,11.97223zM9.27644,25.6398c2.19406,-0.09172 3.94993,-0.15639 4.56173,1.35579c1.21227,3.42358 -5.27641,3.85512 -6.0442,1.46809c-0.66341,-1.42752 0.53101,-2.27239 1.48247,-2.82388zM42.69055,25.6398c1.1404,0.03763 2.28104,0.07526 3.42133,0.11347c1.66546,0.69142 1.55502,3.32833 -0.1141,3.95272c-2.9837,0.93953 -5.58392,-0.29338 -4.7897,-3.04965c0.50434,-0.39098 0.87719,-0.66202 1.48247,-1.01655zM21.59291,36.25683c3.91502,0 7.83131,0 11.74633,0c0,-2.14539 0,-4.29196 0,-6.43795c-3.91502,0.03763 -7.83131,0.07526 -11.74633,0.11288c0,2.10835 0,4.2173 0,6.32506zM4.37276,40.43591c-0.26505,4.1391 4.57821,4.12616 4.33353,0c-1.44436,0 -2.88918,0 -4.33353,0zM46.33996,40.43591c-0.15244,2.54754 0.98328,3.60995 3.30711,2.93676c0.65643,-0.84663 0.95158,-1.2823 0.91244,-2.93676c-1.40648,0 -2.81319,0 -4.21955,0z" fill-opacity="1"></path></g></g></svg>
