<?xml version="1.0" encoding="UTF-8"?>
<svg id="SVGDoc" width="69" height="43" xmlns="http://www.w3.org/2000/svg" version="1.1" xmlns:xlink="http://www.w3.org/1999/xlink" xmlns:avocode="https://avocode.com/" viewBox="0 0 69 43"><defs></defs><desc>Generated with Avocode.</desc><g><g><title>Shape 246 1</title><path d="M1.29934,0.00175c1.37386,-0.02117 2.80621,0.11465 4.0646,0.32219c2.93484,0.48446 5.71575,0.65026 8.2259,1.4187c1.27796,0.39098 2.94754,0.80783 3.54847,1.86906c0.30441,0.53797 0.09441,1.48572 0,2.12776c3.82759,0 7.65644,0 11.48403,0c0.37628,-0.29044 0.75279,-0.5803 1.12907,-0.87015c1.09497,-0.73551 3.76041,-2.13951 5.77423,-1.83731c0.96428,0.14463 1.84685,0.17227 2.67746,0.41861c3.79406,1.12473 6.99074,3.25719 10.80666,4.3196c-0.70839,-1.87024 1.57722,-2.28826 2.80643,-2.67572c2.18834,-0.68848 4.5718,-1.15707 7.06467,-1.64388c1.40842,-0.15051 2.81742,-0.30044 4.22585,-0.45095c0.91393,-0.03234 1.82808,-0.06467 2.742,-0.09701c0.66662,0 1.33335,0 1.99997,0c0.41634,0.12288 0.81104,0.45683 0.96783,0.8384c0.18047,0.4386 0.09682,1.21704 0.0967,1.80498c0,1.46103 0,2.92265 0,4.38368c0,4.85639 0,9.71395 0,14.56975c0.00011,1.61448 0.3487,5.70772 -0.35477,6.57552c-0.43396,0.53561 -1.37798,0.45154 -2.35497,0.45154c-1.88152,0 -3.76362,0 -5.64514,0c-0.76298,0 -1.91368,0.14052 -2.4194,-0.1611c-0.76481,-0.45624 -0.57255,-1.43222 -1.06453,-2.16009c-0.74192,0.50504 -1.48396,1.01008 -2.22588,1.51512c0.34607,3.29834 -1.70139,5.54016 -4.87106,5.51194c-0.5817,2.1013 -3.23879,3.32127 -6.00002,3.03024c-0.56099,1.76029 -3.70583,3.91803 -6.22593,2.77214c-2.02686,1.93491 -6.38695,0.54914 -8.19374,-0.5803c-3.14438,-1.96548 -5.91351,-4.52361 -8.83873,-6.73662c-2.36172,-1.78734 -4.98722,-3.66522 -6.83887,-5.96348c-0.67738,-0.69847 -1.35487,-1.39695 -2.03224,-2.09542c-0.02151,0.01117 -0.04303,0.02175 -0.06454,0.03234c-0.10471,0.70376 -0.41714,1.49631 -0.93555,1.80498c-0.43282,0.25811 -1.33049,0.16168 -1.99997,0.1611c-1.53751,0 -3.07549,0 -4.613,0c-1.05549,0 -2.88002,0.24106 -3.54847,-0.22518c-1.00147,-0.69847 -0.61295,-4.68059 -0.61283,-6.44676c0,-5.40435 0,-10.80987 0,-16.21363c-0.00011,-1.07534 -0.20233,-4.41484 0.16125,-5.02865c0.25509,-0.43096 0.58891,-0.51739 1.06453,-0.74139zM2.94454,2.99965c0,7.5956 0,15.19355 0,22.78915c2.04288,0 4.08634,0 6.12911,0c0.40855,-1.31052 0.81722,-2.62163 1.22589,-3.93273c0.89413,-2.8862 1.56612,-5.7818 2.38712,-8.76736c0.69832,-2.5399 1.33427,-5.23972 1.64509,-8.09065c-3.27988,-0.96069 -7.24937,-1.92139 -11.38721,-1.99841zM66.04223,28.65736c0,-7.62794 0,-15.25764 0,-22.88557c-5.20752,-0.06938 -9.67484,1.06946 -13.70991,2.1595c2.91904,6.56788 5.12146,13.64021 7.61307,20.72607c2.03213,0 4.06471,0 6.09684,0zM34.94497,5.93289c-0.31174,0.04292 -0.6237,0.08584 -0.93544,0.12876c-0.4731,0.1611 -0.94631,0.32219 -1.41941,0.48329c-2.53487,1.11356 -5.5022,4.22317 -6.96785,6.4791c-0.30842,0.47506 -2.04597,3.43357 -1.03226,4.12616c1.03363,0.70612 3.0106,0.38686 3.90324,-0.1611c0.52677,-0.32337 1.08101,-0.83781 1.45168,-1.32169c0.26882,-0.35453 0.53764,-0.70906 0.80647,-1.06358c0.38921,-0.28691 0.94826,-0.22048 1.51611,-0.35453c0.50537,-0.19343 1.01086,-0.38686 1.51623,-0.5803c0.48626,-0.20931 1.63834,-0.90896 2.32258,-0.77373c0.84698,0.16756 1.17977,0.86956 1.74191,1.32169c0.8709,0.75198 1.74213,1.50395 2.61303,2.25651c2.44057,1.97666 4.88205,3.9539 7.32262,5.93055c0.75268,0.67731 1.50547,1.35403 2.25815,2.03075c0.88245,0.70906 3.04115,2.64691 3.48392,3.64288c0.88165,-0.56971 1.76353,-1.13943 2.64519,-1.70855c-0.46234,-1.34286 -0.9248,-2.6863 -1.38714,-4.02915c-0.72029,-2.03075 -1.44093,-4.06208 -2.16133,-6.09224c-0.62359,-1.59038 -1.24741,-3.18076 -1.87099,-4.77055c-0.95684,-0.35453 -1.91402,-0.70964 -2.87098,-1.06417c-2.15549,-0.8531 -4.26258,-1.61684 -6.3549,-2.51403c-2.02366,-0.8678 -3.71372,-1.92256 -6.58081,-1.96607zM16.65445,8.60802c-0.26882,1.22468 -0.53764,2.44995 -0.80647,3.67463c-0.60551,2.40174 -1.10207,4.71646 -1.80645,7.02706c-0.41943,1.41811 -0.83885,2.83681 -1.25816,4.25492c1.72028,1.7403 3.44112,3.48178 5.1614,5.22208c3.11565,2.50227 6.17558,5.06804 9.41952,7.44567c2.19704,1.61037 4.09081,3.89158 7.77431,3.86806c0,-0.01058 0,-0.02117 0,-0.03175c-0.04303,-0.05409 -0.08606,-0.10759 -0.12909,-0.16168c-0.5397,-0.25928 -1.42227,-1.33521 -1.83872,-1.80498c-1.38702,-1.42869 -2.77439,-2.85798 -4.1613,-4.28726c-0.50709,-0.70259 -0.16228,-1.73854 0.41931,-2.09483c1.32271,-0.81077 2.28321,0.78843 2.87098,1.38578c1.48041,1.50513 2.86926,3.21721 4.51618,4.54537c0.58067,0.53679 1.16146,1.07417 1.74202,1.61154c1.29604,0.79372 2.54517,-0.63439 2.93552,-1.45045c-0.50537,-0.48329 -1.01086,-0.96716 -1.51611,-1.45045c-1.61282,-1.65446 -3.22609,-3.30952 -4.83879,-4.96398c-0.65403,-0.81077 -1.06819,-2.11247 0.22579,-2.64338c1.26125,-0.51739 1.98338,0.78372 2.5161,1.35403c1.18275,1.20293 2.36584,2.40644 3.54847,3.60995c0.66662,0.65555 1.33347,1.31111 2.00008,1.96607c0.31174,0.23635 0.6237,0.4727 0.93544,0.70906c1.31069,0.52209 2.65881,-0.51151 3.00007,-1.35344c-0.81711,-0.7949 -1.63456,-1.59038 -2.45167,-2.38527c-1.60206,-1.6333 -3.20446,-3.2666 -4.80652,-4.89989c-0.69752,-0.69847 -2.23835,-2.20713 -0.64522,-3.19075c1.31905,-0.8143 2.65194,1.03771 3.1937,1.70797c1.40842,1.41811 2.81731,2.83681 4.22585,4.25492c0.92457,0.90249 1.84959,1.80556 2.77416,2.70805c0.59383,0.39216 1.45546,-0.10759 1.80656,-0.38686c1.88026,-1.49631 -1.31264,-4.37428 -2.12906,-5.18975c-2.7356,-2.73216 -5.89851,-5.15624 -8.96793,-7.54269c-1.65138,-1.28406 -3.11829,-2.83681 -4.77425,-4.09383c-0.60207,0.25811 -1.20438,0.51562 -1.80645,0.77373c-0.45158,0.10759 -0.90328,0.2146 -1.35487,0.32219c-0.38097,0.20754 -0.8868,1.12767 -1.29032,1.45045c-1.2854,1.0289 -3.2547,2.32001 -5.83889,1.77323c-0.98282,-0.20813 -1.97182,-0.47388 -2.61292,-1.03184c-1.13194,-0.98539 -1.56315,-2.90795 -0.96771,-4.80288c0.78484,-2.49816 2.31365,-4.06384 3.70972,-5.8988c-2.92454,0 -5.84988,0 -8.7743,0z" fill="#ffc600" fill-opacity="1"></path></g></g></svg>