<?xml version="1.0" encoding="UTF-8"?>
<svg id="SVGDoc" width="44" height="50" xmlns="http://www.w3.org/2000/svg" version="1.1" xmlns:xlink="http://www.w3.org/1999/xlink" xmlns:avocode="https://avocode.com/" viewBox="0 0 44 50"><defs></defs><desc>Generated with Avocode.</desc><g><g><title>Shape 243 1</title><path d="M22.03914,-0.00006c7.31632,1.59038 14.6347,3.18134 21.95103,4.77172c0,5.01337 0,10.02791 0,15.04127c0.00023,4.96398 0.19192,9.94677 -1.25439,13.38152c-2.40246,5.70655 -6.9857,8.40696 -12.02076,11.51481c-2.89169,1.76323 -5.78419,3.52705 -8.67588,5.29029c-2.64782,-1.65917 -5.29633,-3.31951 -7.94415,-4.97927c-5.21175,-3.22426 -10.05981,-5.9041 -12.54341,-11.82583c-2.44434,-5.82708 -1.27316,-20.24631 -1.25439,-28.42279c7.24663,-1.59038 14.49532,-3.18134 21.74194,-4.77172zM21.93465,3.31945c-6.13174,1.38284 -12.26532,2.76626 -18.39706,4.14909c0,4.80582 0,9.61341 0,14.41923c-0.00011,2.81447 -0.22202,5.93408 0.41805,8.19471c1.90212,6.71839 7.2995,9.35295 12.64801,12.656c1.88129,1.1406 3.76328,2.2818 5.64457,3.42299c6.828,-4.05385 15.59429,-7.71966 18.08338,-16.07899c1.04679,-3.51529 0.41817,-8.96903 0.41817,-13.17398c-0.0349,-3.18076 -0.06969,-6.36269 -0.1046,-9.54345c-6.23623,-1.34873 -12.47429,-2.69747 -18.71052,-4.04562zM31.96941,14.10756c0.76641,0.76079 1.53316,1.52159 2.29958,2.28238c-5.36522,5.32439 -10.73215,10.65054 -16.09737,15.97492c-2.71751,-2.69688 -5.43583,-5.39435 -8.15323,-8.09123c0.73162,-0.76079 1.46347,-1.52159 2.19509,-2.28238c1.98578,1.93609 3.97224,3.87335 5.95814,5.80944c4.59881,-4.56418 9.19899,-9.12895 13.7978,-13.69313z" fill="#ffc600" fill-opacity="1"></path></g></g></svg>