<?xml version="1.0" encoding="UTF-8"?>
<svg id="SVGDoc" width="47" height="51" xmlns="http://www.w3.org/2000/svg" version="1.1" xmlns:xlink="http://www.w3.org/1999/xlink" xmlns:avocode="https://avocode.com/" viewBox="0 0 47 51"><defs></defs><desc>Generated with Avocode.</desc><g><g><title>Shape 242 1</title><path d="M25.02168,3.01934c0,0.70788 0,1.41576 0,2.12364c3.14884,0.01881 6.06491,1.10474 8.31791,2.0766c6.16756,2.66102 10.62149,7.83078 12.69711,14.50978c0.76527,2.46229 1.30463,6.24686 0.70942,9.35472c-0.25051,1.30817 -0.45536,2.55225 -0.83176,3.72284c-2.2839,7.10232 -7.33109,12.0469 -14.18941,14.70027c-1.50764,0.58382 -3.14793,0.87368 -4.9173,1.21762c-3.9703,0.77079 -8.90659,-0.21401 -11.71852,-1.31287c-6.61045,-2.58282 -11.0685,-7.1129 -13.67558,-13.60258c-0.57999,-1.44398 -0.83908,-3.0326 -1.17428,-4.72528c-0.149,-0.75198 -0.03925,-1.50042 -0.17132,-2.31472c-0.11639,-0.71788 -0.07095,-1.74089 0.04898,-2.41055c0.06523,-0.63615 0.13046,-1.27289 0.19569,-1.90904c0.38155,-1.87024 0.78896,-3.58585 1.46782,-5.15506c0.39139,-0.7949 0.78289,-1.59097 1.17439,-2.38645c0.21194,-0.33395 0.424,-0.6679 0.63606,-1.00185c-0.53009,-0.51739 -1.06018,-1.03419 -1.59027,-1.55157c-0.38486,-0.77843 -1.20987,-1.47161 -0.95409,-2.88737c0.32021,-1.77264 1.48396,-2.54519 2.54436,-3.57997c0.6039,-0.58912 1.13995,-1.24114 2.00603,-1.57509c0.62222,-0.23929 1.68274,-0.33983 2.42203,-0.11935c1.10744,0.33101 2.43164,1.54569 3.05798,2.36293c0.83897,-0.39333 1.61877,-0.95834 2.49538,-1.33639c2.3687,-1.02184 5.14057,-1.989 8.39138,-2.0766c0,-0.70788 0,-1.41576 0,-2.12364c-0.99644,0.01411 -2.45773,0.15639 -3.08258,-0.2387c-0.87364,-0.55266 -0.863,-2.0231 0.02449,-2.55342c0.51121,-0.30573 1.50719,-0.2146 2.32407,-0.2146c1.61453,0 3.22952,0 4.84394,0c1.07952,-0.00059 1.93565,-0.03763 2.39754,0.54855c0.09785,0.19872 0.19581,0.39804 0.29366,0.59676c0.09487,0.34747 -0.01156,0.75609 -0.12234,0.97833c-0.55721,1.11826 -1.96209,0.90308 -3.6208,0.88309zM23.33368,8.07856c-0.76653,0.04762 -1.53316,0.09525 -2.29969,0.14346c-1.54392,0.26163 -2.99767,0.48564 -4.30573,0.97833c-6.10485,2.29943 -10.14999,6.30272 -12.5013,12.2662c-0.45296,1.14884 -0.68413,2.43878 -0.92972,3.77046c-0.55069,2.98732 0.01213,6.40561 0.7584,8.73444c1.89434,5.91174 6.02119,10.12845 11.62067,12.43376c1.40373,0.57795 2.94353,0.99186 4.64825,1.31228c0.70461,0.13287 1.38599,0.08114 2.15286,0.19108c0.6768,0.00764 1.35372,0.01587 2.03053,0.02352c1.77887,-0.26281 3.34808,-0.35806 4.84394,-0.81136c6.12385,-1.85495 10.58372,-5.92291 12.96616,-11.43073c1.99276,-4.6071 1.9986,-10.51472 0.04898,-15.15416c-2.85999,-6.80541 -9.31789,-12.34968 -19.03336,-12.45728zM6.86906,9.0569c-0.88314,0.4727 -1.53397,1.35344 -2.22622,2.02839c-0.20931,0.2046 -0.64602,0.44272 -0.53822,0.93071c0.07782,0.35218 1.00273,1.19469 1.29662,1.40812c0.6728,-0.59911 1.23756,-1.35109 1.8837,-1.98077c0.424,-0.37393 0.84824,-0.74786 1.27224,-1.1212c-0.28599,-0.37628 -1.07277,-1.25878 -1.68812,-1.26525zM22.94218,10.87069c8.64853,-0.13405 14.37035,4.88637 16.83163,10.81046c1.62094,3.90216 1.62483,8.9949 -0.04898,12.86296c-2.0636,4.76937 -5.87666,8.30054 -11.18019,9.90385c-0.91393,0.27633 -1.89114,0.42684 -2.91126,0.59676c-0.53822,0.03998 -1.07655,0.07937 -1.61476,0.11935c-0.52998,-0.01587 -1.06007,-0.03175 -1.59016,-0.04762c-0.58708,-0.05585 -1.17428,-0.11171 -1.76136,-0.16698c-1.50204,-0.28809 -2.85004,-0.67554 -4.08566,-1.19352c-4.85184,-2.03427 -8.28964,-5.7383 -9.90807,-10.92981c-0.58983,-1.89199 -1.0128,-4.76584 -0.56271,-7.18345c0.21458,-1.15177 0.41405,-2.27298 0.80738,-3.26895c1.98669,-5.03159 5.42221,-8.53513 10.56862,-10.47709c1.07162,-0.40391 2.25277,-0.63204 3.49846,-0.85898c0.65231,-0.05527 1.30474,-0.11112 1.95705,-0.16698zM9.11977,26.52577c1.47331,-0.02411 2.64874,-0.11641 3.10707,0.85898c0.07942,0.16933 0.21229,0.44331 0.1712,0.71611c-0.22636,1.50571 -1.51497,1.43457 -3.30265,1.40812c0.31082,1.20116 0.37045,2.31061 0.78278,3.34126c1.64543,4.11147 4.50851,6.86832 8.7339,8.47163c0.96336,0.3657 2.12585,0.69024 3.35163,0.76373c-0.02438,-1.42634 -0.1228,-2.57459 0.83176,-3.05494c0.1767,-0.08878 0.46898,-0.22577 0.7584,-0.19049c1.57837,0.1899 1.49483,1.49748 1.46782,3.24543c1.6832,-0.06761 3.18054,-0.65614 4.42806,-1.19352c3.56037,-1.53217 6.12087,-4.27197 7.584,-7.85135c0.29892,-0.73081 0.49782,-1.54276 0.68504,-2.36234c0.05699,-0.3898 0.1141,-0.77961 0.1712,-1.16941c-1.78185,0.0294 -3.08407,0.09642 -3.30265,-1.40812c-0.04555,-0.31337 0.11009,-0.63086 0.22018,-0.81136c0.56511,-0.92483 1.57677,-0.78608 3.05798,-0.76373c0.02804,-1.69033 -0.80669,-3.60407 -1.41895,-4.7729c-1.68377,-3.21486 -4.14825,-5.48431 -7.68173,-6.89654c-1.07311,-0.4292 -2.35004,-0.8237 -3.74313,-0.90719c0.02666,1.57568 0.1046,3.38418 -1.56567,3.24543c-1.60664,-0.13287 -1.51863,-1.52041 -1.49231,-3.24543c-1.24626,0.04997 -2.45476,0.41332 -3.4251,0.78784c-3.7508,1.4481 -6.28544,3.73048 -8.04874,7.11172c-0.64625,1.23879 -1.36265,2.9156 -1.37009,4.67706zM25.11953,27.14664c1.61774,-0.02352 3.07457,-0.1852 3.54733,0.93071c0.10574,0.24929 0.1815,0.69495 0.07347,1.02596c-0.42217,1.29406 -2.13501,1.05006 -3.86536,1.05006c-0.76218,0 -1.62987,0.06879 -2.104,-0.2146c-0.81974,-0.49093 -0.73402,-1.53982 -0.73391,-2.84034c0,-1.47103 0,-2.94323 0,-4.41484c-0.00011,-0.66731 -0.10941,-1.58685 0.09785,-2.10012c0.16869,-0.41744 0.54703,-0.77138 1.00307,-0.9066c0.72338,-0.21519 1.40213,0.16933 1.688,0.54855c0.3614,0.47976 0.29366,1.35638 0.29354,2.19596c0,1.5745 0,3.15018 0,4.72528z" fill="#ffc600" fill-opacity="1"></path></g></g></svg>