<?xml version="1.0" encoding="UTF-8"?>
<svg id="SVGDoc" width="49" height="49" xmlns="http://www.w3.org/2000/svg" version="1.1" xmlns:xlink="http://www.w3.org/1999/xlink" xmlns:avocode="https://avocode.com/" viewBox="0 0 49 49"><defs></defs><desc>Generated with Avocode.</desc><g><g><title>Shape 239 1</title><path d="M48.98273,11.57804c0.0016,0.75256 0.07874,1.67504 -0.13779,2.22829c-0.87078,2.22359 -5.48,3.24719 -8.56236,3.35361c0,1.42399 0,2.84857 0,4.27315c0.15312,0.41038 1.18595,0.77902 1.65276,0.94188c1.9138,0.6679 4.46995,0.6873 7.04739,0.68907c0.00298,0.7461 0.08629,1.68327 -0.13779,2.22829c-0.67337,1.638 -3.5677,2.77508 -5.69298,2.98615c0,4.03503 0,8.07124 0,12.10686c0.71159,0 1.42342,0 2.1349,0c1.23184,1.23997 2.46403,2.48111 3.69587,3.72107c0,1.63095 0,3.26248 0,4.89343c-16.31973,0 -32.64439,0 -48.96412,0c0,-1.63859 0,-3.27777 0,-4.91636c1.23951,-1.23232 2.47925,-2.46582 3.71876,-3.69814c0.70393,0 1.40808,0 2.11189,0c0,-4.03562 0,-8.07183 0,-12.10686c-0.55355,-0.02646 -1.13022,-0.22048 -1.60686,-0.36746c-1.665,-0.51386 -3.45337,-1.0871 -4.08611,-2.61869c-0.22408,-0.54267 -0.14339,-1.48396 -0.13767,-2.22829c3.18604,0.03822 7.18208,-0.02234 8.70014,-1.63095c0,-1.42458 0,-2.84916 0,-4.27315c-3.01151,-0.03175 -7.7354,-1.25466 -8.56247,-3.35361c-0.21664,-0.55031 -0.14271,-1.47808 -0.13767,-2.22829c4.32999,0.05997 7.1981,-0.77255 9.57241,-2.59634c0.51796,-0.39745 1.77578,-1.48984 1.99711,-2.09013c0,-0.93424 0,-1.86847 0,-2.80271c-0.6427,-0.1611 -1.28551,-0.3216 -1.92822,-0.4827c-1.02585,-0.30808 -2.05307,-0.49328 -3.00716,-0.8725c0.29835,-0.91131 0.59681,-1.82261 0.89527,-2.73392c1.49654,0.36158 3.0312,0.88897 4.59114,1.28641c5.44064,1.38578 13.33981,2.21771 19.58096,0.96481c2.5882,-0.51915 5.05955,-0.86604 7.39174,-1.56216c0.30762,-0.09172 2.31583,-0.66143 2.34146,-0.64321c0.29835,0.89602 0.59681,1.79204 0.89527,2.68806c-0.96611,0.35512 -1.97742,0.5656 -3.00716,0.8725c-0.6427,0.1611 -1.28563,0.3216 -1.92833,0.4827c0,0.92659 0,1.85319 0,2.77978c0.19272,0.59852 1.50993,1.7503 2.02011,2.13599c2.48829,1.88141 5.13119,2.57459 9.54952,2.57341zM14.45763,4.70913c0,0.9801 0,1.96019 0,2.94029c-0.17017,0.58265 -0.75359,1.17647 -1.10184,1.63095c-1.11237,1.45162 -2.69302,2.77919 -4.45335,3.56115c-0.6427,0.25987 -1.28563,0.52033 -1.92833,0.78078c-0.31368,0.09936 -0.62748,0.19931 -0.94116,0.29867c0.60448,0.09172 1.20907,0.18403 1.81343,0.27574c0.75748,0.06115 1.5152,0.12229 2.27268,0.18344c0.80338,0.01529 1.60698,0.03057 2.41035,0.04645c2.77725,0.00764 5.55542,0.01529 8.33279,0.02293c3.87909,0 7.75932,0 11.63841,0c1.96632,-0.01529 3.93333,-0.03057 5.89966,-0.04645c0.78037,-0.0535 1.56097,-0.10701 2.34146,-0.16051c0.74215,-0.10701 1.48453,-0.2146 2.22668,-0.3216c-0.33669,-0.10701 -0.67337,-0.2146 -1.01006,-0.3216c-0.6197,-0.25281 -1.23962,-0.50563 -1.85944,-0.75785c-1.75919,-0.77784 -3.34373,-2.11129 -4.45335,-3.56115c-0.34927,-0.45624 -0.92869,-1.04712 -1.10184,-1.63095c0,-0.9801 0,-1.96019 0,-2.94029c-0.00767,0 -0.01534,0 -0.023,0c-1.13995,0.32278 -2.37419,0.34747 -3.60397,0.57442c-5.20386,0.96011 -11.75377,0.4045 -16.45912,-0.57442zM11.58813,17.29811c0,0.96422 0,1.92962 0,2.89443c8.60756,0 17.21752,0 25.82497,0c0,-0.96481 0,-1.93021 0,-2.89443c-8.60744,0 -17.21741,0 -25.82497,0zM11.08311,23.06404c-0.86323,1.24173 -2.64816,2.2036 -4.49924,2.41173c0,0.00764 0,0.01529 0,0.02352c0.93349,0.10701 1.8671,0.21401 2.8006,0.3216c0.4208,0.01529 0.84171,0.03057 1.26251,0.04586c1.32534,0.20754 2.93026,0.04351 4.33857,0.04586c-0.01522,-0.02293 -0.03056,-0.04586 -0.04589,-0.06879c-0.64178,-0.28809 -1.83632,-1.59038 -2.27257,-2.1595c-0.15301,-0.20695 -0.30613,-0.41391 -0.45914,-0.62028c-0.37491,0 -0.74993,0 -1.12484,0zM16.08749,23.06404c0.41977,0.52915 1.14784,0.88779 1.74454,1.24055c3.75114,2.21536 10.01198,2.05074 13.61263,-0.1611c0.49576,-0.30455 1.12049,-0.62792 1.46919,-1.07946c-5.60829,0 -11.21819,0 -16.82636,0zM36.7704,23.06404c-0.44266,0.78725 -1.21582,1.60508 -1.90533,2.1595c-0.28313,0.2293 -0.56625,0.45918 -0.84938,0.68907c1.22417,-0.00764 2.44869,-0.01529 3.67287,-0.02293c0.52792,-0.01529 1.05606,-0.03057 1.58398,-0.04586c1.05068,-0.16286 2.14989,-0.24341 3.14495,-0.34453c-0.36724,-0.09231 -0.73471,-0.18403 -1.10195,-0.27574c-1.35967,-0.42743 -2.70264,-1.06241 -3.39741,-2.1595c-0.38258,0 -0.76515,0 -1.14773,0zM20.1965,40.38534c0.95638,0 1.91311,0 2.86949,0c0,-3.87453 0,-7.75023 0,-11.62417c-1.01761,-0.11641 -1.95419,-0.3216 -2.86949,-0.43684c0,4.01975 0,8.04126 0,12.06101zM25.93536,40.38534c0.95638,0 1.91311,0 2.86949,0c0,-4.01975 0,-8.04126 0,-12.06101c-0.41325,0.08466 -0.82649,0.16874 -1.23962,0.25281c-0.54325,0.06115 -1.08662,0.12288 -1.62987,0.18403c0,3.87394 0,7.74964 0,11.62417zM8.71876,28.64594c0,1.00303 0,2.00664 0,3.00967c2.86915,0 5.7391,0 8.60825,0c0,-0.94952 0,-1.89905 0,-2.84857c-2.91241,0.00529 -5.90939,-0.03057 -8.60825,-0.1611zM31.67423,28.80704c0,0.94952 0,1.89905 0,2.84857c2.86915,0 5.73921,0 8.60836,0c0,-1.00303 0,-2.00664 0,-3.00967c-2.69955,0.117 -5.69561,0.15816 -8.60836,0.1611zM8.71876,34.55004c0,1.94491 0,3.8904 0,5.83531c2.86915,0 5.7391,0 8.60825,0c0,-1.94491 0,-3.8904 0,-5.83531c-2.86915,0 -5.7391,0 -8.60825,0zM31.67423,34.55004c0,1.94491 0,3.8904 0,5.83531c2.86915,0 5.73921,0 8.60836,0c0,-1.94491 0,-3.8904 0,-5.83531c-2.86915,0 -5.73921,0 -8.60836,0zM2.88799,46.12834c3.18295,0 6.36669,0 9.54952,0c0.94872,-0.95717 1.89777,-1.91492 2.84649,-2.8715c-3.45829,0 -6.91761,0 -10.3759,0c-0.67326,0.68142 -1.34674,1.36285 -2.02011,2.04427c0,0.27574 0,0.55149 0,0.82723zM19.34711,43.25684c-0.94872,0.95658 -1.89777,1.91433 -2.84649,2.8715c5.33283,0 10.66727,0 15.99998,0c-0.94872,-0.95717 -1.89766,-1.91492 -2.84649,-2.8715c-0.00755,0 -0.01522,0 -0.02289,0c-3.42773,0 -6.85638,0 -10.28412,0zM46.11324,46.12834c0,-0.28339 0,-0.56677 0,-0.85016c-0.68092,-0.67378 -1.36208,-1.34756 -2.043,-2.02134c-3.45062,0 -6.90228,0 -10.3529,0c0.95638,0.95658 1.91299,1.91433 2.86938,2.8715c3.17516,0 6.35136,0 9.52652,0z" fill="#ffc600" fill-opacity="1"></path></g></g></svg>