<?xml version="1.0" encoding="UTF-8"?>
<svg id="SVGDoc" width="56" height="55" xmlns="http://www.w3.org/2000/svg" version="1.1" xmlns:xlink="http://www.w3.org/1999/xlink" xmlns:avocode="https://avocode.com/" viewBox="0 0 56 55"><defs></defs><desc>Generated with Avocode.</desc><g><g><title>Shape 234 1</title><path d="M54.57675,32.47765l-3.26408,0.31102c-0.38681,1.31993 -0.92823,2.5934 -1.60881,3.80515l2.08832,2.53167c0.51052,0.62145 0.46417,1.53805 -0.09281,2.09718l-4.1613,4.1779c-0.55687,0.55913 -1.45409,0.60617 -2.07298,0.09348l-2.52148,-2.09718c-1.20667,0.68377 -2.47513,1.21174 -3.8055,1.59979l-0.30945,3.30834c-0.07736,0.80783 -0.74249,1.414 -1.5469,1.414h-5.2597v3.72754c0,0.85428 -0.69614,1.55334 -1.54701,1.55334c-0.85075,0 -1.5469,-0.69906 -1.5469,-1.55334v-9.94089h-14.2321v2.39233c0,3.0908 -2.56794,5.54486 -5.66185,5.54486h-3.37234c-3.09391,0 -5.66185,-2.43878 -5.66185,-5.54486v-18.54599c0,-2.11247 0.88177,-4.13146 2.41322,-5.57603l1.1602,-1.0871c0,-0.01587 0.01545,-0.04645 0.01545,-0.06232l4.64092,-12.58133c0.81985,-2.20536 2.90829,-3.68109 5.2597,-3.69638h15.43865v-2.79566c0,-0.85428 0.69614,-1.55334 1.5469,-1.55334c0.85087,0 1.54701,0.69906 1.54701,1.55334v4.65943h5.2597c0.78896,0 1.45409,0.60558 1.53145,1.39812l0.30945,3.29247c1.31481,0.38863 2.59884,0.93189 3.79005,1.61566l2.52148,-2.09718c0.61878,-0.5121 1.53156,-0.46565 2.08843,0.10877l4.11495,4.17849c0.55687,0.57442 0.60322,1.45986 0.09281,2.08131l-2.08843,2.51638c0.69614,1.21116 1.23756,2.50051 1.62426,3.83631l3.2951,0.31043c0.78896,0.07761 1.40774,0.74551 1.43864,1.53805v5.9329c-0.01545,0.80783 -0.61878,1.47573 -1.42319,1.55334zM3.07845,45.8821c0,1.38225 1.1911,2.43878 2.56794,2.43878h3.37234c1.39229,0 2.56794,-1.05653 2.56794,-2.43878v-2.37645h-5.94028c-0.88177,0.01587 -1.76353,-0.1705 -2.56794,-0.54326zM28.91269,7.47079h-15.43877c-1.05183,0 -1.98006,0.65203 -2.3513,1.64623l-3.86742,10.46886h2.38232c0.74249,-4.19378 4.47075,-7.53328 8.92593,-7.53328c4.4553,0 8.16799,3.3395 8.91048,7.53328h1.43875zM12.80879,19.58589h11.49387c-0.68058,-2.48522 -2.98565,-4.4266 -5.73921,-4.4266c-2.75356,0 -5.07397,1.94138 -5.75466,4.4266zM28.91269,35.73954h-4.842c-0.85087,0 -1.54701,-0.69906 -1.54701,-1.55334c0,-0.85428 0.69614,-1.55334 1.54701,-1.55334h4.842v-0.77608h-4.842c-0.85087,0 -1.54701,-0.69906 -1.54701,-1.55334c0,-0.85428 0.69614,-1.55334 1.54701,-1.55334h4.842v-6.05755h-22.98786l-1.39229,1.31993c-0.91267,0.85428 -1.43864,2.06602 -1.45409,3.32421v10.59292c0,1.39812 1.1911,2.46994 2.56794,2.46994h23.2663zM32.0066,34.51251c1.4851,0.52797 3.12481,0.52797 4.60991,0c3.60443,-1.27348 5.49168,-5.24972 4.22321,-8.86908c-1.26846,-3.61877 -5.22869,-5.5137 -8.83312,-4.24022zM52.89058,26.38894l-3.0011,-0.27927c-0.68069,-0.06232 -1.23756,-0.54384 -1.39229,-1.21174c-0.37125,-1.73972 -1.06739,-3.38595 -2.04197,-4.86168c-0.38681,-0.57442 -0.34035,-1.31993 0.09281,-1.84848l1.90269,-2.31413l-2.13478,-2.15892l-2.27406,1.89493c-0.52597,0.43508 -1.25301,0.48152 -1.82533,0.10877c-1.4851,-0.96305 -3.12492,-1.66211 -4.85744,-2.05015c-0.6498,-0.13993 -1.14475,-0.69906 -1.20667,-1.36696l-0.294,-2.96675h-3.85185v8.83792c1.516,-0.35747 3.07846,-0.35747 4.59446,0c5.36797,1.27348 8.70941,6.69429 7.44083,12.08394c-1.26846,5.39024 -6.65188,8.74502 -12.03529,7.47154v8.86849h3.86742l0.27843,-2.98203c0.06191,-0.6679 0.54142,-1.22703 1.20667,-1.36696c1.73252,-0.37275 3.37234,-1.07182 4.84188,-2.05015c0.55698,-0.38804 1.31493,-0.34159 1.8409,0.09348l2.28951,1.89493l2.16579,-2.17479l-1.88736,-2.29885c-0.43304,-0.52797 -0.47951,-1.25819 -0.10826,-1.83261c0.97458,-1.49102 1.67072,-3.13784 2.05753,-4.87696c0.15461,-0.65261 0.71159,-1.14942 1.37672,-1.21174l2.95475,-0.27986zM7.56454,27.35199h9.59118c0.85087,0 1.54701,0.69906 1.54701,1.55334v6.679c0,0.85428 -0.69614,1.55334 -1.54701,1.55334h-9.59118c-0.85075,0 -1.5469,-0.69906 -1.5469,-1.55334v-6.679c0,-0.85428 0.69614,-1.55334 1.5469,-1.55334zM9.11155,34.03099h6.49727v-3.57232h-6.49727z" fill="#ffc600" fill-opacity="1"></path></g></g></svg>