<?xml version="1.0" encoding="UTF-8"?>
<svg id="SVGDoc" width="29" height="29" xmlns="http://www.w3.org/2000/svg" version="1.1" xmlns:xlink="http://www.w3.org/1999/xlink" xmlns:avocode="https://avocode.com/" viewBox="0 0 29 29"><defs></defs><desc>Generated with Avocode.</desc><g><g><title>Shape 249 1</title><path d="M13.56129,-0.00021c0.31448,0 0.6292,0 0.94379,0c0.86849,0.34935 1.99837,1.30542 2.25311,2.24768c0.0983,0.36347 -0.14957,1.0256 0,1.27576c1.80634,1.79177 3.61324,3.58433 5.41958,5.3761c0.31208,-0.04661 0.77751,-0.16416 1.157,-0.06058c1.01463,0.277 2.79545,1.97163 2.16179,3.49299c-0.31895,0.76586 -1.14784,1.32739 -1.70506,1.88327c-1.20758,1.21487 -2.41562,2.42989 -3.6232,3.64491c-0.37846,0.29693 -1.0564,0.64047 -1.79638,0.45575c-0.81127,-0.20308 -2.08191,-1.49061 -2.28355,-2.30857c-0.09487,-0.38513 0.11547,-0.84763 0.03044,-1.12384c-0.2639,-0.27339 -0.5278,-0.54678 -0.79159,-0.82016c-0.04063,0 -0.08125,0 -0.12188,0c-1.85703,2.10565 -3.71475,4.21209 -5.57178,6.31774c-0.80166,0.91134 -1.60366,1.82269 -2.40532,2.73403c-0.52471,0.65161 -1.07655,1.39927 -1.76594,1.88311c-1.51073,1.05965 -3.75767,0.52622 -4.68887,-0.66825c-0.88108,-1.13027 -1.08662,-2.87497 -0.21309,-4.19184c0.41473,-0.62525 1.09325,-1.11537 1.6745,-1.57943c0.82203,-0.71878 1.64429,-1.43756 2.46632,-2.1565c2.28321,-2.00458 4.56722,-4.00964 6.85055,-6.01422c0,-0.03045 0,-0.06074 0,-0.09102c-0.29423,-0.28359 -0.58868,-0.56702 -0.88291,-0.85045c-0.31425,0.01365 -0.74055,0.15725 -1.12656,0.06074c-0.67051,-0.16777 -1.77784,-1.2111 -2.07047,-1.7618c-0.70736,-1.33116 0.298,-2.30214 0.97435,-2.97666c1.2989,-1.30589 2.59827,-2.61241 3.89717,-3.91845c0.23346,-0.20229 0.46692,-0.4049 0.70038,-0.60735c0.16033,-0.09699 0.4034,-0.09966 0.51762,-0.24294zM13.92658,1.70069c-1.21777,1.21487 -2.43587,2.43004 -3.65364,3.64507c-0.37422,0.37336 -1.23676,0.90915 -1.33965,1.48825c0.32467,0.33397 0.64957,0.66825 0.97424,1.00221c0.08125,-0.01004 0.16239,-0.02009 0.24364,-0.03029c0.47699,-0.4658 0.95398,-0.93143 1.43097,-1.39723c0.82203,-0.82001 1.64429,-1.64017 2.4662,-2.46033c0.34927,-0.3484 0.82832,-0.67468 1.06567,-1.12368c-0.0761,-0.48698 -0.68459,-0.81326 -0.97424,-1.124c-0.07107,0 -0.14214,0 -0.2132,0zM15.57076,4.82927c-1.16707,1.18458 -2.33437,2.36931 -3.50143,3.55373c1.7252,1.72115 3.45085,3.44261 5.17605,5.16376c1.18732,-1.18458 2.37499,-2.36931 3.56232,-3.55388c-0.26264,-0.56781 -1.05434,-1.08209 -1.49197,-1.5187c-1.20758,-1.21471 -2.4155,-2.43004 -3.6232,-3.64491c-0.04063,0 -0.08114,0 -0.12177,0zM22.72583,10.50921c-1.22795,1.22507 -2.45613,2.45029 -3.68408,3.67536c-0.35637,0.35547 -1.21445,0.87776 -1.27876,1.45796c0.23415,0.31796 0.68356,0.95701 1.157,1.00221c1.6642,-1.6499 3.32897,-3.30074 4.99329,-4.9508c-0.01019,-0.08098 -0.02026,-0.16196 -0.03044,-0.24294c-0.30441,-0.31403 -0.60894,-0.62791 -0.91335,-0.94179c-0.08125,0 -0.16239,0 -0.24364,0zM12.73914,11.57232c-0.53787,0.48604 -1.07586,0.97208 -1.61373,1.45812c0,0.02025 0,0.04033 0,0.06074c0.4668,0.45559 0.93384,0.91119 1.40064,1.36678c0.04063,0 0.08114,0 0.12177,0c0.4668,-0.54662 0.93372,-1.09355 1.40053,-1.64033c-0.14683,-0.25565 -1.02791,-1.17249 -1.3092,-1.24531zM9.75533,14.18457c-2.26295,1.98418 -4.52671,3.9693 -6.78967,5.95333c-0.70644,0.66903 -1.95408,1.68866 -0.94391,3.03755c0.58342,0.77905 1.91036,0.88859 2.70985,0.2431c2.23251,-2.54131 4.46571,-5.0831 6.69834,-7.6241c-0.24261,-0.32518 -1.31905,-1.49516 -1.67461,-1.60988zM21.72104,18.77111c1.13148,-0.03421 1.03523,0.79411 1.03523,1.88311c0,0.37571 0.04841,0.84669 -0.09132,1.09371c-0.11112,0.19617 -0.40707,0.38466 -0.66982,0.42515c-0.99518,0.15286 -0.94391,-0.98558 -0.94391,-1.88327c0,-0.41149 -0.03353,-0.86065 0.12177,-1.12384c0.11398,-0.19288 0.35328,-0.27794 0.54806,-0.39486zM17.73254,19.34817c0.29938,-0.00659 0.52872,0.00424 0.70026,0.12147c0.51212,0.35044 1.43246,2.93602 0.30441,3.25021c-0.99941,0.27841 -1.11683,-0.90334 -1.3092,-1.48825c-0.10094,-0.30713 -0.44586,-0.76602 -0.33485,-1.21502c0.08984,-0.36378 0.35431,-0.49373 0.63938,-0.6684zM25.64877,19.34817c1.58112,-0.06372 0.91209,1.41983 0.63938,2.21755c-0.09132,0.27323 -0.18265,0.54662 -0.27397,0.82016c-0.12749,0.18315 -0.50949,0.45151 -0.91347,0.33397c-1.34491,-0.39125 -0.07519,-2.9277 0.54806,-3.37168zM18.6459,23.87398c2.12551,-0.01271 6.68106,-0.35704 7.76402,0.57722c0.43018,0.37085 0.75874,0.94069 0.88303,1.60972c0.01019,0.39486 0.02026,0.78987 0.03044,1.18473c1.09818,-0.03767 1.71135,0.04802 1.67461,1.15413c-0.20851,0.13104 -0.31494,0.43394 -0.54806,0.54662c-1.11626,0 -2.23297,0 -3.34923,0c-2.34421,0 -4.6891,0 -7.03331,0c-1.13914,0.00016 -3.59756,0.41134 -3.22735,-1.06295c0.25692,-1.02356 1.21971,-0.32031 1.67461,-0.69854c0.02026,-0.44555 0.04051,-0.8911 0.06088,-1.33649c0.33611,-1.29569 1.0017,-1.42767 2.07035,-1.97445zM18.98087,25.54475c-0.61375,0.28767 -0.93327,0.72412 -0.73071,1.70091c2.4456,-0.01004 4.89201,-0.0204 7.33772,-0.03045c0.00927,-0.62823 0.0499,-1.22507 -0.30453,-1.48841c-0.37148,-0.27606 -1.22177,-0.18221 -1.85726,-0.18205c-1.48155,0 -2.96368,0 -4.44523,0z" fill="#051942" fill-opacity="1"></path></g></g></svg>