<?xml version="1.0" encoding="UTF-8"?>
<svg id="SVGDoc" width="26" height="26" xmlns="http://www.w3.org/2000/svg" version="1.1" xmlns:xlink="http://www.w3.org/1999/xlink" xmlns:avocode="https://avocode.com/" viewBox="0 0 26 26"><defs></defs><desc>Generated with Avocode.</desc><g><g><title>Shape 261 1</title><path d="M-0.00014,-0.00038c6.4769,0 12.95574,0 19.43264,0c0,4.41705 0,8.83567 0,13.25256c2.51381,-0.04206 3.6573,0.8798 4.86122,2.1802c0.00813,-0.00832 0.01625,-0.01664 0.02438,-0.0248c0.24834,-0.20528 0.49679,-0.41055 0.74512,-0.61583c0.00813,0 0.01625,0 0.02438,0c0.13607,0.24043 1.00845,1.08963 0.90385,1.2439c-0.30533,0.25063 -0.61077,0.50111 -0.9161,0.75142c0.06924,0.20951 0.13847,0.41856 0.20771,0.62807c0.17944,0.60108 0.28278,1.52184 0.1466,2.25396c-0.41267,2.21676 -1.57196,3.65856 -3.39558,4.44624c-0.60162,0.25989 -1.69373,0.6028 -2.60159,0.43111c0,0.48431 0,0.96878 0,1.45341c-6.4769,0 -12.95574,0 -19.43264,0c0,-8.66586 0,-17.33423 0,-26.00025zM1.52662,1.5516c0,7.63132 0,15.26483 0,22.89615c5.45506,0 10.91183,0 16.36688,0c0,-0.08192 0,-0.164 0,-0.24624c-0.4612,-0.09071 -0.90683,-0.42248 -1.2458,-0.66495c-1.1142,-0.79772 -2.08878,-2.00317 -2.32075,-3.67033c-2.05582,0 -4.11221,0 -6.16802,0c0,-0.51303 0,-1.02638 0,-1.53941c2.03945,0 4.0797,0 6.11927,0c0.00114,-0.36237 0.10643,-0.70795 0.19535,-0.99782c0.41187,-1.3423 1.14201,-2.34232 2.1619,-3.06675c0.26184,-0.18629 0.56545,-0.37116 0.86723,-0.50503c0.13023,-0.04928 0.26058,-0.09856 0.39082,-0.14784c0,-4.01889 0,-8.03904 0,-12.05778c-5.45506,0 -10.91183,0 -16.36688,0zM4.95882,5.64064c1.01887,-0.01146 1.08376,1.38012 0.1466,1.55197c-0.49427,0.09055 -0.98396,-0.46564 -0.84286,-0.97302c0.10323,-0.371 0.35294,-0.44068 0.69626,-0.57895zM8.15893,5.72696c2.29191,0 4.5845,0 6.87653,0c0,0.51711 0,1.03454 0,1.55181c-2.29202,0 -4.58462,0 -6.87653,0c0,-0.51727 0,-1.0347 0,-1.55181zM4.90995,9.92665c1.10126,-0.02841 1.14613,1.4214 0.13435,1.55197c-0.46417,0.06011 -0.94288,-0.5201 -0.7695,-1.0223c0.10998,-0.31859 0.33588,-0.39486 0.63515,-0.52967zM8.15893,9.92665c2.29191,0 4.5845,0 6.87653,0c0,0.51727 0,1.03486 0,1.55197c-2.29202,0 -4.58462,0 -6.87653,0c0,-0.51711 0,-1.0347 0,-1.55197zM8.15893,14.12665c2.29191,0 4.5845,0 6.87653,0c0,0.51303 0,1.02638 0,1.53957c-2.29202,0 -4.58462,0 -6.87653,0c0,-0.51319 0,-1.02654 0,-1.53957zM4.97106,14.20072c1.00353,0.00612 1.06796,1.37494 0.14648,1.55181c-0.50217,0.0962 -0.99712,-0.46219 -0.85499,-0.97302c0.10506,-0.37712 0.35831,-0.43896 0.7085,-0.57879zM19.61572,14.79176c-0.2512,0.09667 -0.65643,0.07816 -0.9161,0.16008c-0.81917,0.25895 -1.52824,0.73212 -2.00306,1.34246c-0.33669,0.43284 -0.60505,0.93379 -0.78175,1.52717c-0.58216,1.95609 0.53673,3.69827 1.60011,4.45864c0.32776,0.23462 0.72899,0.43409 1.14807,0.56655c2.38312,0.75425 4.32255,-0.80557 4.9712,-2.40164c0.26287,-0.64675 0.44518,-1.772 0.17097,-2.57411c-0.01225,0.0124 -0.02449,0.02464 -0.03662,0.03688c-1.26617,1.06326 -2.53258,2.12668 -3.79864,3.18994c-1.09097,-0.87839 -2.18239,-1.75709 -3.27335,-2.63579c0.31746,-0.40223 0.63515,-0.80463 0.95272,-1.20686c0.01213,0.01224 0.02438,0.02464 0.03662,0.03688c0.75314,0.60343 1.5065,1.20718 2.25964,1.81076c1.05434,-0.8911 2.10903,-1.7822 3.16338,-2.67299c-0.10803,-0.19099 -0.2853,-0.36959 -0.45193,-0.50487c-0.80441,-0.65318 -1.55216,-1.13608 -3.04127,-1.1331zM4.9222,18.48673c1.07449,-0.02762 1.13022,1.39064 0.14648,1.55181c-0.48077,0.07878 -0.96806,-0.51758 -0.79388,-1.0223c0.11101,-0.32125 0.34046,-0.39831 0.64739,-0.52951z" fill="#051942" fill-opacity="1"></path></g></g></svg>