<?xml version="1.0" encoding="UTF-8"?>
<svg id="SVGDoc" width="25" height="25" xmlns="http://www.w3.org/2000/svg" version="1.1" xmlns:xlink="http://www.w3.org/1999/xlink" xmlns:avocode="https://avocode.com/" viewBox="0 0 25 25"><defs></defs><desc>Generated with Avocode.</desc><g><g><title>Shape 23 copy</title><path d="M24.99984,5.3566v16.96448c0,1.47931 -1.19923,2.67785 -2.67849,2.67785h-19.64287c-1.47938,0 -2.67849,-1.19854 -2.67849,-2.67785v-16.96448c0,-1.47931 1.19911,-2.67864 2.67849,-2.67864h2.6786v-1.78612c0,-0.49295 0.39963,-0.89267 0.89275,-0.89267c0.49313,0 0.89298,0.39972 0.89298,0.89267v1.78612h10.71419v-1.78612c0,-0.49295 0.39974,-0.89267 0.89275,-0.89267c0.49324,0 0.89298,0.39972 0.89298,0.89267v1.78612h2.6786c1.47926,0 2.67849,1.19933 2.67849,2.67864zM23.2141,10.71355h-21.4286v11.60752c0,0.4931 0.39986,0.89283 0.89298,0.89283h19.64275c0.49313,0 0.89287,-0.39972 0.89287,-0.89283zM23.21433,8.92759v-3.57099c0,-0.4931 -0.39986,-0.89283 -0.89298,-0.89283h-2.6786v1.78597c0,0.4931 -0.39974,0.8922 -0.89275,0.8922c-0.49324,0 -0.89298,-0.3991 -0.89298,-0.8922v-1.78597h-10.71419v1.78597c0,0.4931 -0.39986,0.8922 -0.89298,0.8922c-0.49313,0 -0.89275,-0.3991 -0.89275,-0.8922v-1.78597h-2.6786c-0.49313,0 -0.89298,0.39972 -0.89298,0.89283v3.57099zM18.48815,14.02356l-7.14283,7.14292c-0.34859,0.3484 -0.9137,0.3484 -1.2624,0l-3.57147,-3.57178c-0.33417,-0.34605 -0.33417,-0.8944 0,-1.24076c0.34264,-0.35405 0.90786,-0.36441 1.26251,-0.02181l2.94022,2.94041l6.51157,-6.5114c0.34607,-0.33428 0.89447,-0.33428 1.24054,0c0.35465,0.34244 0.36449,0.90758 0.02186,1.26242z" fill="#051942" fill-opacity="1"></path></g></g></svg>