<?xml version="1.0" encoding="UTF-8"?>
<svg id="SVGDoc" width="25" height="25" xmlns="http://www.w3.org/2000/svg" version="1.1" xmlns:xlink="http://www.w3.org/1999/xlink" xmlns:avocode="https://avocode.com/" viewBox="0 0 25 25"><defs></defs><desc>Generated with Avocode.</desc><g><g><title>Shape 255 1 copy 2</title><path d="M12.49993,-0.00005c6.90353,0 12.50004,5.59645 12.50004,12.50004c0,6.90343 -5.5965,12.49988 -12.50004,12.49988c-6.90353,0 -12.50004,-5.59645 -12.50004,-12.49988c0,-6.90359 5.5965,-12.50004 12.50004,-12.50004zM1.9756,12.49983c0,5.81224 4.71188,10.52417 10.52433,10.52417c5.81245,0 10.52433,-4.71194 10.52433,-10.52417c0,-5.81239 -4.71188,-10.52449 -10.52433,-10.52449c-5.81245,0 -10.52433,4.71209 -10.52433,10.52449zM15.56054,7.1501c2.12563,-0.03625 3.81008,1.81751 2.95509,4.06755c-0.3479,0.91558 -1.17325,1.52812 -1.79581,2.17565c-1.26526,1.3084 -2.53086,2.61712 -3.79623,3.92567c-0.43373,0.3211 -1.18343,0.69681 -2.0232,0.54395c-1.3187,-0.24043 -1.91265,-1.11489 -2.68227,-1.91544c-0.91599,-0.95309 -2.00546,-1.67925 -2.27325,-3.31094c-0.31563,-1.92266 1.67656,-3.65417 3.50075,-3.16876c0.85785,0.22803 1.20701,0.78187 1.79581,1.25316c0.99255,-1.01665 1.98532,-2.03362 2.97787,-3.05042c0.39631,-0.29191 0.83691,-0.29536 1.34125,-0.52041zM15.65152,9.13679c-1.02516,0.59197 -2.09679,1.96817 -2.93255,2.83761c-0.3091,0.32157 -0.65838,0.87494 -1.06842,1.0642c-1.12873,0.52119 -1.79604,-1.39205 -2.5914,-1.63185c-0.79731,-0.24012 -1.4661,0.59825 -1.13651,1.37165c0.12486,0.29332 0.44975,0.51539 0.65918,0.73306c0.59097,0.61489 1.18206,1.22977 1.77303,1.84466c0.21687,0.22568 0.48225,0.63121 0.97755,0.54395c0.66868,-0.11786 1.07346,-0.80933 1.47755,-1.22977c0.91679,-0.95372 1.8338,-1.90759 2.75059,-2.86147c0.38017,-0.39533 0.9993,-0.8222 1.20483,-1.37149c0.31139,-0.83272 -0.3828,-1.31436 -1.11385,-1.30055z" fill="#051942" fill-opacity="1"></path></g></g></svg>