<?xml version="1.0" encoding="UTF-8"?>
<svg id="SVGDoc" width="41" height="23" xmlns="http://www.w3.org/2000/svg" version="1.1" xmlns:xlink="http://www.w3.org/1999/xlink" xmlns:avocode="https://avocode.com/" viewBox="0 0 41 23"><defs></defs><desc>Generated with Avocode.</desc><g><g><title>Shape 251 1 copy</title><path d="M4.61826,2.29491c0.90763,-1.43395 2.50488,-2.30339 4.22012,-2.29445h14.47346c1.55193,0 3.02216,0.70795 3.96606,1.9269l4.0567,5.24349l6.76117,1.8285c1.71524,0.46595 2.90417,2.01651 2.90417,3.77329v2.55434c0,2.16011 -1.74248,3.94372 -3.92967,3.94372h-0.58079c-0.69889,2.662 -3.44868,4.2576 -6.1441,3.56738c-1.76971,-0.45701 -3.15823,-1.81955 -3.6121,-3.56738h-11.95793c-0.69878,2.662 -3.44868,4.2576 -6.1441,3.56738c-1.76971,-0.45701 -3.15823,-1.81955 -3.61198,-3.56738h-1.08913c-2.18719,0 -3.92967,-1.78361 -3.92967,-3.94372v-2.91279c-0.00904,-1.53267 4.61781,-10.11927 4.61781,-10.11927zM31.61591,21.18896c1.77887,0 3.22186,-1.42532 3.22186,-3.18194c0,-1.75678 -1.44299,-3.18178 -3.22186,-3.18178c-1.77876,0 -3.22174,1.42501 -3.22174,3.18178c-0.00904,1.74767 1.43394,3.17268 3.22174,3.18194zM9.90177,21.18896c1.77887,0 3.22186,-1.42532 3.22186,-3.18194c0,-1.75678 -1.44299,-3.18178 -3.22186,-3.18178c-1.77876,0 -3.22174,1.42501 -3.22174,3.18178c-0.00904,1.74767 1.43394,3.17268 3.22174,3.18194zM1.82465,12.41418v2.91279h-0.00904c0,1.17422 0.92571,2.15132 2.11452,2.15132h0.96199c0.29949,-2.73388 2.79533,-4.70566 5.56332,-4.40088c2.3505,0.2511 4.20193,2.08839 4.45599,4.40088h11.69483c0.29949,-2.73388 2.79522,-4.70566 5.56332,-4.40088c2.3505,0.2511 4.20193,2.08839 4.45599,4.40088h0.45376c1.18893,0 2.11464,-0.9771 2.11464,-2.15132v-2.55434c0.00904,-0.95921 -0.63526,-1.79271 -1.57001,-2.05245l-7.06982,-1.90916c-0.19054,-0.05383 -0.36301,-0.16133 -0.481,-0.32267l-4.22916,-5.47623c-0.60802,-0.77104 -1.54289,-1.21895 -2.53212,-1.21895h-14.47346c-1.08902,-0.0091 -2.11452,0.53767 -2.68627,1.45184c0,0 -4.33651,8.33566 -4.32747,9.16916z" fill="#051942" fill-opacity="1"></path></g></g></svg>