<?xml version="1.0" encoding="UTF-8"?>
<svg id="SVGDoc" width="15" height="22" xmlns="http://www.w3.org/2000/svg" version="1.1" xmlns:xlink="http://www.w3.org/1999/xlink" xmlns:avocode="https://avocode.com/" viewBox="0 0 15 22"><defs></defs><desc>Generated with Avocode.</desc><g><g><title>33 1</title><path d="M7.15276,0.00108c3.99364,-0.07055 6.24161,2.13481 7.34791,5.07271c0.56534,1.50161 0.6863,3.94687 0.17841,5.62544c-0.48065,1.58863 -1.35841,2.68451 -2.18983,3.90039c-1.65974,2.46641 -3.31993,4.93398 -4.97967,7.39984c-0.01087,-0.00529 -0.02163,-0.01118 -0.0325,-0.01647c-0.53513,-0.79258 -1.07059,-1.5851 -1.60583,-2.37708c-1.08124,-1.6127 -2.16282,-3.226 -3.24406,-4.83875c-0.67463,-0.98947 -1.47388,-1.9378 -1.96266,-3.09724c-0.73666,-1.7468 -0.9367,-4.55947 -0.21091,-6.51203c0.39814,-1.07181 0.90866,-1.90316 1.54095,-2.71215c0.78186,-1.00071 2.19635,-1.7815 3.55236,-2.19362c0.34058,-0.06642 0.68127,-0.13345 1.02184,-0.20047c0.19466,-0.01707 0.38933,-0.03354 0.58399,-0.05056zM7.18515,1.25689c-0.13515,0.01118 -0.27031,0.02236 -0.40546,0.03354c-0.3352,0.06703 -0.67051,0.13405 -1.00571,0.20108c-1.11969,0.34686 -2.23366,0.96832 -2.88723,1.80788c-0.49381,0.63441 -0.91656,1.29817 -1.23276,2.12599c-0.62851,1.64563 -0.53146,4.17731 0.11353,5.70893c0.42068,0.99889 1.1055,1.81141 1.68686,2.6622c0.91908,1.37224 1.83849,2.74564 2.75757,4.11849c0.42709,0.63027 0.8543,1.26116 1.28139,1.89143c0.01087,-0.00529 0.02163,-0.01118 0.0325,-0.01647c0.45948,-0.68083 0.91919,-1.36167 1.37867,-2.0425c0.91908,-1.37285 1.83849,-2.74569 2.75757,-4.11854c0.68871,-1.00891 1.43085,-1.92023 1.83289,-3.23134c0.44151,-1.43982 0.34184,-3.49587 -0.11353,-4.82168c-0.88039,-2.56285 -2.82829,-4.33074 -6.19629,-4.31901zM7.31493,3.56694c2.80357,-0.04411 5.14057,2.65923 3.92544,5.62538c-0.59795,1.45926 -1.69418,2.21009 -3.43884,2.51108c-0.65495,0.11351 -1.31538,-0.13697 -1.73561,-0.31806c-1.49368,-0.64322 -3.00865,-2.53052 -2.30335,-4.90517c0.37205,-1.25234 1.2339,-2.17776 2.36824,-2.64518c0.25406,-0.07231 0.50823,-0.14518 0.76241,-0.21749c0.14053,-0.01707 0.28118,-0.03354 0.42171,-0.05056zM7.36356,4.82275c-0.26482,0.10525 -0.55355,0.08641 -0.79479,0.184c-0.74249,0.30164 -1.30028,0.90367 -1.58958,1.67449c-0.69889,1.86081 0.96897,4.06209 2.78996,3.76694c1.15803,-0.18819 1.93863,-0.74731 2.33574,-1.70798c0.87204,-2.10953 -0.76149,-3.93096 -2.74132,-3.91746z" fill="#051942" fill-opacity="1"></path></g></g></svg>