<?xml version="1.0" encoding="UTF-8"?>
<svg id="SVGDoc" width="17" height="17" xmlns="http://www.w3.org/2000/svg" version="1.1" xmlns:xlink="http://www.w3.org/1999/xlink" xmlns:avocode="https://avocode.com/" viewBox="0 0 17 17"><defs></defs><desc>Generated with Avocode.</desc><g><g><title>Shape 237 503</title><path d="M16.99997,16.99966c-0.44266,0 -0.88543,0 -1.32809,0c0.04589,-4.67412 -4.79187,-8.63214 -9.76112,-6.68782c-2.48531,0.97245 -4.58519,3.25778 -4.58176,6.68782c-0.44266,0 -0.88543,0 -1.32797,0c-0.04898,-3.24778 1.64783,-5.57309 3.55247,-6.91947c0.56385,-0.39862 1.70059,-0.72728 2.15801,-1.12591c-1.2957,-0.56619 -2.6001,-3.13431 -1.99196,-5.19798c0.51819,-1.75853 2.53017,-4.13087 5.11288,-3.70814c2.18994,0.35923 3.57067,1.3699 4.28295,3.1784c0.84846,2.15421 -0.28999,5.06099 -1.82602,5.72771c0.0111,0.02234 0.02209,0.0441 0.03319,0.06644c2.91584,0.5897 5.68176,4.33488 5.67741,7.97894zM8.16845,1.3728c-0.29881,0.06585 -0.59761,0.13229 -0.89642,0.19872c-1.04313,0.40568 -1.88839,1.24408 -2.2245,2.35058c-0.71674,2.35823 1.36906,5.00749 3.7849,4.60181c4.48345,-0.75315 4.28169,-7.21285 -0.66399,-7.15112z" fill="#051942" fill-opacity="1"></path></g></g></svg>