<?xml version="1.0" encoding="UTF-8"?>
<svg id="SVGDoc" width="18" height="18" xmlns="http://www.w3.org/2000/svg" version="1.1" xmlns:xlink="http://www.w3.org/1999/xlink" xmlns:avocode="https://avocode.com/" viewBox="0 0 18 18"><defs></defs><desc>Generated with Avocode.</desc><g><g><title>Shape 236 504</title><path d="M4.61082,-0.00013c0.23495,0.02352 0.46978,0.04645 0.70473,0.06996c0.23689,0.32807 1.27533,4.36487 1.12736,4.81111c-0.14259,0.4292 -1.71936,1.50219 -1.58546,1.79087c0.59898,1.9255 3.07125,4.212 4.6154,5.30204c0.1712,0.12112 1.78516,1.21057 1.90247,1.15883c0.5167,-0.52621 1.03352,-1.05359 1.55022,-1.5798c0.7972,-0.23635 2.82257,0.4045 3.6993,0.63204c0.48809,0.12641 1.07563,0.07232 1.26835,0.49152c0.38177,0.6726 -0.36724,2.32178 -0.59898,2.70394c-1.09074,1.79733 -3.45383,3.35714 -6.30638,2.24711c-4.45747,-1.73384 -7.77111,-4.7535 -9.86481,-8.84909c-1.24249,-2.42996 -1.75804,-4.80935 0.07038,-7.09291c0.51407,-0.64262 1.42159,-1.20234 2.29008,-1.47514c0.37571,-0.06996 0.75165,-0.14052 1.12736,-0.21048zM4.3642,1.1587c-0.88898,0.40391 -1.69167,0.49563 -2.25471,1.19352c-1.50742,1.86965 -1.12003,4.06737 0.03513,6.03991c2.05158,3.50354 4.64069,6.23511 8.52608,7.90133c0.65392,0.28045 1.57082,0.73669 2.57195,0.56148c1.83529,-0.32102 3.48827,-1.48161 3.55831,-3.51118c-1.12724,-0.234 -2.25494,-0.46859 -3.38219,-0.70259c-0.5872,0.57383 -1.17451,1.14707 -1.76159,1.7209c-0.58514,0.1705 -2.16671,-1.01831 -2.5367,-1.26407c-1.80176,-1.19822 -3.27827,-2.65867 -4.43916,-4.4948c-0.39356,-0.62263 -1.10916,-1.3552 -1.12736,-2.28297c0.38841,-0.73728 1.22887,-1.17588 1.72634,-1.82555c-0.23483,-1.11179 -0.46978,-2.22418 -0.70461,-3.33597c-0.0705,0 -0.14099,0 -0.21149,0z" fill="#051942" fill-opacity="1"></path></g></g></svg>