<?xml version="1.0" encoding="UTF-8"?>
<svg id="SVGDoc" width="20" height="20" xmlns="http://www.w3.org/2000/svg" version="1.1" xmlns:xlink="http://www.w3.org/1999/xlink" xmlns:avocode="https://avocode.com/" viewBox="0 0 20 20"><defs></defs><desc>Generated with Avocode.</desc><g><g><title>Shape 23</title><path d="M19.99992,4.28559v13.57142c0,1.18352 -0.95936,2.14245 -2.14279,2.14245h-15.71434c-1.18343,0 -2.14279,-0.95893 -2.14279,-2.14245v-13.57142c0,-1.18352 0.95936,-2.14304 2.14279,-2.14304h2.14291v-1.42869c0,-0.39451 0.31975,-0.71435 0.71423,-0.71435c0.39448,0 0.71434,0.31984 0.71434,0.71435v1.42869h8.5714v-1.42869c0,-0.39451 0.31975,-0.71435 0.71423,-0.71435c0.39459,0 0.71434,0.31984 0.71434,0.71435v1.42869h2.14291c1.18343,0 2.14279,0.95952 2.14279,2.14304zM18.57136,8.57109h-17.14291v9.28593c0,0.39451 0.31986,0.71435 0.71434,0.71435h15.71423c0.39448,0 0.71434,-0.31984 0.71434,-0.71435zM18.57147,7.14239v-2.8568c0,-0.39451 -0.31986,-0.71435 -0.71434,-0.71435h-2.14291v1.42869c0,0.39451 -0.31975,0.71376 -0.71423,0.71376c-0.39459,0 -0.71434,-0.31925 -0.71434,-0.71376v-1.42869h-8.5714v1.42869c0,0.39451 -0.31986,0.71376 -0.71434,0.71376c-0.39448,0 -0.71423,-0.31925 -0.71423,-0.71376v-1.42869h-2.14291c-0.39448,0 -0.71434,0.31984 -0.71434,0.71435v2.8568zM14.79057,11.21917l-5.71426,5.71419c-0.27889,0.27868 -0.73093,0.27868 -1.00994,0l-2.85713,-2.85739c-0.26733,-0.27692 -0.26733,-0.71552 0,-0.99244c0.27409,-0.28339 0.72624,-0.29162 1.00994,-0.01764l2.35222,2.35235l5.20924,-5.20915c0.27683,-0.26751 0.7156,-0.26751 0.99243,0c0.2837,0.27398 0.2916,0.72611 0.01751,1.01008z" fill="#051942" fill-opacity="1"></path></g></g></svg>