<?xml version="1.0" encoding="UTF-8"?>
<svg id="SVGDoc" width="20" height="13" xmlns="http://www.w3.org/2000/svg" version="1.1" xmlns:xlink="http://www.w3.org/1999/xlink" xmlns:avocode="https://avocode.com/" viewBox="0 0 20 13"><defs></defs><desc>Generated with Avocode.</desc><g><g><title>Shape 24</title><path d="M19.99992,1.66711v9.66456c0,0.91954 -0.7885,1.66799 -1.75781,1.66799h-16.4843c-0.96931,0 -1.75781,-0.74845 -1.75781,-1.66799v-9.66456c0,-0.91954 0.7885,-1.6674 1.75781,-1.6674h16.4843c0.96931,0 1.75781,0.74786 1.75781,1.6674zM1.98715,1.11151l0.2346,0.1852l7.0808,5.59366c0.40398,0.31925 0.99072,0.31925 1.39481,0l7.08069,-5.59366l0.23472,-0.1852zM1.17188,10.11464l5.7692,-3.64288l-5.7692,-4.55771zM18.81638,11.4428l-6.69708,-4.22847l-0.672,0.53091c-0.41931,0.33101 -0.93338,0.49681 -1.44733,0.49681c-0.51395,0 -1.02802,-0.1658 -1.44733,-0.49681l-0.672,-0.53091l-6.69708,4.22847c0.05424,0.2534 0.29114,0.44507 0.57426,0.44507h16.4843c0.28313,0 0.51991,-0.19167 0.57426,-0.44507zM18.82805,1.91405l-5.7692,4.55771l5.7692,3.64288z" fill="#051942" fill-opacity="1"></path></g></g></svg>