<?xml version="1.0" encoding="UTF-8"?>
<svg id="SVGDoc" width="16" height="16" xmlns="http://www.w3.org/2000/svg" version="1.1" xmlns:xlink="http://www.w3.org/1999/xlink" xmlns:avocode="https://avocode.com/" viewBox="0 0 16 16"><defs></defs><desc>Generated with Avocode.</desc><g><g><title>Shape 266 1</title><path d="M4.11037,0.00022c1.8433,0 3.68717,0 5.53036,0c0.51819,0 1.03649,0 1.55457,0c0.48386,-0.00016 0.94883,-0.00722 1.3377,0.08961c0.99586,0.24828 1.82545,0.71972 2.37659,1.41339c0.4517,0.56843 0.78495,1.18128 0.9716,2.02655c0.13252,0.60013 0.06729,1.41496 0.06729,2.11617c0,1.28863 0,2.57757 0,3.86604c0,1.39048 0.09258,2.79916 -0.32146,3.77642c-0.36163,0.85359 -0.9494,1.54271 -1.69647,2.01149c-0.49896,0.31325 -1.05423,0.50001 -1.74877,0.62823c-0.30613,0.0565 -0.67795,0.02982 -1.0239,0.02982c-0.6102,0 -1.22074,0 -1.83094,0c-1.28036,0 -2.56107,0 -3.84144,0c-0.80326,0.00016 -1.66637,0.04332 -2.28687,-0.14203c-1.20358,-0.35955 -2.04609,-1.04977 -2.63065,-2.02655c-0.29583,-0.49404 -0.43533,-1.04977 -0.55309,-1.7348c-0.00492,-0.2318 -0.00996,-0.46375 -0.01488,-0.69555c0,-0.43613 0,-0.87242 0,-1.30856c0,-1.34591 0,-2.69213 0,-4.03804c0,-0.46109 0,-0.92233 0,-1.38342c0.00492,-0.24184 0.00996,-0.48353 0.01488,-0.72537c0.13058,-0.76335 0.3059,-1.34622 0.6427,-1.88437c0.52917,-0.84559 1.34159,-1.50301 2.38415,-1.83211c0.22808,-0.07204 0.47207,-0.11049 0.72487,-0.1571c0.11456,-0.00989 0.22923,-0.01993 0.34378,-0.02982zM12.30136,2.0715c-0.11215,0.02746 -0.22419,0.05493 -0.33634,0.08224c-0.37079,0.14768 -0.65014,0.45371 -0.76973,0.85249c-0.26196,0.87321 0.52792,1.78816 1.41243,1.63028c0.74341,-0.13293 1.40156,-0.89989 1.01646,-1.79475c-0.20691,-0.48086 -0.62302,-0.77465 -1.32282,-0.77026zM12.39852,2.99885c0.47619,-0.01303 0.50674,0.6254 0.1046,0.71031c-0.27271,0.0576 -0.49416,-0.21422 -0.40352,-0.47113c0.05173,-0.14658 0.15827,-0.17813 0.29892,-0.23918zM7.75748,3.61939c-0.14946,0.01507 -0.29903,0.02998 -0.44849,0.04488c-0.28885,0.0587 -0.56934,0.1108 -0.82203,0.20936c-1.25542,0.49012 -2.12494,1.36207 -2.61578,2.61727c-0.09888,0.25299 -0.15015,0.53359 -0.2092,0.82267c-0.13,0.6356 -0.01545,1.42297 0.14202,1.92172c0.41679,1.32064 1.2656,2.23842 2.48119,2.75946c0.30888,0.1323 0.64751,0.22207 1.02379,0.29913c0.14946,0.0124 0.29903,0.0248 0.44849,0.03735c0.14442,0.00251 0.28896,0.00502 0.43339,0.00738c0.33772,-0.05665 0.64968,-0.06168 0.94173,-0.14956c1.37466,-0.41306 2.34375,-1.29585 2.87727,-2.54995c0.42446,-0.99766 0.397,-2.37668 -0.02243,-3.35002c-0.66158,-1.53549 -2.02206,-2.67487 -4.22997,-2.66969zM7.89951,4.54674c1.67519,-0.03123 2.79156,1.01759 3.27335,2.19103c0.31929,0.77748 0.27157,1.8569 -0.04486,2.59483c-0.4192,0.97773 -1.2038,1.64221 -2.27943,1.9666c-0.24628,0.07439 -0.51292,0.06325 -0.7996,0.11221c-0.10471,-0.00502 -0.20931,-0.00989 -0.31391,-0.01491c-0.10712,-0.01004 -0.21423,-0.01993 -0.32135,-0.02998c-0.30865,-0.06513 -0.58422,-0.15066 -0.83702,-0.26177c-0.93201,-0.4093 -1.57665,-1.14675 -1.89079,-2.17596c-0.11856,-0.38827 -0.19947,-0.97412 -0.10471,-1.45828c0.04166,-0.21234 0.07656,-0.42515 0.14946,-0.61316c0.40329,-1.03878 1.08501,-1.71927 2.12254,-2.1237c0.2203,-0.08585 0.46886,-0.11739 0.72487,-0.16447c0.10712,-0.00753 0.21435,-0.01507 0.32146,-0.02244z" fill="#ffffff" fill-opacity="1"></path></g></g></svg>