<?xml version="1.0" encoding="UTF-8"?>
<svg id="SVGDoc" width="18" height="18" xmlns="http://www.w3.org/2000/svg" version="1.1" xmlns:xlink="http://www.w3.org/1999/xlink" xmlns:avocode="https://avocode.com/" viewBox="0 0 18 18"><defs></defs><desc>Generated with Avocode.</desc><g><g><title>Shape 236 502</title><path d="M4.61087,-0.00021c0.23483,0.02352 0.46978,0.04645 0.70461,0.06996c0.23701,0.32807 1.27533,4.36546 1.12747,4.81111c-0.14259,0.42978 -1.71947,1.50219 -1.58546,1.79087c0.59887,1.92609 3.07114,4.212 4.61529,5.30263c0.17132,0.12053 1.78528,1.20998 1.90258,1.15883c0.51659,-0.52679 1.03352,-1.05359 1.5501,-1.58038c0.79731,-0.23635 2.82257,0.4045 3.6993,0.63204c0.4882,0.12641 1.07563,0.07232 1.26835,0.49152c0.38189,0.6726 -0.36713,2.32178 -0.59887,2.70394c-1.09074,1.79733 -3.45394,3.35714 -6.3065,2.24711c-4.45747,-1.73325 -7.771,-4.7535 -9.86481,-8.84909c-1.24249,-2.42996 -1.75804,-4.80876 0.0705,-7.09291c0.51395,-0.64203 1.42159,-1.20234 2.29008,-1.47514c0.37571,-0.06996 0.75153,-0.14052 1.12736,-0.21048zM4.36425,1.15862c-0.88898,0.40391 -1.69178,0.49563 -2.25483,1.19411c-1.5073,1.86906 -1.11992,4.06678 0.03525,6.03932c2.05147,3.50354 4.64058,6.23511 8.52596,7.90133c0.65392,0.28045 1.57082,0.73669 2.57195,0.56207c1.83529,-0.3216 3.48839,-1.4822 3.55843,-3.51177c-1.12736,-0.234 -2.25494,-0.46859 -3.3823,-0.70259c-0.58708,0.57383 -1.17439,1.14707 -1.76147,1.7209c-0.58525,0.1705 -2.16671,-1.01831 -2.5367,-1.26407c-1.80176,-1.19822 -3.27839,-2.65867 -4.43916,-4.4948c-0.39356,-0.62263 -1.10916,-1.3552 -1.12747,-2.28238c0.38853,-0.73786 1.22898,-1.17647 1.72634,-1.82614c-0.23483,-1.11179 -0.46978,-2.22418 -0.70461,-3.33597c-0.0705,0 -0.14088,0 -0.21137,0z" fill="#f7f7f7" fill-opacity="1"></path></g></g></svg>