<?xml version="1.0" encoding="UTF-8"?>
<svg id="SVGDoc" width="61" height="61" xmlns="http://www.w3.org/2000/svg" version="1.1" xmlns:xlink="http://www.w3.org/1999/xlink" xmlns:avocode="https://avocode.com/" viewBox="0 0 61 61"><defs></defs><desc>Generated with Avocode.</desc><g><g><title>Shape 248 1</title><path d="M4.14035,4.00928c0,17.68465 0,35.37401 0,53.05866c13.57235,-0.03998 27.1487,-0.07937 40.72105,-0.11876c-0.05127,-3.25954 -0.67543,-8.79794 0.83107,-10.68287c0.77248,-0.21048 1.36459,-0.20754 2.13696,0c1.24798,1.69033 1.27865,11.02564 0.59361,13.76897c-2.24934,1.61566 -8.91209,0.712 -12.46571,0.712c-11.63338,-0.03939 -23.2703,-0.07878 -34.90379,-0.11876c-1.70425,-2.35529 -0.83107,-9.02253 -0.83096,-12.81945c0,-10.99801 0,-21.99955 0,-32.99814c-0.00011,-2.55225 -0.6514,-12.35262 0.35614,-13.65021c0.92274,-1.82791 7.78667,-0.94952 10.44743,-0.94952c9.37798,0 18.7587,0 28.13667,0c2.68845,0 8.33874,-0.7949 9.26022,1.06829c0.8662,1.61625 0.25543,13.49088 0.23746,16.3806c1.38908,-1.10298 2.90359,-3.86865 4.74873,-4.27315c1.33873,-0.29397 7.10266,5.44021 7.4794,6.40972c0.24822,0.6385 0.01991,1.23761 -0.11868,1.78028c-0.73654,0.56266 -1.12129,0.89778 -2.25574,0.83076c-1.89148,-0.9895 -2.97935,-3.01084 -4.63005,-4.27315c-0.07919,0 -0.15827,0 -0.23746,0c-6.44978,6.48851 -12.90161,12.97819 -19.35139,19.4667c0.6324,1.20939 1.55411,1.46573 1.06842,3.32363c-0.35603,0.23753 -0.71228,0.47447 -1.06842,0.712c-1.3575,0.58912 -2.19372,-0.65144 -2.84935,-1.18705c-1.17508,0.87368 -1.62666,2.38351 -1.78082,4.27315c4.04102,-0.54384 5.34473,-2.9691 7.59819,-5.22267c3.87783,-3.83749 7.75681,-7.67615 11.63452,-11.51363c1.86653,-1.86671 4.4276,-6.31154 7.71687,-5.10391c0.78129,1.47103 0.80795,4.03974 0.47493,6.05343c-1.44459,8.73385 -3.84853,8.30583 -9.26022,12.58192c-1.16432,0.92013 -1.13079,3.10256 -2.61189,3.67992c-3.41068,1.40929 -2.37179,-3.5053 -1.54335,-4.74821c1.9788,-2.96792 6.11835,-3.77164 8.07301,-6.76543c0.84721,-1.29758 1.01727,-2.8374 1.54335,-4.51068c-5.97496,5.93408 -11.95175,11.87051 -17.92683,17.80459c-2.13341,1.54393 -4.25056,0.70612 -7.00447,1.66211c-1.5667,0.54384 -1.9519,3.17135 -4.63005,2.61104c-0.83096,-0.3557 -1.66225,-0.712 -2.49321,-1.06829c-2.22862,1.91551 -5.25558,0.40156 -7.59808,0.11876c-2.09564,-0.25281 -3.368,1.99253 -5.93594,0.23753c-0.15678,-0.48387 -0.40123,-0.95246 -0.23746,-1.42458c0.38509,-2.31413 2.52766,-0.82018 3.44284,-2.25534c-1.71753,-4.32254 1.58443,-12.69657 6.41087,-11.6324c6.77113,1.49337 2.13501,9.39234 0,12.10745c0,0.03939 0,0.07878 0,0.11876c0.19787,0 0.39585,0 0.59361,0c2.53922,-0.90837 1.43463,-2.58576 3.08681,-3.44239c0.47482,-0.07937 0.94975,-0.15816 1.42456,-0.23753c1.36963,0.67966 1.34468,1.72266 1.66214,3.44239c2.3362,-1.72854 1.92055,-6.39209 3.68031,-8.66506c5.69801,-5.69714 11.39774,-11.39546 17.09576,-17.0926c-0.0396,-5.8159 -0.07919,-11.63299 -0.11868,-17.44889c-13.53287,0 -27.06963,0 -40.60238,0zM9.95761,9.46948c7.5182,0 15.03868,0 22.55688,0c2.46964,0 6.63197,-0.63968 7.4794,1.06829c1.73904,3.21897 -3.54996,2.73039 -6.05473,2.73039c-5.8168,0 -11.63521,0 -17.4519,0c-2.59918,0 -5.9269,0.33395 -7.4794,-0.71258c-0.26825,-0.83017 -0.34664,-1.33051 -0.11879,-2.25534c0.35614,-0.27692 0.71239,-0.55384 1.06853,-0.83076zM10.31375,17.89701c7.35992,0 14.72214,0 22.08206,0c2.2031,0 6.50059,-0.59206 7.36061,0.83135c0.7671,0.70847 0.49564,2.1889 -0.35614,2.61104c-1.15997,1.05594 -5.4364,0.47506 -7.4794,0.47506c-4.90665,0 -9.81468,0 -14.72134,0c-2.46883,0 -5.51731,0.23459 -7.59808,-0.23753c-0.69031,-0.85428 -1.08902,-1.35638 -0.71239,-2.72981c0.47493,-0.3169 0.94986,-0.63321 1.42467,-0.95011zM10.07629,26.44331c3.62251,-0.0535 16.19293,-0.80254 17.09576,1.30582c0.17349,0.60146 0.03193,1.12179 -0.11868,1.66211c-0.35614,0.27692 -0.71239,0.55384 -1.06853,0.83076c-5.34187,0 -10.68535,0 -16.02722,0c-0.39574,-0.35629 -0.79147,-0.71258 -1.18721,-1.06829c-0.20004,-1.64976 0.30602,-1.99841 1.30589,-2.73039zM16.48727,39.02582c-1.42902,1.36167 -2.16866,2.95146 -2.13696,5.8159c0.07908,-0.03939 0.15827,-0.07878 0.23735,-0.11876c0.53043,-1.04536 3.66955,-4.14615 1.8996,-5.69714z" fill="#051942" fill-opacity="1"></path></g></g></svg>