<?xml version="1.0" encoding="UTF-8"?>
<svg id="SVGDoc" width="61" height="61" xmlns="http://www.w3.org/2000/svg" version="1.1" xmlns:xlink="http://www.w3.org/1999/xlink" xmlns:avocode="https://avocode.com/" viewBox="0 0 61 61"><defs></defs><desc>Generated with Avocode.</desc><g><g><title>Shape 19</title><path d="M56.24016,39.10887c1.0429,-0.66261 2.34089,-1.4869 4.75983,-1.4869v3.63288c-1.39389,0 -2.0113,0.39157 -2.86572,0.93424c-1.04301,0.66261 -2.34089,1.4869 -4.75983,1.4869c-2.41894,0 -3.71681,-0.82429 -4.75971,-1.4869c-0.85453,-0.54267 -1.47194,-0.93424 -2.86572,-0.93424c-1.39378,0 -2.01107,0.39157 -2.86549,0.93424c-1.0429,0.66261 -2.34089,1.4869 -4.75983,1.4869c-2.41871,0 -3.71658,-0.82429 -4.75948,-1.4869c-0.85442,-0.54267 -1.4716,-0.93424 -2.86537,-0.93424c-1.39355,0 -2.01084,0.39216 -2.86503,0.93424c-1.0429,0.66261 -2.34077,1.4869 -4.75948,1.4869c-2.41882,0 -3.71658,-0.82429 -4.75948,-1.4869c-0.85442,-0.54267 -1.47171,-0.93424 -2.86537,-0.93424c-1.39378,0 -2.01096,0.39157 -2.86537,0.93424c-1.0429,0.66261 -2.34077,1.4869 -4.75948,1.4869c-2.41882,0 -3.71658,-0.82429 -4.7596,-1.4869c-0.8543,-0.54267 -1.47148,-0.93424 -2.86503,-0.93424v-3.63288c2.41859,0 3.71658,0.82488 4.75937,1.4869c0.85442,0.54267 1.4716,0.93482 2.86526,0.93482c1.39355,0 2.01084,-0.39216 2.86514,-0.93482c0.67577,-0.4292 1.46095,-0.92542 2.58659,-1.22174l-2.91092,-13.21454c-0.56133,-2.54872 0.93258,-5.11449 3.4013,-5.84119l1.80096,-0.52973v-11.52128h8.87741v-6.78071h12.50977v6.78071h8.87592v11.42603l2.13741,0.61499c2.54562,0.73257 4.04034,3.35067 3.40302,5.96054l-3.20469,13.11636c1.10218,0.29809 1.87511,0.78666 2.54219,1.21057c0.85453,0.54267 1.47194,0.93482 2.86572,0.93482c1.39389,0 2.01118,-0.39216 2.86572,-0.93482zM47.70241,23.9065c0.16994,-0.69612 -0.22877,-1.39459 -0.90786,-1.58979l-14.50836,-4.17496v3.12843l14.43295,6.66077zM27.81933,6.78039h5.36133v-3.14842h-5.36133zM18.94192,17.24984l11.55178,-3.39888l11.56288,3.32715v-6.76543h-23.11466zM14.56089,22.32083c-0.65872,0.19343 -1.05721,0.87779 -0.90729,1.55804l0.86678,3.93508l14.1917,-6.54436v-3.11314zM25.73948,39.10887c0.75027,-0.47682 1.63536,-1.03595 2.97237,-1.31228l0.00011,-12.53841l-13.39417,6.1769l1.38794,6.30037c1.52538,0.24752 2.49275,0.85839 3.30334,1.37343c0.85442,0.54267 1.47171,0.93482 2.86526,0.93482c1.39355,0 2.01084,-0.39216 2.86514,-0.93482zM44.3248,37.73015l1.51829,-6.21394l-13.55701,-6.25686l-0.00011,12.53665c1.33701,0.27692 2.2221,0.83605 2.9726,1.31287c0.8543,0.54267 1.4716,0.93482 2.86514,0.93482c1.39378,0 2.01118,-0.39216 2.86549,-0.93482c0.81642,-0.51856 1.79169,-1.13472 3.33561,-1.37872zM56.24016,47.77041c1.0429,-0.66202 2.34089,-1.4869 4.75983,-1.4869v3.63229c-1.39389,0 -2.0113,0.39216 -2.86572,0.93482c-1.04301,0.66261 -2.34089,1.4869 -4.75983,1.4869c-2.41894,0 -3.71681,-0.82429 -4.75971,-1.4869c-0.85453,-0.54267 -1.47194,-0.93482 -2.86572,-0.93482c-1.39378,0 -2.01107,0.39216 -2.86549,0.93482c-1.0429,0.66261 -2.34089,1.4869 -4.75983,1.4869c-2.41871,0 -3.71658,-0.82429 -4.75948,-1.4869c-0.85442,-0.54267 -1.4716,-0.93482 -2.86537,-0.93482c-1.39355,0 -2.01084,0.39274 -2.86503,0.93482c-1.0429,0.66261 -2.34077,1.4869 -4.75948,1.4869c-2.41882,0 -3.71658,-0.82429 -4.75948,-1.4869c-0.85442,-0.54267 -1.47171,-0.93482 -2.86537,-0.93482c-1.39378,0 -2.01096,0.39216 -2.86537,0.93482c-1.0429,0.66261 -2.34077,1.4869 -4.75948,1.4869c-2.41882,0 -3.71658,-0.82429 -4.7596,-1.4869c-0.8543,-0.54267 -1.47148,-0.93482 -2.86503,-0.93482v-3.63229c2.41859,0 3.71658,0.82488 4.75937,1.4869c0.85442,0.54267 1.4716,0.93482 2.86526,0.93482c1.39355,0 2.01084,-0.39216 2.86514,-0.93482c1.04301,-0.66202 2.34089,-1.4869 4.75971,-1.4869c2.41882,0 3.7167,0.82488 4.7596,1.4869c0.85442,0.54267 1.47171,0.93482 2.86526,0.93482c1.39355,0 2.01084,-0.39216 2.86514,-0.93482c1.04279,-0.66202 2.34077,-1.4869 4.75937,-1.4869c2.41882,0 3.7167,0.82488 4.75971,1.4869c0.8543,0.54267 1.4716,0.93482 2.86514,0.93482c1.39378,0 2.01118,-0.39216 2.86549,-0.93482c1.04301,-0.66202 2.34089,-1.4869 4.75983,-1.4869c2.41894,0 3.71681,0.82488 4.75971,1.4869c0.85453,0.54267 1.47194,0.93482 2.86572,0.93482c1.39389,0 2.01118,-0.39216 2.86572,-0.93482zM40.98919,56.43253c1.04301,-0.66261 2.34089,-1.4869 4.75983,-1.4869v3.63229c-1.39378,0 -2.01107,0.39216 -2.86549,0.93482c-1.0429,0.66261 -2.34089,1.4869 -4.75983,1.4869c-2.41871,0 -3.71658,-0.82429 -4.75948,-1.4869c-0.85442,-0.54267 -1.4716,-0.93482 -2.86537,-0.93482c-1.39355,0 -2.01084,0.39216 -2.86503,0.93482c-1.0429,0.66261 -2.34077,1.4869 -4.75948,1.4869c-2.41882,0 -3.71658,-0.82429 -4.75948,-1.4869c-0.85442,-0.54267 -1.47171,-0.93482 -2.86537,-0.93482v-3.63229c2.41882,0 3.7167,0.82429 4.7596,1.4869c0.85442,0.54267 1.47171,0.93482 2.86526,0.93482c1.39355,0 2.01084,-0.39216 2.86514,-0.93482c1.04279,-0.66261 2.34077,-1.4869 4.75937,-1.4869c2.41882,0 3.7167,0.82429 4.75971,1.4869c0.8543,0.54267 1.4716,0.93482 2.86514,0.93482c1.39378,0 2.01118,-0.39216 2.86549,-0.93482z" fill="#051942" fill-opacity="1"></path></g></g></svg>