<?xml version="1.0" encoding="UTF-8"?>
<svg id="SVGDoc" width="48" height="58" xmlns="http://www.w3.org/2000/svg" version="1.1" xmlns:xlink="http://www.w3.org/1999/xlink" xmlns:avocode="https://avocode.com/" viewBox="0 0 48 58"><defs></defs><desc>Generated with Avocode.</desc><g><g><title>Shape 18</title><path d="M42.57149,27.34834c2.9932,0 5.4285,2.40997 5.4285,5.3726v3.6758c0,2.96204 -2.4353,5.3726 -5.4285,5.3726h-2.00226c-0.09247,8.96491 -7.48901,16.23009 -16.56933,16.23009c-9.0802,0 -16.47686,-7.26518 -16.56921,-16.23009h-2.00226c-2.9932,0 -5.42862,-2.41055 -5.42862,-5.3726v-3.6758c0,-2.96263 2.43542,-5.3726 5.42862,-5.3726h2.00008v-5.03336c-1.49094,-1.78616 -5.34748,-6.7131 -5.34748,-9.87857c0,-3.14372 2.02652,-5.92056 5.04261,-6.90947l16.87626,-5.52723l16.87592,5.52723c3.01655,0.98892 5.04307,3.76576 5.04307,6.90947c0,3.16547 -3.85654,8.09241 -5.34748,9.87857v5.03336zM10.85705,25.36698c0,2.10718 1.73206,3.82102 3.86089,3.82102h18.56403c2.12883,0 3.86089,-1.71385 3.86089,-3.82102v-1.97372h-26.28582zM8.20133,8.74826c-1.60984,0.52797 -2.69176,2.01017 -2.69176,3.68815c0,1.53923 2.4876,5.1968 4.43539,7.56385h28.10955c1.94767,-2.36881 4.43584,-6.02815 4.43584,-7.56385c0,-1.67798 -1.08204,-3.16018 -2.69222,-3.68815l-15.79823,-5.17446zM5.42843,38.37633h2.00008v-7.63499h-2.00008c-1.10275,0 -1.99997,0.88838 -1.99997,1.97959v3.6758c0,1.09122 0.89722,1.97959 1.99997,1.97959zM23.9999,54.60642c7.24709,0 13.14297,-5.83472 13.14308,-13.007v-10.11728c-1.12049,0.69553 -2.44366,1.09886 -3.86089,1.09886h-18.56415c-1.41735,0 -2.7404,-0.40333 -3.86089,-1.09886v10.11728c0,7.17228 5.89588,13.007 13.14285,13.007zM44.57146,32.72093c0,-1.09122 -0.89722,-1.97959 -1.99997,-1.97959h-2.00008v7.63499h2.00008c1.10275,0 1.99997,-0.88838 1.99997,-1.97959zM18.5714,12.24886c0,-2.96204 2.4353,-5.3726 5.4285,-5.3726c2.99332,0 5.42862,2.41055 5.42862,5.3726c0,2.96263 -2.4353,5.3726 -5.42862,5.3726c-2.99332,0 -5.4285,-2.40997 -5.4285,-5.3726zM21.99993,12.24886c0,1.09122 0.89733,1.97959 1.99997,1.97959c1.10275,0 2.00008,-0.88838 2.00008,-1.97959c0,-1.09122 -0.89733,-1.97901 -2.00008,-1.97901c-1.10264,0 -1.99997,0.88779 -1.99997,1.97901z" fill="#051942" fill-opacity="1"></path></g></g></svg>