<?xml version="1.0" encoding="UTF-8"?>
<svg id="SVGDoc" width="18" height="18" xmlns="http://www.w3.org/2000/svg" version="1.1" xmlns:xlink="http://www.w3.org/1999/xlink" xmlns:avocode="https://avocode.com/" viewBox="0 0 18 18"><defs></defs><desc>Generated with Avocode.</desc><g><g><title>Shape 237 502</title><path d="M17.99995,17.99958c-0.46864,0 -0.9375,0 -1.40614,0c0.04852,-4.94928 -5.07374,-9.13953 -10.33539,-7.08115c-2.63145,1.02948 -4.85481,3.44945 -4.85126,7.08115c-0.46864,0 -0.9375,0 -1.40614,0c-0.05184,-3.43886 1.74488,-5.90057 3.76144,-7.32632c0.59704,-0.42214 1.80073,-0.7702 2.28504,-1.19234c-1.37192,-0.59911 -2.75299,-3.31892 -2.10926,-5.50371c0.54874,-1.86201 2.67918,-4.37428 5.41374,-3.92626c2.3188,0.3804 3.78067,1.45045 4.53495,3.36537c0.89836,2.28121 -0.30716,5.35908 -1.93348,6.0646c0.01167,0.02352 0.02346,0.04704 0.03513,0.07055c3.08739,0.62439 6.01604,4.58946 6.01135,8.44811zM8.64899,1.45318c-0.31643,0.07055 -0.63286,0.14052 -0.94917,0.21048c-1.10447,0.42978 -1.9994,1.31757 -2.35531,2.48934c-0.75886,2.49698 1.44962,5.30204 4.00749,4.87226c4.74724,-0.79725 4.53346,-7.63734 -0.70301,-7.57208z" fill="#f7f7f7" fill-opacity="1"></path></g></g></svg>