<?xml version="1.0" encoding="UTF-8"?>
<svg id="SVGDoc" width="16" height="16" xmlns="http://www.w3.org/2000/svg" version="1.1" xmlns:xlink="http://www.w3.org/1999/xlink" xmlns:avocode="https://avocode.com/" viewBox="0 0 16 16"><defs></defs><desc>Generated with Avocode.</desc><g><g><title>Shape 231 1</title><path d="M15.99992,7.999c0,4.41132 -3.58704,8.0001 -7.99805,8.0001c-1.62701,0 -3.13602,-0.48387 -4.40094,-1.32169l-3.07503,0.98304l0.99701,-2.97263c-0.95901,-1.3164 -1.52298,-2.93853 -1.52298,-4.68882c0,-4.4119 3.58692,-8.0001 7.99793,-8.0001h0.00401c4.41101,0 7.99805,3.58938 7.99805,8.0001zM12.79386,10.18614c-0.05699,-0.09877 -0.21194,-0.15522 -0.44701,-0.2728c-0.23495,-0.117 -1.37798,-0.68201 -1.59393,-0.75727c-0.21206,-0.07996 -0.41405,-0.05174 -0.57404,0.17403c-0.22499,0.31455 -0.44598,0.63498 -0.62496,0.82841c-0.14099,0.14992 -0.37102,0.16874 -0.56408,0.08878c-0.25898,-0.10818 -0.98293,-0.36217 -1.87592,-1.15707c-0.69202,-0.61557 -1.16203,-1.38342 -1.29799,-1.61331c-0.13607,-0.23459 -0.01408,-0.37099 0.09396,-0.49799c0.11799,-0.14522 0.23003,-0.24929 0.34801,-0.38569c0.11799,-0.1364 0.18402,-0.20695 0.25898,-0.36687c0.07999,-0.1558 0.023,-0.31514 -0.03399,-0.43331c-0.05596,-0.11818 -0.52597,-1.26642 -0.71903,-1.7309c-0.15495,-0.37099 -0.27294,-0.3851 -0.508,-0.3951c-0.07999,-0.00412 -0.16891,-0.00882 -0.26802,-0.00882c-0.3059,0 -0.62496,0.08995 -0.81791,0.28691c-0.23506,0.23988 -0.81802,0.79901 -0.81802,1.94726c0,1.14766 0.83702,2.25769 0.94997,2.41349c0.11799,0.15404 1.63204,2.54284 3.983,3.51765c1.83804,0.76138 2.38403,0.69083 2.80197,0.60146c0.611,-0.13229 1.37707,-0.58441 1.57001,-1.12826c0.19306,-0.54678 0.19306,-1.01126 0.13699,-1.11062z" fill="#ffffff" fill-opacity="1"></path></g></g></svg>