<?xml version="1.0" encoding="UTF-8"?>
<svg id="SVGDoc" width="62" height="61" xmlns="http://www.w3.org/2000/svg" version="1.1" xmlns:xlink="http://www.w3.org/1999/xlink" xmlns:avocode="https://avocode.com/" viewBox="0 0 62 61"><defs></defs><desc>Generated with Avocode.</desc><g><g><title>Shape 16</title><path d="M61.99998,27.71781v6.58023c-0.01717,0.89602 -0.68516,1.63683 -1.57574,1.72266l-3.61382,0.34453c-0.42812,1.46456 -1.02757,2.87679 -1.78116,4.22082l2.31205,2.808c0.56522,0.68907 0.51384,1.70561 -0.10265,2.3253l-4.60728,4.63414c-0.61649,0.62028 -1.60995,0.67202 -2.295,0.10348l-2.79167,-2.32589c-1.33598,0.75844 -2.7404,1.34403 -4.21326,1.7744l-0.34252,3.66933c-0.08572,0.89602 -0.82214,1.56804 -1.71272,1.56804h-5.82321v4.1344c0,0.94717 -0.77076,1.72266 -1.71272,1.72266c-0.94196,0 -1.71272,-0.77549 -1.71272,-1.72266v-11.02564h-15.75691v2.65337c0,3.42769 -2.84306,6.14985 -6.2685,6.14985h-3.73375c-3.42533,0 -6.2685,-2.70452 -6.2685,-6.14985v-20.56909c0,-2.34294 0.9763,-4.58241 2.67185,-6.18454l1.2846,-1.20587c0,-0.01705 0.01705,-0.05115 0.01705,-0.06879l5.13817,-13.95359c0.90775,-2.44642 3.21991,-4.08266 5.82321,-4.09971h17.09278v-3.10138c0,-0.94717 0.77076,-1.72266 1.71272,-1.72266c0.94196,0 1.71272,0.77549 1.71272,1.72266v5.16858h5.82321c0.87341,0 1.60995,0.67143 1.69556,1.5504l0.34252,3.6517c1.4558,0.43096 2.87739,1.0336 4.19609,1.79145l2.79179,-2.3253c0.68504,-0.56854 1.69556,-0.5168 2.31216,0.12053l4.55578,4.63414c0.61661,0.63733 0.66799,1.61919 0.10277,2.30825l-2.31216,2.79095c0.77076,1.34344 1.3702,2.77331 1.79832,4.25492l3.64803,0.34453c0.87353,0.08584 1.55857,0.82664 1.5929,1.70561zM12.82816,48.25162h-6.57681c-0.9763,0.01764 -1.95248,-0.18932 -2.84317,-0.60264v3.23837c0,1.53335 1.31882,2.70511 2.84317,2.70511h3.73363c1.54152,0 2.84317,-1.17176 2.84317,-2.70511zM32.0104,31.88631v-6.71839h-25.45074l-1.54152,1.46456c-1.01051,0.94717 -1.59279,2.2912 -1.60995,3.68639v11.74881c0,1.5504 1.31882,2.73863 2.84317,2.73863h25.75905v-5.16799h-5.36076c-0.94196,0 -1.71272,-0.77491 -1.71272,-1.72266c0,-0.94717 0.77076,-1.72266 1.71272,-1.72266h5.36076v-0.86133h-5.36076c-0.94196,0 -1.71272,-0.77491 -1.71272,-1.72266c0,-0.94717 0.77076,-1.72266 1.71272,-1.72266zM26.90656,21.72258c-0.75359,-2.75626 -3.30551,-4.9093 -6.3541,-4.9093c-3.04871,0 -5.61768,2.15304 -6.37127,4.9093zM32.0104,8.2858h-17.09278c-1.16467,0 -2.19223,0.72317 -2.6033,1.82614l-4.28181,11.61064h2.63763c0.82203,-4.6512 4.94968,-8.35522 9.88232,-8.35522c4.93252,0 9.04301,3.70402 9.86515,8.35522h1.59279zM35.43584,38.27781c1.64417,0.58559 3.45966,0.58559 5.10384,0c3.99067,-1.41282 6.08013,-5.82296 4.67571,-9.83683c-1.40442,-4.01387 -5.78888,-6.11517 -9.77955,-4.70293zM58.55737,32.73059v-3.46238l-3.32268,-0.31043c-0.75359,-0.06879 -1.37009,-0.60264 -1.5414,-1.34344c-0.41107,-1.92962 -1.18172,-3.75576 -2.26078,-5.392c-0.42812,-0.63733 -0.37674,-1.46456 0.10277,-2.05015l2.10663,-2.56695l-2.36355,-2.39409l-2.51759,2.1013c-0.58239,0.4827 -1.38737,0.53444 -2.02103,0.12053c-1.64417,-1.0677 -3.45966,-1.84319 -5.37792,-2.27356c-0.71938,-0.15522 -1.26743,-0.77549 -1.33587,-1.5163l-0.32547,-3.29011h-4.26464v9.80214c1.6785,-0.39627 3.40828,-0.39627 5.08678,0c5.94303,1.41223 9.64256,7.42451 8.23814,13.4021c-1.40453,5.97818 -7.36473,9.69866 -13.32493,8.28643v9.83624h4.28181l0.3083,-3.30716c0.06844,-0.7408 0.59944,-1.36108 1.33587,-1.5163c1.91826,-0.41332 3.73375,-1.18882 5.36076,-2.27356c0.61661,-0.43096 1.4558,-0.37922 2.03819,0.10289l2.53475,2.10189l2.39777,-2.41173l-2.08946,-2.5499c-0.47962,-0.58559 -0.53101,-1.39518 -0.11993,-2.03251c1.07906,-1.65388 1.84971,-3.48002 2.27795,-5.40905c0.1712,-0.72375 0.78781,-1.27465 1.52424,-1.34403zM20.70661,32.05857v7.40746c0,0.94776 -0.77076,1.72266 -1.71272,1.72266h-10.61886c-0.94196,0 -1.71261,-0.77491 -1.71261,-1.72266v-7.40746c0,-0.94717 0.77065,-1.72266 1.71261,-1.72266h10.61886c0.94196,0 1.71272,0.77549 1.71272,1.72266zM17.28117,33.78124h-7.19341v3.96213h7.19341z" fill-opacity="1"></path></g></g></svg>
