<?xml version="1.0" encoding="UTF-8"?><svg viewBox="0 0 71 61" xmlns="http://www.w3.org/2000/svg" xmlns:xlink="http://www.w3.org/1999/xlink"><style>:root>svg{display:none}:root>svg:target{display:block}</style><svg viewBox="0 0 69 43" id="about-01" xmlns="http://www.w3.org/2000/svg"><path d="M1.3.002a23.408 23.408 0 014.064.322c2.935.484 5.716.65 8.226 1.419 1.278.39 2.947.807 3.548 1.869.305.538.095 1.485 0 2.127h11.484l1.13-.87c1.094-.735 3.76-2.14 5.774-1.837.964.145 1.846.172 2.677.419 3.794 1.124 6.99 3.257 10.807 4.32-.709-1.871 1.577-2.289 2.806-2.677 2.189-.688 4.572-1.157 7.065-1.643L63.107 3l2.742-.097h2c.416.123.81.456.968.838.18.439.096 1.217.096 1.805V24.5c0 1.614.349 5.707-.355 6.575-.434.536-1.378.452-2.355.452h-5.645c-.763 0-1.913.14-2.42-.162-.764-.456-.572-1.432-1.064-2.16L54.85 30.72c.346 3.299-1.702 5.54-4.872 5.512-.581 2.102-3.238 3.322-6 3.03-.56 1.76-3.705 3.919-6.225 2.773-2.027 1.935-6.387.549-8.194-.58-3.145-1.966-5.914-4.524-8.839-6.737-2.362-1.787-4.987-3.665-6.839-5.964l-2.032-2.095-.065.032c-.104.704-.417 1.497-.935 1.805-.433.258-1.33.162-2 .161H4.235c-1.056 0-2.88.241-3.549-.225-1.001-.698-.613-4.68-.612-6.447V5.772c0-1.076-.203-4.415.16-5.029C.49.313.825.226 1.3.002zM2.944 3v22.789h6.129l1.226-3.933c.894-2.886 1.566-5.782 2.387-8.767.698-2.54 1.334-5.24 1.645-8.09-3.28-.962-7.25-1.922-11.387-2zm63.097 25.657V5.772c-5.207-.07-9.675 1.07-13.71 2.16 2.92 6.567 5.122 13.64 7.613 20.725h6.097zM34.945 5.933l-.935.129c-.474.16-.947.322-1.42.483-2.535 1.114-5.502 4.223-6.968 6.479-.308.475-2.046 3.434-1.032 4.126 1.034.706 3.01.387 3.903-.16a5.783 5.783 0 001.452-1.323l.806-1.063c.39-.287.949-.22 1.517-.355l1.516-.58c.486-.21 1.638-.909 2.322-.774.847.168 1.18.87 1.742 1.322l2.613 2.256 7.323 5.931 2.258 2.03c.882.71 3.041 2.648 3.484 3.644l2.645-1.709-1.387-4.029-2.161-6.092-1.871-4.77-2.871-1.065c-2.156-.853-4.263-1.617-6.355-2.514-2.024-.868-3.714-1.923-6.581-1.966zm-18.29 2.675l-.807 3.675c-.606 2.401-1.102 4.716-1.806 7.027l-1.259 4.255 5.162 5.222c3.115 2.502 6.175 5.068 9.42 7.445 2.196 1.61 4.09 3.892 7.774 3.868v-.031l-.13-.162c-.54-.26-1.422-1.335-1.838-1.805l-4.162-4.287c-.507-.703-.162-1.739.42-2.095 1.323-.81 2.283.788 2.87 1.386 1.481 1.505 2.87 3.217 4.517 4.545l1.742 1.612c1.296.793 2.545-.635 2.935-1.45l-1.516-1.451-4.838-4.964c-.654-.811-1.069-2.113.225-2.644 1.262-.517 1.984.784 2.516 1.354l3.549 3.61 2 1.966.935.71c1.311.522 2.66-.512 3-1.354l-2.451-2.385-4.807-4.9c-.697-.699-2.238-2.207-.645-3.19 1.32-.815 2.652 1.037 3.194 1.707l4.226 4.255 2.774 2.708c.594.392 1.455-.108 1.806-.387 1.88-1.496-1.312-4.374-2.129-5.19-2.735-2.732-5.898-5.156-8.968-7.542-1.651-1.284-3.118-2.837-4.774-4.094l-1.806.774-1.355.322c-.381.207-.887 1.128-1.29 1.45-1.286 1.03-3.255 2.32-5.84 1.774-.982-.209-1.971-.474-2.612-1.032-1.132-.986-1.563-2.908-.968-4.803.785-2.498 2.314-4.064 3.71-5.899h-8.775z" fill="#ffc600"/></svg><svg viewBox="0 0 54 56" id="about-02" xmlns="http://www.w3.org/2000/svg"><path d="M26.665 0c3.461-.052 4.527 2.411 6.426 3.934.468.375.762.938 1.396 1.154.652.221 2.012-.115 2.633-.236 2.217-.433 4.68-.732 6.295.393 1.782 1.241 1.88 2.762 2.422 5.218.238 1.074.183 2.638.764 3.41.415.549 1.285.772 1.896 1.127 1.895 1.1 4.179 1.79 5.083 3.88 1.138 2.63-.59 5.193-1.527 7.028-.314.614-.855 1.25-.843 2.125.01.723.47 1.287.737 1.809l.843 1.783c.58 1.202 1.564 2.647 1.08 4.563-.673 2.66-2.827 3.317-4.925 4.536-.728.423-1.85.708-2.344 1.364-.514.683-.474 2.001-.684 2.963-.433 1.973-.515 3.522-1.58 4.851-1.472 1.836-4.04 1.793-6.848 1.259-.692-.132-2.29-.531-3.002-.289-.79.27-1.4 1.132-1.95 1.679-1.476 1.47-2.637 2.98-5.187 3.409-1.035.173-2.072-.257-2.66-.603-1.497-.882-2.45-2.276-3.766-3.33-.468-.376-.762-.939-1.396-1.155-.667-.227-1.657.065-2.265.184-1.773.347-4.27.78-5.846.105-2.641-1.13-2.653-3.098-3.319-6.11-.197-.894-.15-2.102-.58-2.806-.467-.766-1.663-1.065-2.448-1.52C2.82 39.418.62 38.768.066 35.741c-.32-1.742.603-3.007 1.132-4.065l.843-1.783c.277-.542.929-1.276.764-2.15-.104-.552-.427-1.017-.659-1.468l-.921-1.94C.603 22.93-.503 21.3.303 19.221c.863-2.224 2.823-2.857 4.767-3.986.728-.423 1.85-.707 2.343-1.364.491-.651.457-1.884.659-2.806.442-2.017.516-3.647 1.606-5.008 1.522-1.899 4.167-1.76 7.032-1.233.688.127 2.099.49 2.818.263.634-.2.933-.783 1.396-1.154l2.87-2.753A5.633 5.633 0 0125.822.13l.843-.13zm.079 3.252c-2.636 1.233-3.581 4.262-6.663 5.035-1.06.266-2.345.007-3.318-.184l-2.055-.262c-.824-.157-1.776-.299-2.37.158-.744.571-.686 1.909-.921 2.989-.48 2.197-.517 4.009-1.87 5.35-1.088 1.077-2.857 1.675-4.214 2.464-.736.428-1.627.63-1.949 1.469-.364.949.352 1.841.658 2.438.816 1.59 1.689 2.987 2.028 5.01.26 1.54-.831 2.932-1.264 3.906l-.842 1.783c-.347.68-.999 1.688-.422 2.596.437.688 1.471.95 2.186 1.364 1.66.963 3.626 1.607 4.609 3.251.757 1.268.824 3.323 1.185 4.957.224 1.016.185 1.974.922 2.464.659.439 1.817.186 2.633.027 1.623-.318 4.23-.767 5.715-.184 1.893.743 2.97 2.562 4.45 3.75.514.411.921 1.291 2.029 1.075.922-.18 1.512-1.06 2.08-1.626 1.293-1.286 2.541-2.897 4.583-3.409.938-.235 2.083-.038 2.95.131l2.422.341c1.046.204 2.104.236 2.634-.446.49-.631.46-1.815.658-2.727.443-2.027.555-4.015 1.765-5.244 1.113-1.132 2.908-1.75 4.319-2.57.79-.46 1.748-.66 2.001-1.652.244-.957-.46-1.768-.763-2.36-.794-1.546-1.645-2.913-1.976-4.878-.26-1.547.807-2.909 1.238-3.88l.843-1.784c.29-.568.964-1.427.606-2.333-.332-.839-1.207-1.039-1.95-1.469-1.555-.902-3.64-1.573-4.687-2.99-.986-1.333-1.079-3.516-1.501-5.428-.225-1.016-.185-1.974-.922-2.464-.66-.439-1.817-.186-2.634-.027-1.621.318-4.23.767-5.714.184-1.537-.603-2.896-2.227-4.003-3.33-.667-.664-1.132-1.503-2.476-1.495zm-6.61 10.2c4.281-.063 7.751 3.92 5.873 8.26-.92 2.123-2.581 3.161-5.241 3.593-1.02.166-2.037-.27-2.687-.55-2.168-.937-4.306-3.767-3.265-7.08.576-1.835 1.872-3.174 3.608-3.855.512-.201 1.144-.146 1.712-.367zm17.408 2.256c1.168-.01 2.198.98 1.685 2.229-.204.497-.67.825-1.027 1.18l-1.87 1.888-14.669 14.58-4.372 4.353c-.578.408-1.493.36-2.027-.053-.526-.406-.77-1.432-.343-2.124l4.293-4.326 12.22-12.142 3.265-3.251c.677-.674 1.358-1.63 2.186-2.124l.659-.21zm-17.382.996l-.685.184a2.793 2.793 0 00-1.553 1.73c-.571 1.903 1.179 3.837 3.107 3.41 3.124-.693 2.907-5.376-.869-5.324zm13.089 13.95c4.178-.063 7.562 4.029 5.715 8.287-.884 2.037-2.541 3.15-5.083 3.566-.984.162-1.974-.186-2.607-.446-2.408-.987-4.751-4.052-3.371-7.552a6.062 6.062 0 013.502-3.487l1.265-.315.579-.052zm-.079 3.252c-1.16.473-1.87.607-2.265 1.862-.581 1.849 1.017 3.827 2.95 3.488 3.25-.57 3.09-5.401-.685-5.35z" fill="#ffc600"/></svg><svg viewBox="0 0 40 53" id="about-03" xmlns="http://www.w3.org/2000/svg"><path d="M30.002 6.602h4.963c.838 0 1.887-.105 2.57.099.657.197 1.289.588 1.67 1.069.302.38.562.853.698 1.391.16.628.075 1.52.075 2.262V45.942c0 3.737.412 6.412-2.843 7.033L9.203 53h-3.94l-2.37-.025C1.477 52.705.537 51.83.15 50.539c-.262-.87-.1-2.24-.1-3.28v-6.685-22.018-6.561c0-1.913-.074-3.16.773-4.225.381-.48 1.013-.872 1.67-1.07.676-.2 1.714-.098 2.545-.098h4.988c-.011-.99-.09-2.094.324-2.66.733-1.002 3.253-.682 4.963-.67.187-.695.629-1.178 1.022-1.666 2.322-2.877 7.485-1.626 8.38 1.665 1.706-.015 4.234-.33 4.963.672.413.567.334 1.667.324 2.659zm-16.634 0v3.305H26.66V6.602c-1.643.004-3.947.307-4.663-.647-.264-.35-.224-.659-.325-1.217-.14-.777-.645-1.3-1.421-1.441-.36-.066-.689.057-.898.148-1.313.575-.664 2.101-1.646 2.834-.738.55-3.054.325-4.34.323zm-9.976 3.33v39.737h33.244V9.932h-6.634c.014 1.34.08 2.465-.698 3.007-.752.523-3.049.298-4.315.298H14.714c-1.347 0-3.308.232-4.09-.373-.692-.535-.609-1.69-.598-2.932H3.392zm14.789 9.916c1.365-.015 2.365 1.313 1.596 2.56l-5.86 5.864c-.478.475-1.31 1.67-2.295 1.541-.827-.108-1.16-.56-1.621-1.019l-2.095-2.087c-.321-.32-.733-.625-.973-1.02-.262-.43-.298-1.235-.025-1.689.22-.364.53-.596.973-.745 1.58-.536 2.92 1.847 3.816 2.534l5.611-5.592c.26-.11.566-.209.873-.347zm6.734 3.305h5.262c.917 0 1.907-.076 2.444.298.436.304.892 1.036.648 1.84-.134.443-.475.862-.873 1.043-.463.211-1.249.15-1.92.15H26.81c-.938 0-2.136.12-2.718-.25-.844-.533-1-2.054-.15-2.709.285-.218.59-.22.973-.372zm-6.61 9.94c1.16.135 2.263 1.212 1.522 2.486-.434.745-1.315 1.36-1.92 1.963l-4.04 4.026c-.526.523-1.193 1.697-2.37 1.491-.748-.13-1.085-.608-1.521-1.043L7.88 39.927c-.322-.32-.735-.623-.973-1.02-.323-.538-.198-1.407.125-1.838 1.584-2.114 3.743 1.257 4.664 1.963l5.586-5.567.424-.248.599-.125zm6.46 3.33h5.387c.868 0 1.89-.092 2.42.25.434.28.932.972.722 1.788a1.737 1.737 0 01-.997 1.169c-.45.183-1.176.124-1.796.124H26.91c-.96 0-2.188.123-2.793-.249-.81-.495-1.074-2.013-.225-2.684.258-.203.541-.246.873-.397z" fill="#ffc600"/></svg><svg viewBox="0 0 56 55" id="about-04" xmlns="http://www.w3.org/2000/svg"><path d="M54.577 32.478l-3.264.31a18.252 18.252 0 01-1.61 3.806l2.09 2.531c.51.622.463 1.539-.094 2.098L47.54 45.4a1.538 1.538 0 01-2.074.093l-2.521-2.097a17.78 17.78 0 01-3.806 1.6l-.31 3.308a1.55 1.55 0 01-1.546 1.414h-5.26v3.728c0 .854-.696 1.553-1.547 1.553-.85 0-1.547-.7-1.547-1.553v-9.941H14.696v2.392c0 3.09-2.568 5.545-5.662 5.545H5.662C2.568 51.443 0 49.004 0 45.898V27.352c0-2.112.882-4.131 2.413-5.576l1.16-1.087c0-.016.016-.047.016-.062l4.64-12.582a5.656 5.656 0 015.26-3.696h15.44V1.553C28.928.7 29.623 0 30.474 0c.85 0 1.547.699 1.547 1.553v4.66h5.26c.789 0 1.454.605 1.531 1.398l.31 3.292c1.314.389 2.599.932 3.79 1.616l2.521-2.097a1.544 1.544 0 012.089.108l4.115 4.179c.556.574.603 1.46.092 2.081l-2.088 2.517a17.407 17.407 0 011.624 3.836l3.295.31A1.614 1.614 0 0156 24.991v5.933a1.578 1.578 0 01-1.423 1.554zM3.078 45.882c0 1.382 1.192 2.439 2.568 2.439H9.02c1.392 0 2.568-1.057 2.568-2.439v-2.376h-5.94a5.87 5.87 0 01-2.569-.544zM28.913 7.471h-15.44c-1.05 0-1.98.652-2.35 1.646L7.255 19.586h2.383c.742-4.194 4.47-7.533 8.925-7.533 4.456 0 8.168 3.34 8.91 7.533h1.44zM12.809 19.586h11.494c-.68-2.485-2.986-4.427-5.74-4.427-2.753 0-5.074 1.942-5.754 4.427zM28.913 35.74H24.07a1.555 1.555 0 010-3.107h4.842v-.776H24.07a1.555 1.555 0 010-3.107h4.842v-6.057H5.925l-1.392 1.32a4.645 4.645 0 00-1.455 3.324V37.93c0 1.398 1.192 2.47 2.568 2.47h23.267zm3.094-1.227a6.906 6.906 0 004.61 0c3.604-1.274 5.491-5.25 4.223-8.87a6.92 6.92 0 00-8.833-4.24zm20.884-8.124l-3.002-.28a1.566 1.566 0 01-1.392-1.211 14.199 14.199 0 00-2.042-4.862 1.544 1.544 0 01.093-1.848l1.903-2.314-2.135-2.16-2.274 1.896a1.53 1.53 0 01-1.825.108 14.92 14.92 0 00-4.858-2.05 1.55 1.55 0 01-1.207-1.367l-.294-2.966h-3.851v8.837a9.976 9.976 0 014.594 0c5.368 1.274 8.71 6.695 7.44 12.084-1.268 5.39-6.651 8.745-12.034 7.472v8.868h3.867l.278-2.982a1.533 1.533 0 011.207-1.367 14.083 14.083 0 004.842-2.05 1.53 1.53 0 011.84.094l2.29 1.895 2.166-2.175-1.887-2.299a1.545 1.545 0 01-.108-1.833 14.758 14.758 0 002.057-4.876 1.583 1.583 0 011.377-1.212l2.955-.28zm-45.326.963h9.59c.852 0 1.548.7 1.548 1.553v6.68c0 .854-.696 1.553-1.547 1.553H7.565c-.851 0-1.547-.7-1.547-1.554v-6.679c0-.854.696-1.553 1.547-1.553zm1.547 6.679h6.497v-3.572H9.112z" fill="#ffc600"/></svg><svg viewBox="0 0 47 51" id="about-05" xmlns="http://www.w3.org/2000/svg"><path d="M25.022 3.02v2.123c3.149.019 6.065 1.105 8.318 2.077 6.167 2.66 10.621 7.83 12.697 14.51.765 2.462 1.304 6.246.71 9.354-.251 1.308-.456 2.552-.833 3.723-2.284 7.102-7.33 12.047-14.19 14.7-1.507.584-3.147.874-4.916 1.218-3.97.77-8.907-.214-11.719-1.313-6.61-2.583-11.068-7.113-13.675-13.603-.58-1.444-.84-3.032-1.175-4.725-.149-.752-.039-1.5-.171-2.315-.116-.718-.071-1.74.049-2.41l.196-1.91c.381-1.87.789-3.585 1.467-5.154l1.175-2.387.636-1.002L2 14.355c-.385-.779-1.21-1.472-.954-2.888.32-1.772 1.483-2.545 2.544-3.58.604-.589 1.14-1.24 2.006-1.575.622-.239 1.683-.34 2.422-.119 1.107.331 2.432 1.546 3.058 2.363.839-.393 1.619-.958 2.495-1.336 2.369-1.022 5.14-1.99 8.392-2.077V3.019c-.997.014-2.458.157-3.083-.238-.874-.553-.863-2.023.025-2.554.51-.305 1.507-.214 2.324-.214h4.844c1.08-.001 1.935-.038 2.397.548l.294.597c.095.347-.012.756-.123.978-.557 1.119-1.962.903-3.62.883zm-1.688 5.059l-2.3.143c-1.544.262-2.998.486-4.306.978-6.105 2.3-10.15 6.303-12.501 12.267-.453 1.148-.684 2.438-.93 3.77-.55 2.987.012 6.406.759 8.734 1.894 5.912 6.02 10.129 11.62 12.434 1.404.578 2.944.992 4.649 1.312.704.133 1.386.082 2.152.192l2.031.023c1.779-.263 3.348-.358 4.844-.811 6.124-1.855 10.584-5.923 12.966-11.431 1.993-4.607 1.999-10.515.049-15.154-2.86-6.806-9.318-12.35-19.033-12.457zm-16.465.978c-.883.473-1.534 1.353-2.226 2.028-.21.205-.646.443-.538.931.077.352 1.002 1.195 1.296 1.408.673-.599 1.238-1.351 1.884-1.98l1.272-1.122c-.286-.376-1.073-1.259-1.688-1.265zm16.073 1.814c8.649-.134 14.37 4.886 16.832 10.81 1.62 3.902 1.625 8.995-.05 12.863-2.063 4.77-5.876 8.3-11.18 9.904-.913.276-1.89.427-2.91.597l-1.615.12-1.59-.049-1.762-.167c-1.502-.288-2.85-.675-4.086-1.193-4.851-2.034-8.29-5.738-9.908-10.93-.59-1.892-1.012-4.766-.562-7.183.214-1.152.414-2.273.807-3.27 1.987-5.03 5.422-8.534 10.569-10.476 1.071-.404 2.252-.632 3.498-.86l1.957-.166zM9.12 26.526c1.473-.024 2.649-.117 3.107.859.08.17.212.443.171.716-.226 1.506-1.515 1.434-3.303 1.408.311 1.201.37 2.31.783 3.341 1.646 4.112 4.509 6.869 8.734 8.472.963.366 2.126.69 3.352.764-.025-1.427-.123-2.575.831-3.055.177-.09.47-.226.759-.19 1.578.19 1.495 1.497 1.468 3.245 1.683-.068 3.18-.657 4.428-1.194 3.56-1.532 6.12-4.272 7.584-7.851.299-.731.498-1.543.685-2.363l.171-1.169c-1.782.03-3.084.096-3.303-1.408-.045-.314.11-.631.22-.812.566-.924 1.577-.786 3.058-.763.029-1.69-.806-3.604-1.418-4.773-1.684-3.215-4.149-5.484-7.682-6.897-1.073-.429-2.35-.823-3.743-.907.026 1.576.104 3.384-1.566 3.246-1.607-.133-1.519-1.52-1.492-3.246-1.247.05-2.455.413-3.425.788-3.751 1.448-6.286 3.73-8.05 7.112-.645 1.238-1.362 2.915-1.37 4.677zm16 .62c1.617-.023 3.074-.185 3.547.931.106.25.181.695.073 1.026-.422 1.294-2.135 1.05-3.865 1.05-.762 0-1.63.07-2.104-.214-.82-.491-.734-1.54-.734-2.84v-4.415c0-.668-.11-1.587.098-2.1a1.59 1.59 0 011.003-.907c.723-.215 1.402.17 1.688.548.361.48.294 1.357.294 2.196v4.726z" fill="#ffc600"/></svg><svg viewBox="0 0 44 50" id="about-06" xmlns="http://www.w3.org/2000/svg"><path d="M22.04 0l21.95 4.772v15.04c0 4.965.192 9.948-1.254 13.382-2.403 5.707-6.986 8.407-12.021 11.515L22.039 50l-7.944-4.979c-5.212-3.224-10.06-5.904-12.543-11.826C-.893 27.367.278 12.948.297 4.772L22.04 0zm-.105 3.32L3.538 7.468v14.419c0 2.814-.222 5.934.418 8.194 1.902 6.719 7.3 9.353 12.648 12.656l5.644 3.423c6.828-4.053 15.595-7.72 18.084-16.079 1.046-3.515.418-8.969.418-13.174l-.105-9.543-18.71-4.046zm10.034 10.788l2.3 2.282-16.097 15.975-8.154-8.091 2.195-2.283 5.959 5.81 13.797-13.693z" fill="#ffc600"/></svg><svg viewBox="0 0 49 49" id="about-07" xmlns="http://www.w3.org/2000/svg"><path d="M48.983 11.578c.001.753.078 1.675-.138 2.228-.87 2.224-5.48 3.248-8.562 3.354v4.273c.153.41 1.186.78 1.652.942 1.914.668 4.47.687 7.048.689.003.746.086 1.683-.138 2.228-.673 1.638-3.568 2.775-5.693 2.986v12.107h2.135l3.696 3.721V49H.019v-4.917l3.718-3.698H5.85V28.278c-.553-.026-1.13-.22-1.607-.367C2.577 27.397.79 26.824.156 25.292c-.224-.542-.143-1.484-.137-2.228 3.186.038 7.182-.022 8.7-1.63V17.16C5.707 17.128.983 15.905.156 13.806c-.216-.55-.142-1.478-.137-2.228 4.33.06 7.198-.773 9.572-2.596.518-.398 1.776-1.49 1.997-2.09V4.089L9.66 3.606c-1.026-.308-2.053-.493-3.007-.872L7.548 0c1.497.361 3.031.889 4.591 1.286 5.44 1.386 13.34 2.218 19.581.965 2.588-.52 5.06-.866 7.392-1.562.307-.092 2.316-.662 2.341-.643l.896 2.688c-.967.355-1.978.565-3.008.872l-1.928.483v2.78c.193.598 1.51 1.75 2.02 2.136 2.489 1.881 5.131 2.574 9.55 2.573zM14.458 4.709v2.94c-.17.583-.754 1.177-1.102 1.631-1.113 1.452-2.693 2.78-4.454 3.562l-1.928.78-.941.299 1.813.276c.758.06 1.516.122 2.273.183.803.015 1.607.03 2.41.047l8.333.023h11.639l5.9-.047 2.34-.16 2.227-.322-1.01-.322-1.86-.757c-1.758-.778-3.343-2.112-4.452-3.562-.35-.456-.93-1.047-1.102-1.63V4.71h-.023c-1.14.322-2.374.347-3.604.574-5.204.96-11.754.404-16.46-.575zm-2.87 12.59v2.894h25.825v-2.895H11.588zm-.505 5.765c-.863 1.242-2.648 2.204-4.5 2.412v.023l2.801.322 1.263.046c1.325.207 2.93.043 4.339.046l-.046-.07c-.642-.287-1.837-1.59-2.273-2.159l-.459-.62h-1.125zm5.004 0c.42.53 1.148.888 1.745 1.24 3.751 2.216 10.012 2.051 13.613-.16.495-.305 1.12-.628 1.469-1.08H16.087zm20.683 0c-.442.787-1.215 1.605-1.905 2.16l-.85.689 3.674-.023 1.584-.046c1.05-.163 2.15-.244 3.144-.345l-1.101-.275c-1.36-.428-2.703-1.063-3.398-2.16H36.77zM20.196 40.385h2.87V28.761c-1.018-.116-1.954-.321-2.87-.437v12.061zm5.74 0h2.869v-12.06l-1.24.252-1.63.184v11.624zM8.718 28.645v3.01h8.608v-2.848c-2.912.005-5.91-.03-8.608-.161zm22.955.162v2.849h8.609v-3.01c-2.7.117-5.696.158-8.609.161zM8.72 34.55v5.835h8.608V34.55H8.719zm22.955 0v5.835h8.609V34.55h-8.609zM2.888 46.128h9.55l2.846-2.871H4.908L2.888 45.3v.827zm16.46-2.871c-.95.956-1.899 1.914-2.847 2.871h16l-2.847-2.871H19.347zm26.765 2.871v-.85l-2.043-2.021H33.717l2.87 2.871h9.526z" fill="#ffc600"/></svg><svg viewBox="0 0 58 60" id="about-08" xmlns="http://www.w3.org/2000/svg"><path d="M9.695 21.325h17.077l-.81-1.855c-.38-.969-.54-2.057-.753-3.188-.402-2.14.086-4.64.637-6.202C27.458 5.508 30.55 2.2 35.224.718c8.463-2.684 15.38 2.617 17.742 8.318.63 1.519 1.475 4.418 1.071 6.783-.216 1.265-.34 2.447-.752 3.506l-.869 2c1.292-.008 4.932-.285 5.384.435.32.51.145 1.817.145 2.58v32.548c0 .747.17 1.939-.087 2.521-.36.811-2.07.55-3.213.55H7.872c-1.47 0-3.296.163-4.458-.202-3.95-1.242-3.386-4.97-3.386-10V26.456v-5.362c0-1.804-.115-3.711.521-4.869 1.21-2.201 2.685-2.637 6.078-2.637.937 0 2.452-.202 2.866.347.317.422.202 1.424.202 2.145v5.246zm29.06-19.303l-1.245.145c-.965.202-1.891.43-2.72.783-3.527 1.498-6.03 4.227-7.207 8.086-.442 1.449-.753 3.695-.377 5.507.262 1.256.585 2.352 1.042 3.391.741 1.684 2.014 3.276 3.387 4.347.457.357 2.005 1.196 2.228 1.594l2.721 9.68c.446 1.487.69 2.491 2.113 2.986.244.085.664.224 1.013.174 2.465-.355 2.567-2.133 3.213-4.29l2.373-8.492c.169-.36 2.178-1.604 2.634-1.97 1.47-1.183 2.636-3.01 3.387-4.898.324-.817.506-1.721.694-2.667.39-1.955-.006-4.304-.52-5.767-1.453-4.13-4.311-6.919-8.597-8.203-1.203-.36-2.57-.408-4.14-.406zm7.612 6.724c.991-.032 2.17.037 1.91 1.188-.173.771-.93.815-1.91.783v1.13c.842.172 1.486.994 1.766 1.74.348.929.144 2.59.144 3.767l-.028 1.624a3.37 3.37 0 01-.637 1.333c-.737.934-2.564 1.359-3.792.58-1.043-.663-1.352-1.658-1.331-3.42h-5.79c.013.782.022 1.546-.202 2.086-.714 1.73-3.002 2.347-4.63 1.044-.357-.286-.69-.826-.84-1.305-.23-.735-.262-4.73-.029-5.506.29-.97.946-1.61 1.852-1.971v-1.102c-.98.032-2.178-.039-1.939-1.159.172-.805.927-.844 1.94-.812-.008-.738.23-1.193.52-1.623 1.106-1.64 3.359-1.275 6.02-1.275 3.535 0 6.784-.523 6.976 2.898zM34.79 11.645h9.638c.012-1.087.268-3.176-.376-3.652-.385-.285-1.32-.174-1.969-.174h-4.862c-.67 0-1.684-.123-2.084.174-.624.463-.359 2.604-.347 3.652zm-1.94 3.884h1.91v-1.942c-1.652-.04-1.95.283-1.91 1.942zm3.85-1.942v1.942h5.789v-1.942h-5.79zm7.728 0v1.942h1.91c.04-1.667-.25-1.981-1.91-1.942zM7.756 50.279V15.53c-2.218-.019-4.198-.161-5.152 1.072-.257.332-.47.78-.579 1.246l-.029 8.29v25.099c.441-.246.862-.554 1.39-.725 1.145-.371 2.895-.231 4.37-.232zM32.85 17.471c-.032.978.012 2.151 1.13 1.912.797-.17.813-.908.78-1.912h-1.91zm11.578 0c-.032.978.012 2.151 1.129 1.912.795-.17.813-.911.781-1.912h-1.91zM9.695 23.267v1.913h20.03l-.753-.753-.955-1.16H9.695zm46.282 34.75v-34.75h-3.56c-.317 0-1.084-.108-1.274.058l-.84 1.015-.839.84c1.143-.01 3.974-.244 4.429.377.292.4.173 1.391.173 2.057V53.497c0 .598.14 1.546-.058 2.029-.338.823-1.93.58-3.068.58H8.711c-3.33 0-4.83-.286-4.805-3.682-1.24.218-2.37 1.986-1.794 3.623a2.974 2.974 0 002.084 1.913l1.708.058h50.073zM9.695 27.123v3.855h6.715v-.087l-.752-3.768H9.695zm0 5.796v3.855H16.7c.863 0 2.222-.17 2.72.232.524.423.754 3.07.956 3.942.15.648.701 2.418.434 3.014-.343.764-1.75.55-2.837.55H9.695v1.914h8.394c.935 0 2.633-.229 3.213.203.493.367.476 1.453.637 2.145l1.1 5.39h3.791v-.087c-.264-.842-.865-3.13-.145-3.623.385-.263 1.222-.174 1.853-.174h4.312v-1.913h-4.978c-.695 0-1.625.105-2.026-.203-.55-.421-.546-1.892-.724-2.666-.18-.784-.71-2.232 0-2.753.477-.35 2.438-.174 3.271-.174h8.625c1.16 0 3.014-.269 3.445.492.291.516.115 2.373.115 3.16v7.941h1.91V45.73c0-.994-.211-2.553.377-2.985.48-.352 1.83-.174 2.605-.174h6.657v-3.855h-8.712c-1.209 2.106-4.716 2.485-6.773.927-1.318-.998-1.6-2.538-2.142-4.347l-2.286-8.173H30.91v8.52c0 1.057.217 2.56-.463 2.957-.485.283-2.259.116-3.01.116-.86 0-2.984.185-3.473-.174-.557-.408-.647-2.213-.84-3.043l-1.679-8.376h-3.82v.028l.84 4.087c.127.538.168 1.143-.203 1.45-.453.373-1.63.232-2.432.231H9.695zm19.277 3.855v-9.651h-5.557v.028l1.939 9.623h3.618zm23.155-7.738v-1.913h-5.152v.058l-.52 1.855h5.672zm0 3.883v-1.941h-6.223l-.52 1.941h6.743zm0 3.855V34.86h-7.294l-.52 1.913h7.814zM9.695 38.715v3.855h9.03v-.087l-.752-3.768H9.695zM28.451 52.25l.376 1.913h9.812v-9.651H26.888v.029l.376 1.884h5.326c.916 0 1.752-.09 2.084.493.243.426.116 1.408.116 2.028 0 .88.196 2.389-.203 2.927-.322.435-1.032.377-1.795.377h-4.341zm15.977-7.738v9.651h7.699v-9.651h-7.7zm4.689 1.913c1.304-.038 1.418 1.708.318 1.941-.973.207-1.451-.946-.955-1.594.148-.193.394-.242.637-.347zM9.695 48.366c.011.952.19 3.2-.29 3.623-.579.513-2.531.273-3.56.261-.009.72-.059 1.409.348 1.71.566.42 3.052.203 4.052.203h10.796v-.087l-1.157-5.71H9.695zm39.509 1.913c1.239.123 1.32 1.793.115 1.971-.779.115-1.34-.888-.897-1.536.183-.267.446-.308.782-.435z" fill="#ffc600"/></svg><svg viewBox="0 0 71 48" id="about-09" xmlns="http://www.w3.org/2000/svg"><path d="M14.61.022h18.945c3.2 0 6.264-.329 7.606 1.557 1.629 2.288.868 11.97.83 15.994 1.35-.222 3.371.225 4.01 0 .967-.83 1.396-3.493 3.457-2.69l.83.708v.991c-3.109 4.695-2.859 2.928-8.297 3.963-.094 1.967-.713 3.453-1.936 4.247-1.957 1.268-16.134.616-19.913.566-.8 1.127-6.435 6.71-7.744 6.227l-.83-.707-.138-9.059c-4.72 2.282-3.409 4.51-6.084 8.21.658 2.058 1.237 6.47-.277 7.643l-2.35.99.414 2.265c1.4.357 2.208 1.765 2.35 3.397h.554c.524-3.99 2.364-2.31 2.35-5.803.737-2.416 3.79-4.797 5.809-1.982l1.52 3.539h.416c.598-1.299 1.42-2.713 3.18-2.406l.692.85c.334 1.676-2.732 5.217-5.117 4.245-1.89-.77-2.171-2.843-3.042-4.67h-.415l-.138.424-.277 3.256c-.44 1.195-1.615.88-2.212 1.698-1.012 1.386.337 3.107-2.49 3.68-3.016.61-2.717-1.875-3.733-3.397L.644 42.484c-.74-1.184-.92-4.947-.138-5.803.513-.776 1.751-.903 2.765-1.132.046-.095.092-.19.139-.283-.447-1.485-1.502-5.668-.83-6.795L4.1 27.34l.276-2.972c.03-.07 3.064-3.88 3.181-3.963l2.35-.85c.814-.595.59-1.658 1.66-2.123-.047-3.455-.825-13.039.415-15.286C12.58 1.065 13.59.683 14.61.022zm.692 2.689l-.83.566-.138 23.78 4.84-4.388h3.734c3.984 0 13.393.925 16.04-.567.8-3.033.751-15.285.139-18.683l-.83-.566-22.955-.142zm35.4 38.924c-.269-5.553 3.951-7.212 6.223-2.831 6.577-1.203 4.056-1.072 5.67 4.246l.83-.707.83-1.699v-.991l-1.245-3.114c-.282-1.66 1.435-2.939.691-4.388l-.553-.424-.968-.283c-1.079.873-1.735 1.562-3.734 1.557-4.752-2.254-1.087-9.865 2.49-10.758 2.91-.725 4.394 2.107 7.052 2.549v-.708c-2.217-4.281-8.352-5.042-4.01-11.04-.187-2.032-1.664-2.843-2.075-4.53-.27-1.11.199-1.86 0-2.406l-.83-.424-.276.141c-.498 1.143-1.865 2.512-3.319 2.69-.276-.19-.553-.378-.83-.567l-.276-.85c1.202-3.317 5.853-6.165 8.297-2.122.513.849.205 2.117-.138 2.83 2.367 2.002 2.74 6.299.415 8.352l.276.566c.768 1.596 9.415 7.959 4.01 10.615-2.761 1.59-5.572-1.981-7.605-2.406-1.206 1.022-3.623 2.973-2.49 5.379 2.342-1.855 6.542-2.228 7.33 1.557.422 2.027-1.033 3.103-.692 4.67.312 1.434 1.708 2.63 1.107 4.813-.627 2.275-5.055 7.376-7.053 3.114-.478-1.021-.113-2.327-.138-3.539-3.061.582-4.196.76-5.808-1.84h-.138c-.337 1.736.052 4.248-1.383 4.954-2.454 1.26-5.986 2.534-9.265 1.84l-1.521-2.406-.553.141c-.209 1.883-1.115 4.108-3.457 3.68l-1.798-.566-1.66 1.132c-2.226.65-4.975-1.18-5.53-2.405-.274-1.008.128-1.322.69-1.84 1.727.036 2.447 1 3.872 1.556 1.79-1.051 2.712-1.257 4.979-.707.371-2.197 2.022-5.02 4.84-3.539 1.024.54 1.122 1.952 2.35 2.265.679-.195 1.9.037 2.49-.142 1.02-.31 1.065-1.347 2.903-1.415zM26.642 5.4l1.244.566 1.797 3.397c1.374.002 3.613.342 4.149 1.275l.277.99-2.766 3.256c.173 1.134.706 3.025.276 4.104l-.691.85c-1.992-.076-2.682-1.24-4.425-1.557-.897.713-2.343 1.458-3.734 1.557-.443-.23-.579-.262-.83-.708-.542-1.037.073-3.011.139-4.53l-2.628-2.83.139-.99c.6-1.195 2.994-1.277 4.425-1.558.45-1.544 1.379-3.04 2.627-3.822zm0 4.388l-.969 1.84-2.212.566c.973 1.234 1.51 1.674 1.244 3.964 1.677-.886 2.22-.599 4.01-.142-.138-2.257.265-2.55 1.245-3.822-2.142-.602-2.076-1.086-3.319-2.406zm27.794 1.84c.82.059 1.02.25 1.521.566.046.094.092.19.139.283l-.139 1.133-.276.566-1.107.283c-.442-.23-.579-.261-.83-.708-.219-.335-.25-.512-.276-1.132l.277-.566.691-.425zm-29.73 27.6l.829.142c.505.234.596.338.83.85v.99l-.83.708h-.968l-.692-.85v-.99l.83-.85z" fill="#ffc600"/></svg><svg viewBox="0 0 12 17" id="address" xmlns="http://www.w3.org/2000/svg"><path d="M10.8 10.12L6 16.998l-4.807-6.887C-.601 7.738-.34 3.824 1.757 1.744A5.983 5.983 0 016 0c1.602 0 3.11.62 4.242 1.744 2.098 2.08 2.358 5.994.558 8.376zM8.245 5.898a2.184 2.184 0 00-2.19-2.172c-1.207 0-2.19.974-2.19 2.172 0 1.198.983 2.174 2.19 2.174 1.208 0 2.19-.976 2.19-2.174z" fill="#fff"/></svg><svg viewBox="0 0 35 35" id="calculator" xmlns="http://www.w3.org/2000/svg"><path d="M3.807.06H22.91c2.778 0 6.399-.39 8.012.824 1.519 1.142 1.643 2.975 1.643 5.696v8.304c0 .987.217 2.497-.411 2.883-.16.144-.35.213-.548.137-.37-.076-.48-.175-.616-.48l-.068-11.187c0-1.287.099-2.66-.411-3.432-.986-1.49-3.922-1.098-6.368-1.098H8.737c-2.007 0-4.996-.361-6.163.549-1.162.906-.89 3.222-.89 5.285l.068 14.755c.205.705.855 1.387 1.507 1.648.783.313 2.207.137 3.218.137h8.422c1.066 0 2.34-.1 3.013.274.182.51.114.848-.137 1.236-2.526.622-7.534.137-10.476.137-1.55 0-3.511.194-4.656-.274A4.37 4.37 0 01.315 23.12C-.157 21.952.04 19.957.04 18.384V7.61c0-1.965-.196-4.258.547-5.49C1.364.833 2.321.685 3.807.059zM3.67 3.08l25.403.068c.519.397.836 4.664.274 5.354-.441.608-4.6.343-5.82.343H8.668c-1.018 0-4.803.264-5.34-.138-.243-.18-.507-4.367-.275-5.078.1-.306.374-.382.617-.55zm.958 1.647v2.47h23.28v-2.47H4.629zm0 6.04c1.168-.015 2.687-.122 3.63.137.218.64.391 3.115-.138 3.5-.717.404-3.01.197-3.766 0-.309-.923-.302-3.107.274-3.638zm6.368 0c.99-.034 3.309-.285 3.698.343.274.62.195 3.006-.206 3.294-.717.404-3.01.197-3.766 0-.251-.792-.244-2.528-.068-3.432l.342-.206zm6.368 0c1.168-.015 2.686-.122 3.63.137.275.834.286 2.942-.138 3.569-1.067.149-2.807.171-3.766-.07-.252-.791-.244-2.527-.068-3.431l.342-.206zm8.833 7c1.46-.088 1.55.402 2.397.617.364.093.856-.304 1.437-.274.753.039.969.555 1.438.686l.548-.205c1.062-.21 1.994.47 2.328 1.029.658 1.099.868 8.983.411 10.294-.29.83-1.125 1.493-1.37 2.197-.472 1.363-.045 2.104-1.232 2.676-.779.376-2.46.138-3.492.138l-4.245-.07c-.603-.23-1.206-.846-1.37-1.509v-1.235l-1.712-1.648a13.659 13.659 0 01-1.985-3.43c-1.005-2.575-.823-5.473 2.533-5.423-.058-2.775-.6-8.72 1.096-9.677.451-.254 1.283-.249 1.78-.069 1.872.679 1.493 3.373 1.438 5.903zM5.381 11.933l.069 1.441 1.78-.068v-1.373H5.381zm6.368 0v1.441l1.85-.068v-1.373h-1.85zm6.368 0l.069 1.441 1.78-.068v-1.373h-1.849zm3.698 11.324c-.678-.022-.931.104-1.301.343-.92 3.268 2.552 5.738 3.766 7.413.345.476.151 1.83.616 2.196.776.426 5.787.232 6.71 0l.274-1.784 1.233-1.785c.68-1.665.303-4.617 0-6.52-.157-.982.062-2.118-.343-2.814l-.137-.069c-.309.015-.369.05-.547.138.044.732-.003 1.151-.48 1.372-.249.12-.29.087-.616.069-.177-.118-.233-.145-.342-.343-.284-.386-.239-1.333-.48-1.716-.473-.02-.64.005-.821.275-.26.724-.092 1.23-.48 1.715-.507.067-.818.059-1.027-.343-.29-.422-.187-1.515-.41-1.922-.238-.085-.469-.192-.754-.068-.62.298-.45 1.2-.548 1.99l-.41.275c-.288.133-.414.082-.754 0-1.24-1.84.484-6.33-.616-8.305l-.274-.068-.41.137c-1.099 2.554 1.328 11.798-1.644 12.08l-.616-.482c.02-.924.384-.85.41-1.784zM4.56 17.423c1.13-.021 2.991-.22 3.766.206.177.87.22 2.787-.137 3.432-.956.193-3.184.261-3.903-.137v-3.157l.274-.344zm6.3 0c1.199-.025 3.157-.224 3.902.275.023 1.02.19 2.692-.205 3.363-1.013.206-3.295.25-3.972-.206-.028-.94-.243-2.903.274-3.363v-.069zm6.367 0c1.147-.021 3.046-.227 3.835.206.177.87.22 2.787-.137 3.432-1.013.206-3.295.25-3.972-.206-.025-1.103-.173-2.763.274-3.432zM5.381 18.591v1.372h1.85V18.59H5.38zm6.368 0v1.372h1.85V18.59h-1.85zm6.368 0v1.372h1.849V18.59h-1.849z" fill="#f7f7f7"/></svg><svg viewBox="0 0 25 25" id="car-assessment" xmlns="http://www.w3.org/2000/svg"><path d="M12.5 0C19.403 0 25 5.596 25 12.5 25 19.403 19.403 25 12.5 25 5.596 25 0 19.403 0 12.5 0 5.596 5.596 0 12.5 0zM1.976 12.5c0 5.812 4.711 10.524 10.524 10.524 5.812 0 10.524-4.712 10.524-10.524 0-5.813-4.712-10.525-10.524-10.525-5.813 0-10.524 4.712-10.524 10.525zM15.56 7.15c2.125-.036 3.81 1.818 2.955 4.068-.348.915-1.174 1.528-1.796 2.175l-3.796 3.926c-.434.321-1.184.697-2.024.544-1.318-.24-1.912-1.115-2.682-1.916-.916-.953-2.005-1.679-2.273-3.31-.316-1.923 1.676-3.655 3.5-3.17.858.229 1.208.783 1.796 1.254l2.978-3.05c.397-.292.837-.296 1.342-.52zm.09 1.987c-1.025.592-2.096 1.968-2.932 2.837-.31.322-.658.875-1.068 1.065-1.13.52-1.796-1.392-2.592-1.632-.797-.24-1.466.598-1.136 1.371.124.294.45.516.659.733l1.773 1.845c.217.226.482.631.977.544.67-.118 1.074-.81 1.478-1.23l2.75-2.861c.38-.396 1-.822 1.205-1.372.312-.832-.382-1.314-1.113-1.3z" fill="#051942"/></svg><svg viewBox="0 0 29 29" id="car-auction" xmlns="http://www.w3.org/2000/svg"><path d="M13.561 0h.944c.869.35 1.998 1.305 2.253 2.247.098.364-.15 1.026 0 1.276l5.42 5.376c.312-.046.777-.164 1.157-.06 1.014.277 2.795 1.971 2.162 3.493-.32.766-1.148 1.327-1.706 1.883l-3.623 3.645c-.378.297-1.056.64-1.796.456-.811-.203-2.082-1.49-2.284-2.309-.095-.385.116-.848.03-1.124l-.79-.82h-.123l-5.571 6.318-2.406 2.734c-.524.651-1.076 1.4-1.766 1.883-1.51 1.06-3.757.526-4.689-.668-.88-1.13-1.086-2.875-.213-4.192.415-.625 1.094-1.115 1.675-1.58L4.7 16.402l6.85-6.014v-.091l-.882-.85c-.314.013-.74.157-1.127.06-.67-.168-1.778-1.211-2.07-1.762-.708-1.331.298-2.302.974-2.976L12.343.85l.7-.607c.161-.097.404-.1.518-.243zm.366 1.7l-3.654 3.646c-.374.373-1.237.909-1.34 1.488l.975 1.002.243-.03 1.431-1.397 2.466-2.46c.35-.349.829-.675 1.066-1.124-.076-.487-.685-.814-.974-1.124h-.213zm1.644 3.13l-3.502 3.553 5.176 5.164 3.563-3.554c-.263-.568-1.055-1.082-1.492-1.519L15.693 4.83h-.122zm7.155 5.68l-3.684 3.675c-.357.355-1.215.877-1.279 1.458.234.317.684.957 1.157 1.002l4.993-4.951-.03-.243-.914-.942h-.243zm-9.987 1.062l-1.614 1.458v.061l1.401 1.367h.122l1.4-1.64c-.146-.256-1.028-1.173-1.309-1.246zm-2.984 2.613l-6.79 5.953c-.706.669-1.953 1.689-.943 3.037.583.78 1.91.889 2.71.244l6.698-7.625c-.243-.325-1.32-1.495-1.675-1.61zm11.966 4.586c1.132-.034 1.035.794 1.035 1.883 0 .376.049.847-.091 1.094-.111.196-.407.385-.67.425-.995.153-.944-.985-.944-1.883 0-.412-.033-.86.122-1.124.114-.193.353-.278.548-.395zm-3.988.577c.299-.006.528.004.7.122.512.35 1.432 2.936.304 3.25-1 .278-1.117-.903-1.309-1.488-.1-.308-.446-.766-.335-1.215.09-.364.354-.494.64-.669zm7.916 0c1.58-.064.912 1.42.64 2.218l-.275.82c-.127.183-.51.451-.913.334-1.345-.391-.075-2.928.548-3.372zm-7.003 4.526c2.125-.013 6.681-.357 7.764.577.43.371.759.94.883 1.61l.03 1.185c1.099-.038 1.712.048 1.675 1.154-.209.13-.315.434-.548.546H18.067c-1.139 0-3.597.412-3.227-1.063.257-1.023 1.22-.32 1.675-.698l.06-1.337c.337-1.295 1.002-1.427 2.07-1.974zm.335 1.67c-.614.288-.933.725-.73 1.702l7.337-.03c.01-.629.05-1.226-.305-1.49-.371-.275-1.221-.181-1.857-.181h-4.445z" fill="#051942"/></svg><svg viewBox="0 0 23 23" id="car-bought" xmlns="http://www.w3.org/2000/svg"><path d="M1.561 1.512v20.005l15.354-.044c-.02-1.23-.255-3.318.313-4.028.291-.08.515-.079.806 0 .47.637.482 4.157.224 5.191-.848.61-3.36.269-4.7.269L.398 22.86c-.643-.888-.314-3.402-.314-4.834V5.584c0-.962-.246-4.657.134-5.146C.566-.252 3.154.08 4.158.08h10.608c1.014 0 3.144-.3 3.492.402.326.61.096 5.087.09 6.176.523-.415 1.094-1.458 1.79-1.61.505-.112 2.678 2.05 2.82 2.416.093.24.007.467-.045.671-.278.213-.423.34-.85.314-.714-.373-1.124-1.136-1.746-1.612h-.09l-7.296 7.34c.238.456.586.553.403 1.253l-.403.269c-.512.222-.827-.246-1.074-.448-.443.33-.614.9-.672 1.612 1.524-.205 2.015-1.12 2.865-1.97l4.387-4.34c.704-.705 1.67-2.38 2.91-1.925.294.554.304 1.523.178 2.282-.544 3.293-1.45 3.132-3.491 4.744-.44.347-.426 1.17-.985 1.388-1.286.531-.894-1.322-.582-1.79.746-1.12 2.307-1.423 3.044-2.552.32-.489.384-1.07.582-1.7l-6.76 6.713c-.804.582-1.602.266-2.64.627-.591.205-.736 1.195-1.746.984l-.94-.403c-.84.723-1.982.152-2.865.045-.79-.095-1.27.751-2.238.09-.06-.183-.151-.36-.09-.537.146-.873.953-.31 1.299-.85-.648-1.63.597-4.788 2.417-4.387 2.553.563.805 3.542 0 4.565v.045h.223c.958-.343.541-.975 1.164-1.298l.538-.09c.516.257.507.65.626 1.298.881-.651.724-2.41 1.388-3.267l6.446-6.444-.045-6.58H1.561zM3.754 3.57h8.505c.932 0 2.501-.241 2.82.403.656 1.214-1.338 1.03-2.282 1.03h-6.58c-.98 0-2.235.125-2.82-.27-.102-.312-.131-.5-.046-.85.135-.104.27-.208.403-.313zm.135 3.178h8.326c.83 0 2.45-.223 2.775.313.29.267.187.825-.134.985-.438.398-2.05.179-2.82.179H6.485c-.931 0-2.08.088-2.865-.09-.26-.322-.41-.511-.268-1.03l.537-.357zm-.09 3.222c1.366-.02 6.106-.302 6.446.493.066.226.012.423-.045.626-.134.105-.268.21-.403.313H3.754L3.307 11c-.076-.623.115-.754.492-1.03zm2.417 4.744c-.538.514-.817 1.113-.805 2.193l.09-.044c.2-.395 1.383-1.564.715-2.149z" fill="#051942"/></svg><svg viewBox="0 0 25 29" id="car-customs" xmlns="http://www.w3.org/2000/svg"><path d="M12.373 0c.573-.01 1.006.248 1.453.408l2.56.87c.491.175 1.279.315 1.653.611.188.149.26.413.374.64l.733 1.521c.187.384.958 1.645.84 2.134-.149.616-1.268 1.36-1.653 1.876v2.338c.301.062.538.27.746.434 1.202.954 1.203 2.975 0 3.928-.217.173-.467.388-.787.449-.075 1.44-.815 2.513-1.493 3.37-.236.3-.596.486-.84.775v.014l2.827.965 2.706.924c1.437.627 2.483 1.746 3.08 3.235.325.811.427 1.718.427 2.908 0 .608.038 1.138-.294 1.4-.319.253-.963.19-1.533.19H1.921c-.59 0-1.295.073-1.627-.19-.323-.256-.293-.752-.293-1.345 0-1.097.07-1.977.346-2.746.555-1.548 1.602-2.757 3.04-3.398l3.293-1.155 2.36-.802-.027-.04c-.304-.147-.608-.502-.813-.762-.69-.874-1.387-1.884-1.493-3.343-.32-.06-.57-.277-.787-.449-1.098-.872-1.268-2.882-.107-3.832.243-.199.496-.455.854-.53V8.046l-.56-.57c-.323-.33-.973-.807-1.093-1.292-.11-.442.193-.835.333-1.114l1.12-2.297c.179-.358.294-.778.626-.979L12.373 0zm.08 1.753L8.107 3.235l-1.254 2.61 1 1.005h9.306l.987-1.02-1.253-2.595-1.307-.435-2.08-.707c-.316-.113-.688-.325-1.053-.34zm-.067 1.7c1.18-.033 1.24 1.505.24 1.698-.615.12-1.12-.492-.933-1.1.113-.366.357-.453.693-.599zM9.12 8.548c.519.698 1.379 1.264 2.293 1.55 1.836.573 3.716-.527 4.466-1.55H9.12zm-.787 1.63c-.001.721.062 1.345-.36 1.632-.484.33-.942-.03-1.226.652-.041.1-.106.246-.08.408.163 1.027 1.12.512 1.533 1.142.194.296.114.868.2 1.277.136.648.36 1.22.68 1.685.354.515.82.954 1.36 1.278l.906.422a.93.93 0 01.32.557v.217l.827 1.685h.013v-.026l.827-1.659c.084-.3.011-.412.173-.625.248-.326.84-.43 1.187-.652.6-.383 1.08-.922 1.44-1.55.23-.401.379-.888.48-1.413.07-.369-.004-.881.16-1.156.398-.667 1.397-.152 1.56-1.182.07-.441-.279-.785-.56-.883-.264-.093-.549-.042-.747-.177-.42-.287-.36-.911-.36-1.631l-.52.462a6.948 6.948 0 01-1.653.952c-.349.14-.737.216-1.133.298-1.64.342-3.31-.38-4.2-1.019l-.827-.693zM10.4 20.687l-2.347.816 1.387 2.133 1.933-.978-.973-1.971zm4.186 0l-.96 1.984 1.933.965c.463-.71.925-1.422 1.387-2.133v-.014l-2.36-.802zM1.667 27.292h8.56l.84-2.556c-.475.15-1.485.965-2.027.857-.482-.097-.637-.491-.867-.843l-1.76-2.691-1.28.435c-.378.136-.755.237-1.106.394-1.51.676-2.368 2.141-2.36 4.404zm21.665 0c.03-2.284-.872-3.738-2.386-4.418l-1.08-.38-1.28-.435-1.76 2.69c-.23.353-.384.747-.867.844-.528.105-1.565-.702-2.026-.857l.84 2.556h8.56zm-10.84-1.55c-.163.517-.328 1.033-.492 1.55h1l-.507-1.55z" fill="#051942"/></svg><svg viewBox="0 0 30 17" id="car-lot" xmlns="http://www.w3.org/2000/svg"><path d="M0 0h30v17H0V0zM1.77 1.775v13.45h17.39v-2.117h1.757v2.116h7.31V1.775h-7.31v2.159h-1.757V1.775H1.771zm21.903 2.088h1.757v9.416h-1.757V3.863zm-19.26.383h7.423v1.775H4.414V4.246zM19.161 5.34h1.757v2.47h-1.757V5.34zm-2.685 4.076L4.414 9.402l.014-1.776 12.048.014v1.776zm2.685-.2h1.757v2.486h-1.757V9.217zm-2.685 1.705l-.014 1.79-12.048-.014.014-1.776h12.048z" fill="#051942"/></svg><svg viewBox="0 0 32 23" id="car-mileage" xmlns="http://www.w3.org/2000/svg"><path d="M.55 0C18.784.024 13.766-.024 32 0c.022 3.954-.145 13.448-.185 22.562-.703.478 1.711.358-24.94.358H3.795c-.948 0-2.836.255-3.388-.214l-.288-.215V7.306c0-2.162-.426-5.22.144-7.091L.55 0zm1.01 1.432l.072 16.474h15.983c.502-1.107 1.137-1.092 1.874-1.862.689-1.326 1.034-6.342 2.018-6.948l.505-.143c1.476.85 1.22 5.467 2.162 7.091l.072.072 1.225.645.721 1.146c7.327-.024-3.073-.048 4.254-.072V1.432h-2.452l-.072 5.014-.36.287c-1.774.415-.76-3.966-1.082-5.3h-2.09l-.072 3.223c-1.68 1.264-1.452-1.671-1.37-3.224h-2.162c.03 1.128.234 4.857-.36 5.229l-.504.143c-.231-.116-.302-.132-.433-.358-.705-.992.101-3.762-.216-5.014h-2.09c.035.98.261 3.057-.36 3.438-.172.114-.262.13-.577.144l-.433-.287-.144-3.295h-2.09c.016 1.59.268 3.832-.144 5.157l-.721.215c-.231-.116-.302-.132-.433-.358-.39-.538-.16-4.024-.144-5.014H9.975c.023 1.082.17 2.707-.216 3.438l-.721.144-.288-.144c-.374-.835-.026-2.423-.289-3.438h-2.09c.017 1.59.268 3.832-.144 5.157l-.72.215-.505-.286-.072-5.086H1.56zm20.235 11.389l-1.08 4.37c-.248.406-1.03.328-1.37.644v.072h5.045v-.072c-.42-.372-1.192-.23-1.441-.788-.509-1.138-.284-3.426-1.154-4.226zM1.56 19.34v2.149h28.886v-2.149H1.56z" fill="#051942"/></svg><svg viewBox="0 0 41 23" id="car-name" xmlns="http://www.w3.org/2000/svg"><path d="M4.618 2.295A4.962 4.962 0 018.838 0h14.474c1.552 0 3.022.708 3.966 1.927l4.057 5.244 6.76 1.828A3.923 3.923 0 0141 12.773v2.554c0 2.16-1.743 3.944-3.93 3.944h-.58c-.7 2.662-3.45 4.257-6.145 3.567-1.77-.457-3.158-1.82-3.612-3.567H14.775c-.698 2.662-3.448 4.257-6.144 3.567-1.77-.457-3.158-1.82-3.612-3.567H3.93C1.743 19.27 0 17.487 0 15.327v-2.913c-.009-1.532 4.618-10.12 4.618-10.12zm26.998 18.894c1.779 0 3.222-1.425 3.222-3.182s-1.443-3.182-3.222-3.182-3.222 1.425-3.222 3.182c-.009 1.748 1.434 3.173 3.222 3.182zm-21.714 0c1.779 0 3.222-1.425 3.222-3.182s-1.443-3.182-3.222-3.182S6.68 16.25 6.68 18.007c-.009 1.748 1.434 3.173 3.222 3.182zm-8.077-8.775v2.913h-.01c0 1.174.926 2.151 2.115 2.151h.962c.3-2.734 2.795-4.705 5.563-4.4 2.35.25 4.202 2.088 4.456 4.4h11.695c.3-2.734 2.795-4.705 5.564-4.4 2.35.25 4.202 2.088 4.456 4.4h.453c1.19 0 2.115-.977 2.115-2.151v-2.554a2.115 2.115 0 00-1.57-2.053l-7.07-1.909a.887.887 0 01-.48-.323l-4.23-5.476a3.222 3.222 0 00-2.532-1.219H8.838a3.135 3.135 0 00-2.686 1.452s-4.336 8.336-4.327 9.17z" fill="#051942"/></svg><svg viewBox="0 0 26 26" id="car-total" xmlns="http://www.w3.org/2000/svg"><path d="M0 0h19.433v13.252c2.513-.042 3.657.88 4.86 2.18l.025-.024.745-.616h.025c.136.24 1.008 1.09.903 1.244l-.916.751.208.628c.18.601.283 1.522.147 2.254-.413 2.217-1.572 3.659-3.396 4.446-.602.26-1.694.603-2.602.431V26H0V0zm1.527 1.552v22.896h16.366v-.246c-.46-.091-.906-.423-1.245-.665-1.114-.798-2.09-2.004-2.321-3.67H8.159v-1.54h6.12c0-.363.106-.708.195-.998.411-1.342 1.142-2.342 2.161-3.067.262-.186.566-.37.868-.505l.39-.148V1.552H1.527zM4.959 5.64c1.019-.012 1.084 1.38.146 1.552-.494.09-.984-.466-.842-.973.103-.371.353-.441.696-.58zm3.2.086h6.876v1.552H8.16V5.727zm-3.25 4.2c1.102-.029 1.147 1.421.135 1.552-.464.06-.943-.52-.77-1.023.11-.318.337-.395.636-.53zm3.25 0h6.876v1.552H8.16V9.927zm0 4.2h6.876v1.54H8.16v-1.54zM4.97 14.2c1.004.006 1.068 1.375.147 1.552-.503.096-.998-.463-.855-.973.105-.378.358-.44.708-.58zm14.645.59c-.251.097-.657.079-.916.16-.82.26-1.529.733-2.003 1.343a4.588 4.588 0 00-.782 1.527c-.582 1.957.537 3.699 1.6 4.46.328.234.729.433 1.148.566 2.383.754 4.323-.806 4.971-2.402.263-.647.445-1.772.171-2.574l-.036.037-3.8 3.19-3.272-2.636.952-1.207.037.037 2.26 1.81 3.163-2.672a1.909 1.909 0 00-.452-.505c-.804-.653-1.552-1.136-3.041-1.133zM4.922 18.488c1.075-.028 1.13 1.39.147 1.552-.481.078-.968-.518-.794-1.023.11-.321.34-.398.647-.53z" fill="#051942"/></svg><svg viewBox="0 0 25 25" id="car-year" xmlns="http://www.w3.org/2000/svg"><path d="M25 5.357V22.32C25 23.801 23.8 25 22.32 25H2.678A2.678 2.678 0 010 22.32V5.357c0-1.48 1.2-2.679 2.678-2.679h2.68V.892a.893.893 0 011.785 0v1.786h10.714V.892a.893.893 0 011.786 0v1.786h2.678c1.48 0 2.679 1.2 2.679 2.679zm-1.786 5.357H1.786V22.32c0 .493.4.893.892.893h19.643c.493 0 .893-.4.893-.893zm0-1.786V5.357c0-.493-.4-.893-.893-.893h-2.678V6.25a.892.892 0 01-1.786 0V4.464H7.143V6.25a.892.892 0 01-1.786 0V4.464H2.678c-.493 0-.892.4-.892.893v3.57zm-4.726 5.096l-7.143 7.142a.893.893 0 01-1.262 0L6.51 17.595a.893.893 0 011.263-1.263l2.94 2.94 6.512-6.51a.893.893 0 011.262 1.262z" fill="#051942"/></svg><svg viewBox="0 0 20 20" id="check-green" xmlns="http://www.w3.org/2000/svg"><path d="M9.894.001c4.844-.089 8.128 3.128 9.513 6.536.844 2.077.76 5.148-.084 7.151-1.187 2.814-3.281 4.816-6.262 5.836-.63.215-1.31.285-2.032.42l-.868.056-.729-.042-.966-.084c-.94-.199-1.773-.436-2.536-.784-2.689-1.225-4.526-3.303-5.478-6.27-.344-1.073-.604-2.698-.35-4.072.124-.667.217-1.32.434-1.903C1.656 3.84 3.656 1.75 6.63.603 7.284.351 8.008.226 8.774.085 9.147.057 9.52.03 9.894.001zm4.595 6.2l-4.034 3.667-1.05.951c-.165.133-.315.398-.533.462l-2.774-2.77H6.07l-1.64 1.65v.029l4.372 4.352h.042L16.1 7.936 14.924 6.65c-.107-.132-.264-.392-.435-.448z" fill="#46a501"/></svg><svg viewBox="0 0 15 22" id="city" xmlns="http://www.w3.org/2000/svg"><path d="M7.153.001c3.993-.07 6.241 2.135 7.348 5.073.565 1.501.686 3.947.178 5.625-.48 1.589-1.358 2.685-2.19 3.9L7.51 22l-.032-.016-1.606-2.377-3.244-4.839c-.674-.99-1.474-1.938-1.962-3.097-.737-1.747-.937-4.56-.211-6.512.398-1.072.908-1.903 1.54-2.712C2.777 1.445 4.192.664 5.548.252l1.022-.2.584-.05zm.032 1.256l-.405.033-1.006.202c-1.12.346-2.234.968-2.887 1.807-.494.635-.917 1.299-1.233 2.126-.629 1.646-.531 4.178.114 5.71.42.998 1.105 1.81 1.686 2.662l2.758 4.118 1.281 1.891.033-.016 1.379-2.043 2.757-4.118c.689-1.009 1.43-1.92 1.833-3.231.441-1.44.342-3.496-.114-4.822-.88-2.563-2.828-4.33-6.196-4.32zm.13 2.31c2.804-.044 5.14 2.66 3.925 5.625-.598 1.46-1.694 2.21-3.438 2.511-.655.114-1.316-.137-1.736-.318-1.494-.643-3.009-2.53-2.303-4.905.372-1.252 1.233-2.178 2.368-2.645l.762-.218.422-.05zm.049 1.256c-.265.105-.554.086-.795.184-.743.301-1.3.903-1.59 1.674-.699 1.861.97 4.062 2.79 3.767 1.158-.188 1.939-.747 2.336-1.708.872-2.11-.762-3.93-2.741-3.917z" fill="#051942"/></svg><svg viewBox="0 0 31 29" id="close" xmlns="http://www.w3.org/2000/svg"><defs><clipPath id="awa"><path d="M30.003.096L1.201 28.916" fill="#486ee4"/></clipPath><clipPath id="awb"><path d="M28.969 29.003L-.004.013" fill="#486ee4"/></clipPath></defs><path d="M30.003.096L1.201 28.916" fill="#0b37be"/><path d="M30.003.096L1.201 28.916" fill="none" stroke="#486ee4" stroke-miterlimit="20" stroke-width="2" clip-path="url(#awa)"/><g><path d="M28.969 29.003L-.004.013" fill="#0b37be"/><path d="M28.969 29.003L-.004.013" fill="none" stroke="#486ee4" stroke-miterlimit="20" stroke-width="2" clip-path="url(#awb)"/></g></svg><svg viewBox="0 0 16 12" id="email" xmlns="http://www.w3.org/2000/svg"><path d="M15.859 11.208l-5.29-5.209L15.86.791c.088.18.141.38.141.593v9.23c0 .213-.053.413-.141.594zM9.575 5.673l-1.606 1.52L.804.137C.987.052 1.19 0 1.406 0h13.188c.216 0 .419.053.602.138L9.575 5.673zM.14 11.208c-.088-.18-.141-.38-.141-.593V1.384C0 1.17.053.97.14.79L5.43 6zm7.496-3.036a.472.472 0 00.663 0l1.606-1.52 5.29 5.208a1.407 1.407 0 01-.602.14H1.406c-.216 0-.42-.054-.603-.14l5.29-5.208z" fill="#fff"/></svg><svg viewBox="0 0 20 13" id="form-email" xmlns="http://www.w3.org/2000/svg"><path d="M20 1.667v9.665c0 .92-.789 1.668-1.758 1.668H1.758C.788 13 0 12.25 0 11.332V1.667C0 .747.788 0 1.758 0h16.484C19.212 0 20 .748 20 1.667zM1.987 1.112l.235.185 7.08 5.593c.405.32.991.32 1.395 0l7.081-5.593.235-.185zm-.815 9.003l5.77-3.643-5.77-4.558zm17.644 1.328L12.12 7.214l-.672.531c-.419.331-.933.497-1.447.497a2.335 2.335 0 01-1.447-.497l-.672-.53-6.697 4.228a.58.58 0 00.574.445h16.484a.58.58 0 00.574-.445zm.012-9.529l-5.77 4.558 5.77 3.643z" fill="#051942"/></svg><svg viewBox="0 0 45 22" id="form-model" xmlns="http://www.w3.org/2000/svg"><path d="M44.196 18.069H41.76c-.384 2.228-2.37 3.93-4.755 3.93s-4.371-1.703-4.755-3.93H12.796c-.384 2.228-2.37 3.93-4.755 3.93-2.6 0-4.726-2.022-4.82-4.543-1.394-.364-3.22-1.385-3.22-3.513V9.288c-.003-.13-.013-.787.159-1.31a.831.831 0 01.045-.11l2.274-4.491a.285.285 0 01.016-.032C3.663 1.28 5.6 0 7.547 0h15.23c2.43 0 3.522 1.027 4.685 2.925l2.549 4.177h1.295c.26 0 6.39.01 9.343.832.253.07.491.146.717.228l.055.02C44.354 9.26 45 11.206 45 12.708v4.575c0 .433-.36.786-.804.786zm-7.19 2.36c1.772 0 3.215-1.411 3.215-3.146 0-1.733-1.443-3.144-3.216-3.144-1.773 0-3.217 1.41-3.217 3.144 0 1.735 1.444 3.145 3.217 3.145zm-28.965 0c1.773 0 3.216-1.411 3.216-3.146 0-1.733-1.443-3.144-3.216-3.144-1.774 0-3.217 1.41-3.217 3.144 0 1.735 1.443 3.145 3.217 3.145zM1.608 9.248l.001.026v1.764h.862V8.636h-.822a3.433 3.433 0 00-.04.612zM4.017 3.91a5.047 5.047 0 00-.107.18L2.404 7.065h3.464L7.494 3.91H4.017zm22.175 0H13.5c-.887 0-1.418.306-1.777 1.024l-1.068 2.168H28.14zm15.044 5.894c-.159.178-.22.375-.22.464v.77h1.871c-.358-.501-.907-.911-1.65-1.234zm2.155 2.805l-3.178.001h-.001a.813.813 0 01-.568-.23.777.777 0 01-.236-.555v-1.557c0-.293.08-.63.246-.958-2.928-.628-8.29-.636-8.348-.636H9.393a.795.795 0 01-.803-.786V7.85c0-.117.027-.234.08-.34l1.606-3.262c.633-1.267 1.717-1.91 3.223-1.91h11.544c-.574-.548-1.22-.768-2.266-.768H7.547c-.726 0-1.462.276-2.124.769h3.376c.279 0 .538.142.684.374a.77.77 0 01.033.766L7.081 8.204a.805.805 0 01-.718.432H4.078v2.403c0 .867-.72 1.571-1.607 1.571h-.862v1.333c0 1.17 1.078 1.703 1.827 1.934.614-1.916 2.446-3.31 4.605-3.31 2.386 0 4.37 1.703 4.755 3.931H32.25c.383-2.228 2.37-3.93 4.755-3.93 2.386 0 4.371 1.702 4.755 3.93h1.632v-3.79l-.001-.099zm-10.394-.046H12.113a.795.795 0 01-.803-.786c0-.434.36-.785.803-.785h20.884c.444 0 .803.351.803.785 0 .434-.36.786-.803.786zM8.04 14.957c.443 0 .803.351.803.786 0 .434-.36.785-.803.785a.765.765 0 00-.773.755c0 .416.347.756.773.756.425 0 .772-.34.772-.756 0-.434.36-.785.803-.785.444 0 .804.351.804.785 0 1.282-1.067 2.326-2.38 2.326-1.311 0-2.379-1.044-2.379-2.326s1.068-2.326 2.38-2.326zm28.964 0c.444 0 .804.351.804.786 0 .434-.36.785-.804.785a.765.765 0 00-.773.755c0 .416.347.756.773.756.426 0 .772-.34.772-.756 0-.434.36-.785.804-.785.443 0 .803.351.803.785 0 1.282-1.067 2.326-2.38 2.326-1.311 0-2.379-1.044-2.379-2.326s1.068-2.326 2.38-2.326z" fill="#051942"/></svg><svg viewBox="0 0 17 17" id="form-name" xmlns="http://www.w3.org/2000/svg"><path d="M17 17h-1.328c.046-4.674-4.792-8.632-9.761-6.688-2.486.972-4.585 3.258-4.582 6.688H.001c-.049-3.248 1.648-5.573 3.553-6.92.563-.398 1.7-.727 2.158-1.126-1.296-.566-2.6-3.134-1.992-5.198.518-1.758 2.53-4.13 5.112-3.708 2.19.36 3.571 1.37 4.283 3.179.849 2.154-.29 5.06-1.826 5.727l.034.067C14.238 9.61 17.004 13.356 17 17zM8.168 1.373l-.896.199c-1.043.405-1.888 1.244-2.224 2.35C4.33 6.28 6.417 8.93 8.832 8.524c4.484-.753 4.282-7.213-.664-7.151z" fill="#051942"/></svg><svg viewBox="0 0 18 18" id="form-phone" xmlns="http://www.w3.org/2000/svg"><path d="M4.61 0l.706.07c.236.328 1.275 4.365 1.127 4.81-.143.43-1.72 1.503-1.586 1.792.6 1.925 3.072 4.212 4.616 5.302.171.121 1.785 1.21 1.902 1.159l1.55-1.58c.798-.236 2.823.404 3.7.632.488.126 1.075.072 1.268.491.382.673-.367 2.322-.599 2.704-1.09 1.798-3.454 3.358-6.306 2.247-4.458-1.733-7.771-4.753-9.865-8.849-1.242-2.43-1.758-4.809.07-7.093C1.707 1.043 2.615.483 3.483.21L4.611 0zm-.246 1.159c-.889.404-1.691.495-2.255 1.193-1.507 1.87-1.12 4.068.036 6.04 2.051 3.504 4.64 6.235 8.526 7.901.654.28 1.57.737 2.572.562 1.835-.321 3.488-1.482 3.558-3.511l-3.382-.703-1.762 1.721c-.585.17-2.167-1.018-2.537-1.264C7.32 11.9 5.842 10.439 4.681 8.603c-.393-.622-1.109-1.355-1.127-2.283.388-.737 1.229-1.176 1.726-1.825l-.704-3.336h-.212z" fill="#051942"/></svg><svg viewBox="0 0 21 23" id="form-volume" xmlns="http://www.w3.org/2000/svg"><path d="M9.845 13.919h1.303v1.348H9.845zm0 5h1.303v1.347H9.845zm0-10.089h1.303v1.348H9.845zm10.522-3.54a2.277 2.277 0 010 3.14l-.487.504c.153.305.24.652.24 1.02 0 .75-.363 1.414-.916 1.816l.001.002-.58.432v4.215l-2.99 3.093v1.267c0 1.225-.964 2.22-2.148 2.22h-5.98c-1.185 0-2.148-.995-2.148-2.22v-1.267l-2.99-3.093v-4.215l-.58-.432v-.002a2.242 2.242 0 01-.915-1.817c0-.367.087-.714.24-1.019L.627 8.43a2.277 2.277 0 010-3.14l.875-.906a2.1 2.1 0 013.036 0l1.743 1.802h1.321V4.441H6.215V0h8.564v4.44H13.39v1.746h1.322l1.742-1.802a2.1 2.1 0 013.036 0zm-4.463 1.57l1.084 1.121a2.08 2.08 0 011.97 0l.488-.504a.895.895 0 00.021-1.21l-1.033 1.07-.921-.954 1.033-1.069a.824.824 0 00-1.17.023zm-8.298 7.59a3.017 3.017 0 011.238-2.312L5.159 10.14a2.233 2.233 0 01-1.032 1.714zm-5.43-4.497c0 .481.38.873.844.873.466 0 .844-.392.844-.873s-.378-.873-.844-.873c-.465 0-.843.392-.843.873zm3.03-1.308l5.29 2.867 5.291-2.867-1.074-1.111H6.28zm3.7 5.948c0 .907.713 1.646 1.59 1.646.878 0 1.592-.739 1.592-1.646 0-.908-.714-1.646-1.591-1.646-.878 0-1.592.738-1.592 1.646zm7.96-2.738a2.233 2.233 0 01-1.031-1.714l-3.685 1.997a3.018 3.018 0 011.238 2.312zm1.107-1.03c.465 0 .844-.39.844-.872 0-.481-.379-.873-.844-.873-.465 0-.844.392-.844.873s.379.873.844.873zm-4.497-7.732V1.347H7.518v1.746zm-4.57 3.093h3.182V4.441H8.905zm-5.289-.85a.824.824 0 00-1.17-.022l1.034 1.07-.921.952-1.034-1.069a.895.895 0 00.022 1.21l.487.504a2.08 2.08 0 011.97 0L5.09 6.86zm13.705 7.84l-4.942 3.687a2.826 2.826 0 01-1.883.723 2.825 2.825 0 01-1.884-.723l-4.941-3.686v2.683l2.99 3.093v1.826c0 .481.379.873.844.873h5.981c.466 0 .844-.392.844-.873v-1.826l2.99-3.093z" fill="#051942"/></svg><svg viewBox="0 0 20 20" id="form-year" xmlns="http://www.w3.org/2000/svg"><path d="M20 4.286v13.571c0 1.184-.96 2.142-2.143 2.142H2.143A2.142 2.142 0 010 17.857V4.286c0-1.184.96-2.143 2.143-2.143h2.143V.713a.714.714 0 111.428 0v1.43h8.572V.713a.714.714 0 111.428 0v1.43h2.143c1.184 0 2.143.96 2.143 2.143zM18.57 8.57H1.428v9.286c0 .395.32.714.715.714h15.714c.394 0 .714-.32.714-.714zm0-1.429V4.286a.714.714 0 00-.714-.715h-2.143V5a.714.714 0 01-1.428 0V3.57H5.714V5a.714.714 0 01-1.428 0V3.57H2.143a.714.714 0 00-.715.715v2.856zm-3.78 4.077l-5.715 5.714a.715.715 0 01-1.01 0L5.21 14.076a.714.714 0 011.01-1.01l2.352 2.352 5.21-5.209a.714.714 0 011.01 1.01z" fill="#051942"/></svg><svg viewBox="0 0 16 16" id="instagram" xmlns="http://www.w3.org/2000/svg"><path d="M11.584 16H4.415A4.42 4.42 0 010 11.584v-7.17A4.42 4.42 0 014.415 0h7.17A4.42 4.42 0 0116 4.415v7.169A4.42 4.42 0 0111.584 16zM14.58 4.415a2.999 2.999 0 00-2.996-2.996H4.415A2.999 2.999 0 001.42 4.415v7.169a2.999 2.999 0 002.996 2.995h7.17a2.999 2.999 0 002.995-2.995zm-2.284.34c-.274 0-.543-.112-.736-.304a1.053 1.053 0 01-.306-.737 1.045 1.045 0 011.042-1.042 1.044 1.044 0 01.736 1.779 1.054 1.054 0 01-.736.304zM8 12.122A4.128 4.128 0 013.877 8 4.128 4.128 0 018 3.876 4.128 4.128 0 0112.123 8 4.128 4.128 0 018 12.123zm0-6.826A2.706 2.706 0 005.297 8 2.706 2.706 0 008 10.702 2.706 2.706 0 0010.703 8 2.706 2.706 0 008 5.296z" fill="#FFF"/></svg><svg viewBox="0 0 54 54" id="instagram-big" xmlns="http://www.w3.org/2000/svg"><g clip-path="url(#clip-2708)"><path d="M39.097 54H14.901C6.685 54 0 47.314 0 39.097V14.901C0 6.684 6.685 0 14.9 0h24.196C47.315 0 54 6.684 54 14.901v24.196C54 47.314 47.315 54 39.097 54zM49.21 39.097V14.901c0-5.575-4.536-10.11-10.112-10.11H14.901c-5.574 0-10.11 4.535-10.11 10.11v24.196c0 5.576 4.536 10.112 10.11 10.112h24.197c5.575 0 10.11-4.536 10.11-10.112zM41.498 16.05c-.923 0-1.83-.377-2.482-1.028a3.543 3.543 0 01-1.032-2.485c0-.926.377-1.834 1.032-2.486a3.527 3.527 0 012.482-1.028c.926 0 1.833.373 2.485 1.028a3.53 3.53 0 011.028 2.486 3.54 3.54 0 01-1.028 2.485 3.55 3.55 0 01-2.485 1.028zM27 40.914c-7.673 0-13.915-6.242-13.915-13.914S19.327 13.086 27 13.086c7.672 0 13.914 6.242 13.914 13.914S34.672 40.914 27 40.914zm0-23.037c-5.03 0-9.124 4.092-9.124 9.123 0 5.03 4.093 9.122 9.124 9.122 5.03 0 9.123-4.092 9.123-9.122 0-5.031-4.093-9.123-9.123-9.123z" fill="#fff"/></g></svg><svg viewBox="0 0 16 16" id="instagram2" xmlns="http://www.w3.org/2000/svg"><path d="M4.11 0h7.085c.484 0 .95-.007 1.338.09.996.248 1.825.72 2.377 1.413.451.569.785 1.182.971 2.027.133.6.067 1.415.067 2.116v3.866c0 1.39.093 2.8-.321 3.776a4.354 4.354 0 01-1.696 2.012c-.5.313-1.055.5-1.75.628-.305.057-.677.03-1.023.03H5.486c-.804 0-1.667.043-2.287-.142-1.204-.36-2.046-1.05-2.631-2.027-.296-.494-.435-1.05-.553-1.734L0 11.359V10.05 6.012 4.63l.015-.725c.13-.764.306-1.347.643-1.885A4.305 4.305 0 013.042.187c.228-.072.472-.11.725-.157L4.11 0zm8.191 2.071l-.336.083c-.37.147-.65.453-.77.852-.262.873.528 1.788 1.413 1.63.743-.132 1.401-.9 1.016-1.794-.207-.481-.623-.775-1.323-.77zM12.4 3c.476-.013.506.625.104.71-.273.058-.494-.214-.403-.471.051-.147.158-.178.299-.24zm-4.642.62l-.448.045c-.289.059-.57.111-.822.21-1.255.49-2.125 1.362-2.616 2.617-.099.253-.15.533-.209.823-.13.635-.015 1.423.142 1.921.417 1.32 1.266 2.239 2.481 2.76a5.28 5.28 0 001.024.299l.448.037.434.008c.338-.057.65-.062.942-.15 1.374-.413 2.343-1.296 2.877-2.55.424-.998.397-2.377-.023-3.35-.661-1.535-2.022-2.675-4.23-2.67zm.143.928c1.675-.031 2.791 1.017 3.273 2.19.32.778.271 1.858-.045 2.596-.42.977-1.204 1.642-2.28 1.966-.246.075-.512.063-.799.112l-.314-.015-.321-.03a4.24 4.24 0 01-.837-.261C5.645 10.695 5 9.958 4.686 8.929c-.119-.388-.2-.974-.105-1.458.042-.213.077-.426.15-.614.403-1.038 1.085-1.719 2.122-2.123.22-.086.47-.118.725-.165l.322-.022z" fill="#fff"/></svg><svg viewBox="0 0 63.03 58.562" id="intro-header" xmlns="http://www.w3.org/2000/svg"><defs><style>.bhcls-1{fill:#bc002d;fill-rule:evenodd}</style></defs><path class="bhcls-1" d="M63.02.002S39.19 2.568 42.31 24.653c0 0 14.95.717 20.71-24.651zm-6.73 44.471s-13.63 1.468-11.85 14.1c0 .004 8.55.415 11.85-14.1zM7.16 23.299s-8.12.874-7.06 8.408c0 0 5.1.245 7.06-8.408z"/></svg><svg viewBox="0 0 17 14" id="login" xmlns="http://www.w3.org/2000/svg"><path d="M9.996.121c-.164.221-.105.84-.046 1.138.333.202.783.147 1.31.147h1.7c.636 0 1.284-.036 1.68.192 1.103.635.94 1.567.94 3.22v5.587c0 .311.012.63-.057.88-.082.3-.246.523-.418.734-.204.25-.56.44-.929.523-.255.058-.603.028-.9.028h-1.784c-.324 0-1.246-.075-1.43.055-.108.076-.133.247-.159.403-.05.31-.004.763.158.881.18.131.956.064 1.273.064 1.192 0 2.795.138 3.66-.21a3.204 3.204 0 001.885-2.056c.168-.548.112-1.353.112-2.054V5.956 3.9c0-.67.019-1.327-.167-1.807-.37-.957-1.105-1.68-2.137-1.982-.47-.137-1.109-.11-1.718-.11H10.21c-.087.04-.16.048-.214.12zM5.676 12.25c0 .662-.03 1.144.447 1.33.607.237 1.177-.585 1.468-.872l3.539-3.485 1.542-1.523c.169-.168.485-.38.436-.743a.85.85 0 00-.102-.33c-.1-.163-.275-.29-.409-.423l-.864-.853-3.836-3.797-.743-.725C7.02.695 6.893.532 6.727.433 6.515.308 6.163.346 5.984.47c-.335.231-.307.65-.307 1.22v2.504H1.701c-.683 0-1.28-.097-1.57.312-.2.285-.111 1.575-.111 2.092v1.917c0 .462-.014.815.195 1.055.257.296.955.211 1.505.211h3.957v2.468z" fill="#fff"/></svg><svg viewBox="0 0 18 18" id="phone" xmlns="http://www.w3.org/2000/svg"><path d="M4.61 0l.705.07c.237.328 1.276 4.365 1.128 4.81-.143.43-1.72 1.503-1.586 1.792.6 1.926 3.072 4.212 4.616 5.302.171.12 1.785 1.21 1.902 1.16l1.55-1.581c.798-.237 2.823.404 3.7.632.488.126 1.075.072 1.268.491.382.673-.367 2.322-.599 2.704-1.09 1.798-3.454 3.357-6.306 2.247-4.458-1.733-7.771-4.753-9.865-8.849-1.243-2.43-1.758-4.808.07-7.093C1.707 1.043 2.615.483 3.483.21L4.612 0zm-.246 1.159c-.889.404-1.692.495-2.255 1.194C.602 4.222.99 6.42 2.145 8.392c2.051 3.504 4.64 6.235 8.526 7.901.654.28 1.57.737 2.572.562 1.835-.321 3.488-1.482 3.558-3.511l-3.382-.703-1.762 1.721c-.585.17-2.166-1.018-2.536-1.264-1.802-1.198-3.279-2.659-4.44-4.495-.393-.623-1.109-1.355-1.127-2.282.388-.738 1.229-1.177 1.726-1.826l-.704-3.336h-.212z" fill="#f7f7f7"/></svg><svg viewBox="0 0 15 15" id="phone-filled" xmlns="http://www.w3.org/2000/svg"><path d="M14.993 11.837a.727.727 0 01-.223.636l-2.112 2.097c-.095.106-.22.196-.373.27a1.56 1.56 0 01-.452.143c-.011 0-.043.002-.096.008a1.944 1.944 0 01-.206.009c-.201 0-.527-.036-.977-.104-.45-.07-1-.239-1.651-.509s-1.39-.675-2.215-1.215c-.826-.54-1.705-1.282-2.636-2.225A17.358 17.358 0 012.21 8.85a14.934 14.934 0 01-1.175-1.851 9.997 9.997 0 01-.667-1.542 8.173 8.173 0 01-.302-1.191 3.947 3.947 0 01-.064-.787c.011-.19.016-.297.016-.318.021-.148.07-.299.143-.452.074-.154.164-.279.27-.375L2.543.221A.702.702 0 013.051 0c.138 0 .26.04.366.12.105.079.195.176.27.293l1.698 3.226c.096.169.122.355.08.556a.995.995 0 01-.27.509l-.778.778a.268.268 0 00-.056.104.389.389 0 00-.023.119c.042.222.137.476.285.762.127.254.323.565.588.93.265.365.64.786 1.127 1.263.477.488.9.866 1.27 1.136.371.27.68.469.93.596.248.127.439.204.571.23l.199.04a.398.398 0 00.103-.023.265.265 0 00.103-.056l.905-.922a.973.973 0 01.667-.254.83.83 0 01.429.095h.016l3.065 1.812c.222.137.354.312.397.524z" fill="#fff"/></svg><svg viewBox="0 0 64 52" id="scheme-01" xmlns="http://www.w3.org/2000/svg"><path d="M60.25 19.057v20.64H64V52H0V39.698h3.75V3.753h31.742V0H64v19.058zm-21.008-1.88l3.985-1.875H60.25V3.753H39.242zM60.25 43.452H33.876v1.762h-3.75v-1.762H3.75v4.792h56.5zm-38.638-16.07a1.867 1.867 0 00-1.863-1.866 1.867 1.867 0 000 3.731 1.867 1.867 0 001.863-1.866zm-2.922 5.62a4.427 4.427 0 00-4.419 4.424v2.271H25.23v-2.271A4.427 4.427 0 0020.81 33zM56.5 19.056H44.064l-8.572 4.032V7.508H7.5v32.19h3.021v-2.272a8.186 8.186 0 014.368-7.236 5.589 5.589 0 01-.754-2.809 5.623 5.623 0 015.614-5.62 5.623 5.623 0 015.613 5.62c0 1.023-.275 1.98-.753 2.807a8.186 8.186 0 014.37 7.238v2.272H56.5zm-44.104-6.461h14.709v3.754H12.396zm26.27 19.592h14.708v3.754H38.666zm0-7.509h14.708v3.755H38.666z" fill="#051942"/></svg><svg viewBox="0 0 61 61" id="scheme-02" xmlns="http://www.w3.org/2000/svg"><path d="M4.14 4.01v53.058l40.721-.119c-.05-3.26-.675-8.798.831-10.683.773-.21 1.365-.207 2.137 0 1.248 1.69 1.28 11.026.594 13.77-2.25 1.615-8.912.711-12.466.711L1.054 60.63c-1.705-2.356-.832-9.023-.831-12.82V14.811c0-2.552-.652-12.353.356-13.65C1.5-.667 8.365.21 11.026.21h28.137c2.688 0 8.339-.795 9.26 1.068.866 1.617.255 13.491.237 16.381 1.39-1.103 2.904-3.869 4.75-4.273 1.338-.294 7.102 5.44 7.479 6.41.248.638.02 1.237-.12 1.78-.736.563-1.12.898-2.255.83-1.891-.989-2.98-3.01-4.63-4.272h-.237L34.295 37.6c.633 1.21 1.554 1.466 1.069 3.324l-1.069.712c-1.357.589-2.193-.652-2.849-1.187-1.175.874-1.627 2.383-1.78 4.273 4.04-.544 5.344-2.97 7.597-5.223l11.635-11.513c1.866-1.867 4.427-6.312 7.717-5.104.781 1.47.808 4.04.475 6.053-1.445 8.734-3.849 8.306-9.26 12.582-1.165.92-1.131 3.103-2.612 3.68-3.411 1.41-2.372-3.505-1.544-4.748 1.979-2.968 6.119-3.772 8.073-6.766.847-1.297 1.017-2.837 1.544-4.51L35.364 46.978c-2.134 1.544-4.25.706-7.005 1.662-1.566.544-1.952 3.172-4.63 2.611l-2.493-1.068c-2.229 1.916-5.256.402-7.598.119-2.096-.253-3.368 1.992-5.936.237-.157-.483-.401-.952-.237-1.424.385-2.314 2.527-.82 3.442-2.255-1.717-4.323 1.585-12.697 6.411-11.633 6.771 1.494 2.135 9.392 0 12.108v.118h.594c2.539-.908 1.434-2.585 3.087-3.442l1.424-.238c1.37.68 1.345 1.723 1.662 3.443 2.337-1.729 1.92-6.392 3.68-8.665l17.096-17.093-.118-17.449H4.14zm5.818 5.46h22.556c2.47 0 6.632-.64 7.48 1.068 1.739 3.219-3.55 2.73-6.055 2.73H16.487c-2.599 0-5.927.334-7.48-.712-.267-.83-.346-1.33-.118-2.256l1.069-.83zm.356 8.427h22.082c2.203 0 6.5-.592 7.36.831.768.709.496 2.19-.356 2.611-1.16 1.056-5.436.475-7.48.475H17.2c-2.47 0-5.518.235-7.599-.237-.69-.854-1.089-1.356-.712-2.73l1.425-.95zm-.238 8.546c3.623-.053 16.193-.802 17.096 1.306.174.602.032 1.122-.119 1.662l-1.068.831H9.958L8.77 29.174c-.2-1.65.306-1.999 1.306-2.73zm6.411 12.583c-1.429 1.361-2.168 2.951-2.137 5.816l.238-.119c.53-1.045 3.67-4.146 1.9-5.697z" fill="#051942"/></svg><svg viewBox="0 0 59 51" id="scheme-03" xmlns="http://www.w3.org/2000/svg"><path d="M32.318.006c13.127-.222 21.084 6.778 24.94 15.87 2.852 6.729 2.035 16.211-1.24 21.816-4.143 7.087-9.884 11.384-19.522 13.063-1.981.345-4.774.328-6.725-.066-1.836-.37-3.624-.736-5.223-1.371-3.623-1.44-6.78-3.549-9.27-6.14l-2.416-2.873-11.23 7.445v-.13L0 45.203l.13-.065 11.1-7.511c-.85-2.459-2.022-4.608-2.677-7.577C5.598 16.664 15.222 5.62 23.569 2.03c1.66-.713 3.5-1.208 5.419-1.632l3.33-.392zm.13 3.07l-2.48.26c-1.647.346-3.259.714-4.702 1.307C19.141 7.16 14.9 11.8 12.47 18.033c-.79 2.028-1.632 5.41-1.175 8.164.296 1.786.167 3.243.587 4.768 2.017 7.309 6.579 12.361 13.123 15.153 2.209.941 6.367 2.338 9.859 1.763 1.973-.325 3.788-.448 5.484-.98 6.511-2.042 11.417-6.723 13.972-12.736 2.282-5.372 2.042-12.473-.196-17.635C50.7 8.636 43.8 3.04 32.448 3.076zm17.954 19.071v11.691h-3.721c-.819 4.25-8.505 4.325-9.271 0h-7.443c-.819 4.251-8.505 4.324-9.27 0h-3.722v-11.69h2.154l3.33-8.36h12.144c1.442-.001 3.938-.388 5.092.13l6.594 8.23h4.113zm-20.043 0v-5.029h-5.55l-1.958 5.03h7.508zm3.33-5.029v5.03h8.16v-.066l-.26-.261c-1.22-1.567-2.438-3.136-3.657-4.703H33.69zm-13.385 8.36v5.03l.392-.066c.648-2.439 4.254-4.374 7.117-2.678 1.18.7 1.404 1.774 2.285 2.743h7.247c1.936-4.445 7.455-4.414 9.401 0h.327V25.48H20.304zm4.57 5.03c-2.142 1.176-1.085 4.069 1.045 3.265 1.772-.668 1.313-3.396-1.044-3.266zm16.714 0c-1.91 1.045-1.286 4.141 1.045 3.265 1.779-.668 1.31-3.388-1.045-3.266z" fill="#051942"/></svg><svg viewBox="0 0 60 60" id="scheme-04" xmlns="http://www.w3.org/2000/svg"><path d="M60 50.71v7.531c0 .971-.787 1.758-1.758 1.758H31.843c-.97 0-1.758-.787-1.758-1.758V50.71c0-.97.787-1.758 1.758-1.758h26.4c.97 0 1.757.787 1.757 1.758zm-3.516 1.758H33.601v4.016h22.883zM29.41 25.544L24.954 30l1.42 1.42c.686.686.686 1.8 0 2.486L8.325 51.953a1.758 1.758 0 01-2.486 0L.514 46.627a1.758 1.758 0 010-2.486l18.048-18.048a1.758 1.758 0 012.486 0l1.42 1.42 4.455-4.454-1.508-1.51-.089.09c-.685.685-1.799.686-2.486 0l-5.325-5.326a1.758 1.758 0 010-2.486L30.828.513a1.759 1.759 0 012.486 0L38.64 5.84c.686.687.686 1.8 0 2.486l-.089.088 5.502 5.502.09-.088a1.759 1.759 0 012.485 0l5.326 5.325c.686.687.686 1.8 0 2.486L38.64 34.952c-.686.686-1.8.686-2.486 0l-5.326-5.326a1.759 1.759 0 010-2.486l.089-.088zm-6.764 7.118l-2.84-2.84L4.243 45.384l2.84 2.84zm11.912-4.279l2.84 2.84 10.828-10.828-2.84-2.839zm.354-21.301l-2.84-2.84L21.245 15.07l2.84 2.84zm-7.01 11.982l5.502 5.502 8.165-8.164-5.502-5.503zm17.161 18.591c.971 0 1.758.788 1.758 1.758v3.766a1.758 1.758 0 01-3.516 0v-3.766c0-.97.787-1.758 1.758-1.758zm6.289 4.281l1.882-1.883a1.757 1.757 0 112.486 2.486l-1.882 1.883a1.758 1.758 0 01-2.486-2.486zm-14.46-1.883l1.883 1.883a1.758 1.758 0 11-2.486 2.486l-1.883-1.883a1.758 1.758 0 112.486-2.486z" fill="#051942"/></svg><svg viewBox="0 0 61 61" id="scheme-05" xmlns="http://www.w3.org/2000/svg"><path d="M56.24 39.109c1.043-.663 2.341-1.487 4.76-1.487v3.633c-1.394 0-2.011.391-2.866.934-1.043.663-2.34 1.487-4.76 1.487-2.419 0-3.716-.824-4.76-1.487-.854-.543-1.471-.934-2.865-.934-1.394 0-2.011.391-2.865.934-1.043.663-2.341 1.487-4.76 1.487-2.419 0-3.717-.824-4.76-1.487-.854-.543-1.471-.934-2.865-.934-1.394 0-2.011.392-2.865.934-1.043.663-2.341 1.487-4.76 1.487-2.418 0-3.716-.824-4.76-1.487-.854-.543-1.47-.934-2.865-.934-1.393 0-2.01.391-2.865.934-1.043.663-2.34 1.487-4.76 1.487-2.418 0-3.716-.824-4.759-1.487-.854-.543-1.471-.934-2.865-.934v-3.633c2.419 0 3.717.825 4.76 1.487.854.543 1.471.935 2.865.935 1.393 0 2.01-.392 2.865-.935.676-.43 1.46-.926 2.586-1.222l-2.91-13.214c-.562-2.55.932-5.115 3.4-5.842l1.802-.53V6.782h8.877V0h12.51v6.78h8.876v11.426l2.137.615c2.546.733 4.04 3.351 3.403 5.961l-3.204 13.116c1.102.298 1.875.787 2.542 1.21.854.544 1.472.936 2.865.936 1.394 0 2.012-.392 2.866-.935zm-8.538-15.203a1.318 1.318 0 00-.907-1.59l-14.509-4.174v3.128l14.433 6.661zM27.82 6.78h5.362V3.632h-5.362zm-8.877 10.47l11.552-3.399 11.563 3.327v-6.765H18.942zm-4.381 5.07a1.325 1.325 0 00-.907 1.559l.866 3.935 14.192-6.544v-3.114zM25.739 39.11c.75-.477 1.636-1.036 2.973-1.312V25.258l-13.394 6.177 1.388 6.3c1.525.248 2.492.859 3.303 1.374.854.543 1.472.935 2.865.935 1.394 0 2.011-.392 2.865-.935zm18.586-1.379l1.518-6.214-13.557-6.257v12.537c1.337.277 2.222.836 2.973 1.313.854.543 1.471.935 2.865.935 1.393 0 2.01-.392 2.865-.935.817-.519 1.792-1.135 3.336-1.379zM56.24 47.77c1.043-.662 2.341-1.486 4.76-1.486v3.632c-1.394 0-2.011.392-2.866.935-1.043.662-2.34 1.487-4.76 1.487-2.419 0-3.716-.825-4.76-1.487-.854-.543-1.471-.935-2.865-.935-1.394 0-2.011.392-2.865.935-1.043.662-2.341 1.487-4.76 1.487-2.419 0-3.717-.825-4.76-1.487-.854-.543-1.471-.935-2.865-.935-1.394 0-2.011.393-2.865.935-1.043.662-2.341 1.487-4.76 1.487-2.418 0-3.716-.825-4.76-1.487-.854-.543-1.47-.935-2.865-.935-1.393 0-2.01.392-2.865.935-1.043.662-2.34 1.487-4.76 1.487-2.418 0-3.716-.825-4.759-1.487-.854-.543-1.471-.935-2.865-.935v-3.632c2.419 0 3.717.824 4.76 1.486.854.543 1.471.935 2.865.935 1.393 0 2.01-.392 2.865-.935 1.043-.662 2.34-1.486 4.76-1.486 2.418 0 3.716.824 4.76 1.486.853.543 1.47.935 2.864.935s2.011-.392 2.865-.935c1.043-.662 2.341-1.486 4.76-1.486 2.419 0 3.717.824 4.76 1.486.854.543 1.471.935 2.865.935 1.393 0 2.01-.392 2.865-.935 1.043-.662 2.341-1.486 4.76-1.486 2.419 0 3.717.824 4.76 1.486.854.543 1.472.935 2.865.935 1.394 0 2.012-.392 2.866-.935zm-15.25 8.663c1.042-.663 2.34-1.487 4.759-1.487v3.632c-1.394 0-2.011.392-2.865.935-1.043.662-2.341 1.487-4.76 1.487-2.419 0-3.717-.825-4.76-1.487-.854-.543-1.471-.935-2.865-.935-1.394 0-2.011.392-2.865.935-1.043.662-2.34 1.487-4.76 1.487-2.418 0-3.716-.825-4.76-1.487-.854-.543-1.47-.935-2.865-.935v-3.632c2.42 0 3.717.824 4.76 1.487.855.542 1.472.934 2.865.934 1.394 0 2.011-.392 2.865-.934 1.043-.663 2.341-1.487 4.76-1.487 2.419 0 3.717.824 4.76 1.487.854.542 1.471.934 2.865.934 1.393 0 2.01-.392 2.865-.934z" fill="#051942"/></svg><svg viewBox="0 0 48 58" id="scheme-06" xmlns="http://www.w3.org/2000/svg"><path d="M42.571 27.348c2.994 0 5.429 2.41 5.429 5.373v3.676c0 2.962-2.435 5.372-5.429 5.372H40.57C40.477 50.734 33.08 58 24 58c-9.08 0-16.476-7.265-16.568-16.23H5.428C2.435 41.77 0 39.36 0 36.397V32.72c0-2.963 2.435-5.373 5.428-5.373h2v-5.033c-1.49-1.786-5.347-6.713-5.347-9.879 0-3.143 2.027-5.92 5.043-6.91L24 0l16.876 5.527c3.016.989 5.043 3.766 5.043 6.91 0 3.165-3.857 8.092-5.348 9.878v5.033zm-31.714-1.981c0 2.107 1.732 3.821 3.86 3.821h18.565c2.129 0 3.86-1.714 3.86-3.821v-1.974H10.858zM8.201 8.748a3.884 3.884 0 00-2.691 3.688c0 1.54 2.487 5.197 4.435 7.564h28.11c1.947-2.369 4.435-6.028 4.435-7.564a3.884 3.884 0 00-2.692-3.688L24 3.574zM5.428 38.376h2v-7.635h-2c-1.102 0-2 .889-2 1.98v3.676c0 1.091.898 1.98 2 1.98zM24 54.606c7.247 0 13.143-5.834 13.143-13.007V31.482a7.298 7.298 0 01-3.86 1.099H14.717a7.298 7.298 0 01-3.86-1.099V41.6c0 7.173 5.895 13.007 13.142 13.007zM44.57 32.721c0-1.091-.897-1.98-2-1.98h-2v7.635h2c1.103 0 2-.888 2-1.98zm-26-20.472c0-2.962 2.436-5.373 5.429-5.373 2.993 0 5.429 2.41 5.429 5.373 0 2.962-2.436 5.372-5.43 5.372-2.992 0-5.428-2.41-5.428-5.372zm3.429 0c0 1.091.897 1.98 2 1.98s2-.889 2-1.98a1.992 1.992 0 00-2-1.98c-1.103 0-2 .889-2 1.98z" fill="#051942"/></svg><svg viewBox="0 0 63 41" id="scheme-07" xmlns="http://www.w3.org/2000/svg"><path d="M62.905 23.637c.063.19.095.39.095.59V35.41c0 1.03-.826 1.863-1.846 1.863h-3.393C56.999 39.442 54.947 41 52.54 41c-2.406 0-4.458-1.559-5.22-3.728h-24.26C22.3 39.442 20.248 41 17.841 41a5.482 5.482 0 01-3.69-1.429A5.483 5.483 0 0110.458 41c-2.406 0-4.458-1.559-5.22-3.728H1.846A1.855 1.855 0 010 35.41V1.863C0 .834.826 0 1.846 0h41.836c1.019 0 1.845.834 1.845 1.863v9.318h11.936c.794 0 1.5.514 1.75 1.275zm-6.773-8.728h-2.976v7.454h5.437zm-52.44 7.454h38.144V3.727H3.69zm0 11.182h1.547c.762-2.169 2.814-3.727 5.22-3.727 1.417 0 2.71.54 3.691 1.428a5.485 5.485 0 013.692-1.428c2.406 0 4.458 1.558 5.22 3.727h18.774V26.09H3.69zm8.613 1.864a1.856 1.856 0 00-1.846-1.864 1.856 1.856 0 00-1.846 1.864c0 1.027.828 1.863 1.846 1.863a1.857 1.857 0 001.846-1.863zm7.383 0a1.856 1.856 0 00-1.846-1.864 1.856 1.856 0 00-1.846 1.864c0 1.027.828 1.863 1.846 1.863a1.857 1.857 0 001.846-1.863zm34.699 0a1.856 1.856 0 00-1.846-1.864 1.856 1.856 0 00-1.846 1.864c0 1.027.828 1.863 1.846 1.863a1.857 1.857 0 001.846-1.863zm4.922-1.864V26.09H51.31a1.855 1.855 0 01-1.845-1.863V14.91h-3.938v18.636h1.794c.762-2.169 2.814-3.727 5.22-3.727 2.406 0 4.458 1.558 5.22 3.727zm-47.25-25.47v9.94a1.855 1.855 0 01-1.846 1.864 1.855 1.855 0 01-1.846-1.864v-9.94c0-1.029.827-1.863 1.846-1.863 1.02 0 1.846.834 1.846 1.863zm8.367 0v9.94a1.855 1.855 0 01-1.846 1.864 1.855 1.855 0 01-1.846-1.864v-9.94c0-1.029.827-1.863 1.846-1.863 1.02 0 1.846.834 1.846 1.863zm16.734 0v9.94a1.855 1.855 0 01-1.846 1.864 1.855 1.855 0 01-1.845-1.864v-9.94c0-1.029.826-1.863 1.845-1.863 1.02 0 1.846.834 1.846 1.863zm-8.367 0v9.94a1.855 1.855 0 01-1.846 1.864 1.855 1.855 0 01-1.846-1.864v-9.94c0-1.029.827-1.863 1.846-1.863 1.02 0 1.846.834 1.846 1.863z" fill="#051942"/></svg><svg viewBox="0 0 18 18" id="user" xmlns="http://www.w3.org/2000/svg"><path d="M18 18h-1.406c.048-4.95-5.074-9.14-10.336-7.082-2.631 1.03-4.854 3.45-4.85 7.082H0c-.052-3.44 1.745-5.901 3.761-7.327.597-.422 1.801-.77 2.285-1.192-1.371-.6-2.752-3.319-2.109-5.504.549-1.862 2.68-4.374 5.414-3.926 2.319.38 3.78 1.45 4.535 3.365.898 2.282-.307 5.36-1.934 6.065l.036.07c3.087.625 6.016 4.59 6.01 8.449zM8.649 1.453l-.95.21c-1.104.43-1.999 1.318-2.354 2.49-.76 2.497 1.45 5.302 4.007 4.872 4.747-.797 4.533-7.637-.703-7.572z" fill="#f7f7f7"/></svg><svg viewBox="0 0 43 60" id="what-01" xmlns="http://www.w3.org/2000/svg"><path d="M9.472 0h4.71v12.187h14.604V0h4.711v12.187h9.422v18.047c0 3.066.335 6.717-.353 9.258-1.353 4.99-4.986 8.745-9.893 10.195-2.392.707-5.802.488-8.833.469V60h-4.71v-9.844c-2.797.03-6.073.27-8.362-.352C5.558 48.39 1.83 44.672.404 39.492c-.69-2.502-.354-6.114-.354-9.14V12.186h9.422V0zm-4.71 16.874c-.048 5.838-1.017 18.838.706 22.97.793 1.901 2.518 3.572 4.24 4.57 3.07 1.78 9.58 1.054 14.25 1.054 4.545 0 8.077 0 10.6-1.875 5.428-4.033 3.71-17.443 3.65-26.719H4.761zm14.25 4.454h5.064l-2.945 6.914 8.126.117c-2.153 4.713-3.82 10.957-9.068 12.656-.083-3.934.571-5.62 1.767-7.969v-.117H13.83l5.181-11.6z"/></svg><svg viewBox="0 0 63 55" id="what-02" xmlns="http://www.w3.org/2000/svg"><path d="M49.131 0c4.765-.045 6.43 8.86 9.092 11.58 1.339 1.367 3.017 1.249 4.055 3.326.813 1.625 1 4.575.246 6.405-1.523 3.694-7.882 6.108-10.69 1.848-2.255-3.421 1.963-5.052 4.67-2.956l.982-.37c1.025-3.959-1.637-2.29-3.071-4.312l-5.16-9.116-.492.493-14.621 11.457h-5.284l2.95 12.195c7.441-.084 17.009-.917 21.5 2.095 6.844 4.589 6.656 15.826-.245 20.203-4.66 2.955-14.822 1.847-22.239 1.848-12.929 0-24.031 2.366-29.12-6.16-.938-1.573-2.057-4.191-1.597-7.022.286-1.755.7-3.485 1.475-4.804 1.54-2.62 3.777-3.33 5.897-5.297v-17.74c0-2.498-.397-5.512 1.106-6.529 1.384-.935 15.901-.792 17.079.124 1.1.855 1.601 4.185 1.843 5.79h5.037L49.131 0zM12.64 11.95v18.6H26.4v-.369L21.978 11.95H12.64zm-1.475 23.898c-1.528.692-2.856.887-3.931 1.97-3.146 3.17-1.834 8.845 1.474 10.841 2.573 1.553 8.366.863 12.287.862h19.044c2.953.001 6.901.426 9.092-.492 1.93-.809 3.56-2.81 4.055-5.05.704-3.186-1.284-5.982-3.072-7.146-2.43-1.58-7.784-.986-11.672-.985H11.165zm2.212 4.188c3.165-.204 6.313 2.045 3.809 4.558-2.875 2.886-8.92-1.542-3.809-4.558zm29.365 0c3.722-.233 6.407 2.895 3.318 4.928-3.624 2.385-7.933-2.502-3.318-4.928z"/></svg><svg viewBox="0 0 55 48" id="what-03" xmlns="http://www.w3.org/2000/svg"><path d="M54.893 11.86l-.114 4.293h-4.79c1.478 2.339 3.448 4.638 4.334 7.454 1.041 3.31.57 8.387.57 12.537 0 3.867.185 7.36-1.483 9.488-3.937 5.021-11.529 1.472-11.404-5.196h-29.08c.17 7.026-7.677 10.1-11.518 4.97-1.511-2.02-1.255-5.575-1.255-9.15 0-3.997-.555-9.159.456-12.423.902-2.911 2.829-5.171 4.334-7.567v-.113H.153V11.86h6.5l3.422-9.375C19.205.168 36.59-1.869 45.2 2.712l3.193 9.149h6.5zM23.988 4.294l-3.764.34-7.07 1.354-2.623 7.794h33.984v-.113l-2.85-7.794-6.615-1.242c-3.344-.598-7.284-.323-11.062-.339zM4.373 36.257h13V25.64h20.3v10.617H50.56l-.115-10.73c-.735-2.88-2.847-5.266-4.333-7.567H19.768c-2.712 0-9.053-.666-11.062.226l-3.763 6.099c-1.196 2.885-.57 8.171-.57 11.972zM9.276 25.64c2.194-.092 3.95-.157 4.562 1.356 1.212 3.423-5.276 3.855-6.044 1.468-.663-1.428.531-2.273 1.482-2.824zm33.415 0l3.42.113c1.666.692 1.556 3.329-.113 3.953-2.984.94-5.584-.293-4.79-3.05.504-.39.877-.662 1.483-1.016zM21.593 36.257h11.746v-6.438l-11.746.113v6.325zm-17.22 4.179c-.265 4.139 4.578 4.126 4.333 0H4.373zm41.967 0c-.152 2.547.983 3.61 3.307 2.937.657-.847.952-1.283.913-2.937h-4.22z"/></svg><svg viewBox="0 0 62 61" id="what-04" xmlns="http://www.w3.org/2000/svg"><path d="M62 27.718v6.58a1.748 1.748 0 01-1.576 1.723l-3.614.344a20.242 20.242 0 01-1.78 4.221l2.311 2.808c.566.69.514 1.706-.102 2.325l-4.608 4.634a1.7 1.7 0 01-2.295.104l-2.791-2.326a19.665 19.665 0 01-4.214 1.774l-.342 3.67a1.718 1.718 0 01-1.713 1.568h-5.823v4.134c0 .947-.77 1.723-1.713 1.723a1.723 1.723 0 01-1.712-1.723V48.252H16.27v2.653c0 3.428-2.843 6.15-6.269 6.15H6.268C2.843 57.055 0 54.35 0 50.905v-20.57c0-2.342.976-4.582 2.672-6.184l1.284-1.206c0-.017.017-.05.017-.068L9.112 8.923a6.262 6.262 0 015.823-4.1h17.093V1.722c0-.947.77-1.723 1.712-1.723s1.713.776 1.713 1.723v5.169h5.823c.874 0 1.61.671 1.696 1.55l.342 3.652a19.642 19.642 0 014.196 1.791l2.792-2.325a1.706 1.706 0 012.312.12l4.556 4.635c.617.637.668 1.619.103 2.308l-2.312 2.79a19.324 19.324 0 011.798 4.256l3.648.344A1.789 1.789 0 0162 27.718zM12.828 48.252H6.251a6.491 6.491 0 01-2.843-.603v3.238c0 1.534 1.319 2.705 2.843 2.705h3.734c1.542 0 2.843-1.171 2.843-2.705zM32.01 31.886v-6.718H6.56l-1.542 1.464a5.154 5.154 0 00-1.61 3.687v11.749c0 1.55 1.319 2.738 2.843 2.738h25.76v-5.168H26.65a1.723 1.723 0 010-3.445h5.36v-.861h-5.36a1.723 1.723 0 010-3.446zm-5.103-10.163c-.754-2.757-3.306-4.91-6.355-4.91-3.048 0-5.617 2.153-6.37 4.91zM32.01 8.286H14.918a2.774 2.774 0 00-2.604 1.826l-4.281 11.61h2.637c.822-4.65 4.95-8.355 9.882-8.355 4.933 0 9.043 3.704 9.866 8.356h1.592zm3.426 29.992a7.634 7.634 0 005.104 0c3.99-1.413 6.08-5.823 4.675-9.837-1.404-4.014-5.788-6.115-9.78-4.703zm23.121-5.547v-3.463l-3.322-.31a1.734 1.734 0 01-1.542-1.344 15.757 15.757 0 00-2.26-5.392 1.715 1.715 0 01.102-2.05l2.107-2.567-2.364-2.394-2.517 2.101a1.69 1.69 0 01-2.021.121 16.51 16.51 0 00-5.378-2.274 1.719 1.719 0 01-1.336-1.516l-.326-3.29h-4.264v9.802a11.031 11.031 0 015.087 0c5.943 1.412 9.642 7.425 8.238 13.402-1.405 5.978-7.365 9.699-13.325 8.287v9.836h4.282l.308-3.307c.068-.741.6-1.361 1.336-1.517a15.58 15.58 0 005.36-2.273c.617-.431 1.456-.38 2.039.103l2.535 2.102 2.397-2.412-2.09-2.55a1.716 1.716 0 01-.12-2.032 16.383 16.383 0 002.279-5.41 1.754 1.754 0 011.524-1.344zm-37.85-.672v7.407c0 .948-.771 1.723-1.713 1.723H8.375a1.723 1.723 0 01-1.713-1.723v-7.407c0-.948.771-1.723 1.713-1.723h10.619c.942 0 1.713.775 1.713 1.723zM17.28 33.78h-7.193v3.962h7.193z"/></svg><svg viewBox="0 0 16 16" id="whatsapp" xmlns="http://www.w3.org/2000/svg"><path d="M16 7.999c0 4.411-3.587 8-7.998 8A7.932 7.932 0 013.6 14.677l-3.075.983.997-2.972A7.938 7.938 0 010 7.999c0-4.412 3.587-8 7.998-8h.004c4.41 0 7.998 3.59 7.998 8zm-3.206 2.187c-.057-.099-.212-.155-.447-.273-.235-.117-1.378-.682-1.594-.757-.212-.08-.414-.052-.574.174-.225.315-.446.635-.625.829-.141.15-.371.168-.564.088-.26-.108-.983-.362-1.876-1.157-.692-.615-1.162-1.383-1.298-1.613-.136-.235-.014-.371.094-.498.118-.145.23-.25.348-.386.118-.136.184-.207.259-.367.08-.155.023-.315-.034-.433-.056-.118-.526-1.266-.72-1.73-.154-.372-.272-.386-.507-.396-.08-.004-.17-.009-.268-.009-.306 0-.625.09-.818.287-.235.24-.818.8-.818 1.947 0 1.148.837 2.258.95 2.414.118.154 1.632 2.543 3.983 3.518 1.838.76 2.384.69 2.802.601.61-.132 1.377-.584 1.57-1.128.193-.547.193-1.012.137-1.11z" fill="#fff"/></svg></svg>